<svg width="8" height="8" viewBox="0 0 8 8" fill="none" xmlns="http://www.w3.org/2000/svg">
<path d="M4.00001 0C6.20897 0 8 1.7906 8 3.99972C8 6.20883 6.20897 8 4.00001 8C1.79104 8 2.08087e-07 6.20883 2.08087e-07 3.99972C0.000563655 1.7906 1.79104 0 4.00001 0ZM4.00444 1.44314C3.57652 1.44314 3.22909 1.79005 3.22909 2.21856C3.22909 2.6465 3.57598 2.99397 4.00444 2.99397C4.43292 2.99397 4.77924 2.64704 4.77924 2.21856C4.77924 1.79005 4.43235 1.44314 4.00444 1.44314ZM1.90594 4.45764L3.45832 6.01014C3.6126 6.16443 3.81574 6.23993 4.01832 6.23715C4.20647 6.23436 4.39406 6.16333 4.5406 6.02456L4.54114 6.024C4.54559 6.01956 4.54947 6.01512 4.55336 6.01068L6.10573 4.45764C6.43597 4.15514 6.43597 3.66392 6.13348 3.36141C5.98195 3.20988 5.78382 3.1344 5.58513 3.1344C5.38643 3.1344 5.1883 3.20988 5.03677 3.36141L4.01943 4.37882L3.00152 3.36141C2.69905 3.0589 2.20787 3.0589 1.90538 3.36141C1.75385 3.51294 1.67837 3.7111 1.67837 3.90926C1.67837 4.10739 1.75441 4.30611 1.90594 4.45764Z" fill="#535FED"/>
</svg>
