<svg width="110" height="24" viewBox="0 0 110 24" fill="none" xmlns="http://www.w3.org/2000/svg">
<g clip-path="url(#clip0_4_568)">
<path d="M11.9482 0C18.5466 0 23.8947 5.36911 23.8965 11.9932C23.8965 18.6173 18.5466 23.9883 11.9482 23.9883C5.34994 23.9883 0 18.6173 0 11.9932C9.474e-05 5.36913 5.35 2.24445e-05 11.9482 0ZM47.2529 5.86719C50.7441 5.86727 53.574 8.64777 53.5742 12.0811C53.5742 15.5129 50.7443 18.2958 47.2529 18.2959C46.2035 18.2959 45.2132 18.045 44.3428 17.6006V20.3301C44.3428 22.4189 42.8195 23.2812 40.9395 23.2812V12.3857C40.9345 12.286 40.9316 12.1841 40.9316 12.0811C40.9319 8.6494 43.7616 5.86719 47.2529 5.86719ZM7.21387 9.39844C6.62035 9.39844 6.02782 9.62472 5.5752 10.0791C4.67171 10.9861 4.67195 12.4591 5.6582 13.3662L10.2949 18.0234C10.3065 18.0368 10.3187 18.0502 10.332 18.0635L10.334 18.0645C10.7717 18.4805 11.3316 18.6938 11.8936 18.7021C12.4987 18.7105 13.1055 18.4841 13.5664 18.0215L18.2031 13.3662C18.6557 12.9118 18.8828 12.3158 18.8828 11.7217C18.8827 11.1276 18.6576 10.5334 18.2051 10.0791C17.3015 9.17217 15.8341 9.1721 14.9307 10.0791L11.8906 13.1299L8.85156 10.0791C8.39906 9.62486 7.80722 9.39855 7.21387 9.39844ZM93.3447 11.8223C93.3483 11.9087 93.3498 11.9937 93.3486 12.0801C93.3485 15.5119 90.518 18.2949 87.0264 18.2949C83.5349 18.2947 80.7052 15.5118 80.7051 12.0801C80.7051 8.64836 83.5348 5.86549 87.0264 5.86523C88.0776 5.86523 89.0673 6.11654 89.9395 6.5625V3.80273C89.9396 1.6993 91.4647 0.832098 93.3447 0.832031V11.8223ZM33.957 5.9248C37.1547 5.92493 39.6165 7.4497 39.2256 10.3369H35.6357C35.8428 9.39013 35.1763 8.78906 33.9795 8.78906C32.9452 8.78916 32.4844 9.22766 32.4844 9.66699C32.4854 11.399 39.6377 9.85178 39.6377 14.2637C39.6376 16.7817 37.3157 18.2147 34.0947 18.2148C30.668 18.2148 28.5509 16.5521 28.5508 14.0107H32.1162C32.1163 14.8428 32.8528 15.374 34.0713 15.374C35.1054 15.374 35.8414 14.9811 35.8418 14.4736C35.8418 12.8792 28.6878 14.3118 28.6875 9.80664C28.6875 7.3584 30.8518 5.9248 33.957 5.9248ZM106.663 6.29297H108.56C109.353 6.29317 109.998 6.94032 109.998 7.7373V9.41406H106.663V13.8262C106.663 14.5416 106.94 15.0957 107.997 15.0957C108.689 15.0957 109.125 14.8644 109.746 14.4717V17.6367C109.171 18.0062 108.342 18.2148 107.262 18.2148C103.398 18.2148 102.982 15.5355 102.982 13.8262V9.41406H100.613V6.29492H102.982V1.6748H106.663V6.29297ZM61.0459 5.92383C65.3479 5.92383 67.1416 9.23374 67.1416 12.877H58.6768C58.9072 14.2866 59.7133 15.0956 61.1621 15.0957C62.1285 15.0957 62.818 14.7262 63.1631 14.0107V14.0088H67.1416C66.4521 16.5502 64.2208 18.2129 61.0693 18.2129C57.2746 18.2127 54.8126 15.7646 54.8125 12.0684C54.8125 8.37204 57.3192 5.92404 61.0459 5.92383ZM75.8193 5.9248C79.5696 5.9248 79.5702 9.71335 79.5684 11.123V17.8467H75.8877V11.125C75.8877 10.2928 75.8874 8.90631 74.3457 8.90625C73.1045 8.90625 72.2071 10.1991 72.207 12.1162V17.8457H68.5264V6.29492H70.7676C71.5622 6.29492 72.207 6.94205 72.207 7.73926V8.25879C72.7823 6.80251 74.0937 5.92486 75.8193 5.9248ZM99.124 17.8447H95.4443V7.73926C95.4443 6.94208 96.0888 6.29498 96.8828 6.29492H99.124V17.8447ZM87.1475 9.30566C85.6209 9.30578 84.3831 10.5485 84.3828 12.0811C84.3828 13.6139 85.6208 14.8573 87.1475 14.8574C88.676 14.8574 89.9131 13.6139 89.9131 12.0811C89.9128 10.5484 88.6747 9.30566 87.1475 9.30566ZM47.3105 9.26758C45.7839 9.2677 44.5461 10.5103 44.5459 12.043C44.5459 13.5758 45.7838 14.8192 47.3105 14.8193C48.8391 14.8193 50.0779 13.5775 50.0762 12.043C50.076 10.5102 48.8373 9.26758 47.3105 9.26758ZM61.0459 8.92773C59.8277 8.9279 59.0218 9.55166 58.7217 10.7979H63.001C63.1168 9.68962 62.4264 8.92773 61.0459 8.92773ZM11.9355 4.32715C10.6574 4.32715 9.62115 5.36749 9.62109 6.65234C9.62109 7.93718 10.6556 8.97754 11.9355 8.97754C13.2152 8.97727 14.251 7.9354 14.251 6.65234C14.2509 5.36766 13.2135 4.32741 11.9355 4.32715ZM97.3076 0.841797C98.4814 0.841957 99.3779 1.74265 99.3779 2.9209C99.3779 4.09916 98.4814 4.99984 97.3076 5C96.1337 5 95.2363 4.09926 95.2363 2.9209C95.2363 1.74255 96.1337 0.841797 97.3076 0.841797Z" fill="#535FED"/>
</g>
<defs>
<clipPath id="clip0_4_568">
<rect width="110" height="24" fill="white"/>
</clipPath>
</defs>
</svg>
