<svg xmlns="http://www.w3.org/2000/svg" width="238" height="30" viewBox="0 0 238 30" fill="none"><mask id="mask0_489_39" style="mask-type:luminance" maskUnits="userSpaceOnUse" x="0" y="0" width="238" height="30"><path d="M238 0H0V29.3425H238V0Z" fill="white"/></mask><g mask="url(#mask0_489_39)"><path d="M37.1124 16.9534C35.7203 14.8194 34.0022 13.9599 32.2548 13.9599C25.4129 13.9599 14.1281 29.3424 2.96187 29.3424C0.770084 29.3424 0 28.7497 0 27.5345C0 27.001 0.148093 26.586 0.444284 26.1118L15.7571 1.92652C16.5569 0.65205 17.475 0 18.4821 0C19.6076 0 20.5258 0.82988 21.1774 2.40074L28.5228 20.1248C30.5665 25.0152 33.6766 29.3424 38.0896 29.3424H41.8217C43.0064 29.3424 43.6877 28.4236 43.6877 27.5345C43.6877 27.2677 43.6283 27.001 43.4803 26.7639L37.1124 16.9534Z" fill="#FF4208"/><path d="M223.53 29.0164C215.3 29.0164 209.098 22.8183 209.098 14.6712C209.098 6.52407 215.3 0.326019 223.53 0.326019C231.799 0.326019 238 6.52407 238 14.6712C238 22.8183 231.799 29.0164 223.53 29.0164ZM223.53 24.6894C228.951 24.6894 233.164 20.3625 233.164 14.6712C233.164 8.94093 228.951 4.65297 223.53 4.65297C218.108 4.65297 213.935 8.94093 213.935 14.6712C213.935 20.4015 218.108 24.6894 223.53 24.6894Z" fill="black"/><path d="M200.664 28.3146V1.02759H205.344V28.3146H200.664Z" fill="black"/><path d="M181.144 28.3146L172.251 1.02759H177.244L185.006 26.4435H185.396L193.236 1.02759H198.229L189.218 28.3146H181.144Z" fill="black"/><path d="M157.383 29.0164C149.153 29.0164 142.951 22.8183 142.951 14.6712C142.951 6.52407 149.153 0.326019 157.383 0.326019C165.652 0.326019 171.853 6.52407 171.853 14.6712C171.853 22.8183 165.652 29.0164 157.383 29.0164ZM157.383 24.6894C162.804 24.6894 167.017 20.3625 167.017 14.6712C167.017 8.94093 162.804 4.65297 157.383 4.65297C151.961 4.65297 147.788 8.94093 147.788 14.6712C147.788 20.4015 151.961 24.6894 157.383 24.6894Z" fill="black"/><path d="M108.25 28.3146V1.02759H117.495L123.423 26.4435H123.814L130.366 1.02759H139.181V28.3146H134.501V2.89871H134.033L127.597 28.3146H119.523L113.399 2.89871H112.931V28.3146H108.25Z" fill="black"/><path d="M92.0791 28.9773C84.9021 28.9773 80.8456 24.8843 80.8456 17.9455V1.02759H85.5265V17.6337C85.5265 21.9996 87.7105 24.7283 92.118 24.7283C96.5259 24.7283 98.7099 21.9996 98.7099 17.6337V1.02759H103.391V17.9455C103.391 24.9232 99.3335 28.9773 92.0791 28.9773Z" fill="black"/><path d="M52.5128 28.3146L61.3668 1.02759H69.8701L78.6852 28.3146H73.7315L71.7033 21.8827H59.4558L57.4664 28.3146H52.5128ZM60.6259 18.1015H70.5331L65.7355 2.89871H65.3456L60.6259 18.1015Z" fill="black"/></g></svg>