<svg xmlns="http://www.w3.org/2000/svg" width="500" height="260" viewBox="0 0 500 260" fill="none"><path d="M277.178 110.925L297.095 0.207337H250.415L277.178 110.925ZM223.651 146.794H270.332L236.1 0.207337H189.212L223.651 146.794ZM160.373 146.794H207.054L172.614 0.207337H125.726L160.373 146.794ZM62.6556 147.002H92.1162C116.805 144.928 131.95 99.5215 102.905 72.3605C131.535 49.3461 116.183 1.03668 91.7012 0H62.6556V147.002ZM375.934 147.002H405.394C430.29 145.136 445.436 99.5215 416.39 72.5678C444.813 49.3461 429.461 1.03668 404.979 0H375.934V147.002ZM0 146.794L46.888 147.002V0H0.207469L0 146.794ZM313.278 146.794L360.166 147.002V0H313.278V146.794Z" fill="url(#paint0_linear_4_59)"/><path d="M24.8963 235.534H28.8382V217.081H24.8963V235.534ZM98.1328 235.534H102.282V217.081H98.1328V235.534ZM171.992 217.081V229.107C171.992 229.729 171.992 230.144 171.784 230.766C171.577 231.802 170.747 232.632 169.71 232.632C168.05 232.632 167.427 230.766 167.427 228.278V217.289H163.278V228.692C163.278 233.461 164.73 235.949 168.05 235.949C169.71 235.949 171.162 235.12 172.199 233.668L172.407 235.534H175.934C175.934 233.876 175.726 232.217 175.726 230.144V217.081H171.992ZM13.9004 217.496C13.0705 218.118 12.4481 218.74 12.0332 219.569C11.4108 217.911 9.95851 216.874 8.09129 216.874C6.22407 216.874 4.56432 217.911 3.73444 219.362L3.52697 217.081H0C0 218.74 0.207469 220.191 0.207469 222.265V235.534H4.14938V223.923C4.14938 223.509 4.14938 222.887 4.35685 222.472C4.77178 221.021 5.60166 220.191 6.639 220.191C8.50622 220.191 8.71369 222.057 8.71369 223.716V235.534H12.6556V223.716C12.6556 223.301 12.6556 222.679 12.8631 222.265C13.278 220.813 14.1079 219.984 15.1452 219.984C17.0124 219.984 17.2199 222.057 17.2199 224.131V235.327H21.1618V223.509C21.1618 218.947 19.5021 216.667 16.5975 216.667C15.5602 216.667 14.5228 216.874 13.9004 217.496ZM72.6141 219.777C74.0664 219.777 75.1037 221.435 75.1037 224.545H70.1245C69.917 222.265 70.7469 219.777 72.6141 219.777ZM65.9751 226.619C65.9751 232.424 68.4647 235.742 73.2365 235.742C74.8963 235.742 76.3485 235.534 77.8008 234.912L77.1784 232.01C76.1411 232.424 75.1037 232.632 73.8589 232.632C71.5768 232.632 69.7095 231.595 69.7095 227.448H78.4232C78.4232 226.619 78.6307 225.997 78.6307 225.167C78.6307 220.191 76.556 216.667 72.8216 216.667C68.8797 216.667 65.9751 220.399 65.9751 226.619ZM109.336 219.155L109.129 216.874H105.809C105.809 218.533 106.017 219.984 106.017 222.057V235.327H110.166V223.923C110.166 223.301 110.166 222.887 110.373 222.265C110.788 220.813 111.618 219.984 112.656 219.984C114.523 219.984 114.938 221.85 114.938 223.716V235.327H118.88V223.301C118.88 218.947 117.22 216.667 114.108 216.667C112.033 216.874 110.373 217.703 109.336 219.155ZM144.191 219.777C145.643 219.777 146.68 221.435 146.68 224.545H141.701C141.494 222.265 142.531 219.777 144.191 219.777ZM137.552 226.619C137.552 232.424 140.042 235.742 144.813 235.742C146.473 235.742 147.925 235.534 149.378 234.912L148.755 232.01C147.718 232.424 146.68 232.632 145.436 232.632C143.154 232.632 141.286 231.595 141.286 227.448H150C150 226.619 150.207 225.997 150.207 225.167C150.207 220.191 148.34 216.667 144.398 216.667C140.664 216.874 137.552 220.399 137.552 226.619ZM156.846 219.777L156.432 217.081H152.905C152.905 218.74 153.112 220.606 153.112 222.265V235.534H157.261V225.789C157.261 225.167 157.261 224.545 157.469 224.131C157.676 222.472 158.921 221.021 160.788 221.021C160.996 221.021 161.411 221.021 161.618 221.021V217.081C161.411 217.081 160.996 217.081 160.788 217.081C158.921 217.081 157.469 218.118 156.846 219.777ZM183.402 219.362L183.195 217.081H179.668C179.668 218.74 179.876 220.191 179.876 222.265V235.534H183.817V224.131C183.817 223.509 183.817 223.094 184.025 222.472C184.44 221.021 185.27 220.191 186.307 220.191C188.174 220.191 188.589 222.057 188.589 223.923V235.534H192.739V223.301C192.739 218.947 191.079 216.667 187.967 216.667C186.1 216.874 184.232 217.703 183.402 219.362ZM199.585 226.411C199.585 222.887 200.415 220.399 202.49 220.399C203.734 220.399 204.357 221.435 204.564 222.472C204.772 222.887 204.772 223.301 204.772 223.923V228.9C204.772 229.522 204.772 229.936 204.564 230.351C204.149 232.01 203.32 232.217 202.49 232.217C200.83 232.217 199.585 230.351 199.585 226.411ZM195.643 226.411C195.643 231.18 197.51 235.327 201.245 235.327C202.697 235.327 203.942 234.498 204.564 233.254V234.705C204.564 238.23 203.32 239.681 201.037 239.681C199.793 239.681 198.548 239.474 197.51 238.852L196.681 241.962C198.133 242.584 199.585 242.791 201.037 242.791C203.112 242.998 204.979 242.169 206.432 240.718C207.884 239.266 208.506 237.4 208.506 233.046V222.472C208.506 219.984 208.506 218.118 208.714 216.667H205.187L204.979 218.74C204.357 217.496 203.112 216.459 201.66 216.459C198.34 216.874 195.436 219.984 195.643 226.411ZM249.378 217.496C248.548 218.118 247.925 218.74 247.51 219.569C246.888 217.911 245.228 216.874 243.568 216.874C241.701 216.874 240.042 217.911 239.212 219.362L239.004 217.081H235.685C235.685 218.74 235.892 220.191 235.892 222.265V235.534H239.834V223.923C239.834 223.509 239.834 222.887 240.042 222.472C240.456 221.021 241.286 220.191 242.324 220.191C244.191 220.191 244.398 222.057 244.398 223.716V235.534H248.34V223.716C248.34 223.301 248.34 222.679 248.548 222.265C248.963 220.813 249.793 219.984 250.83 219.984C252.697 219.984 252.905 222.057 252.905 224.131V235.327H256.846V223.509C256.846 218.947 255.187 216.667 252.282 216.667C251.245 216.667 250.207 216.874 249.378 217.496ZM33.4025 213.764V216.874H31.1203V219.777H33.4025V229.314C33.195 231.18 33.61 232.839 34.8548 234.29C35.6846 235.12 36.9295 235.534 38.1743 235.327C39.0042 235.327 40.0415 235.327 40.8714 235.12V232.217C40.4564 232.217 40.0415 232.424 39.6266 232.424C38.5892 232.424 37.7593 231.802 37.7593 229.522V219.984H41.2863V217.081H37.7593V212.52L33.4025 213.764ZM286.929 210.032V220.606H280.913V210.032H276.763V235.534H280.913V224.338H286.929V235.534H291.079V210.032H286.929ZM24.6888 212.105C24.6888 213.349 25.5187 214.386 26.7635 214.386H26.971C28.2158 214.386 29.2531 213.349 29.2531 212.105V211.898C29.2531 210.654 28.4232 209.617 27.1784 209.617H26.971C25.5187 209.825 24.6888 210.861 24.6888 212.105ZM97.9253 212.105C97.9253 213.349 98.7552 214.386 100 214.386H100.207C101.452 214.386 102.49 213.349 102.49 212.105V211.898C102.49 210.654 101.66 209.617 100.415 209.617H100.207C98.9627 209.825 97.9253 210.861 97.9253 212.105ZM53.7344 232.424V223.716H54.9793C57.2614 223.716 59.3361 225.375 59.3361 227.656C59.3361 227.863 59.3361 228.07 59.3361 228.07C59.5436 230.351 57.8838 232.217 55.8091 232.424C55.6017 232.424 55.3942 232.424 55.1867 232.424C54.5643 232.424 54.1494 232.424 53.7344 232.424ZM53.7344 213.142C54.1494 212.935 54.7718 212.935 55.1867 212.935C57.0539 212.727 58.5062 214.179 58.7137 215.837C58.7137 216.045 58.7137 216.252 58.7137 216.667C58.7137 218.74 57.0539 220.606 54.9793 220.606H53.7344V213.142ZM49.7925 210.447V235.534C51.2448 235.742 52.6971 235.742 54.1494 235.742C56.8465 236.156 59.751 235.12 61.8257 233.254C63.0705 231.802 63.693 230.144 63.693 228.278C63.9004 225.375 62.0332 222.679 59.1286 222.057C61.4108 221.228 63.0705 218.947 62.8631 216.459C62.8631 214.801 62.2407 213.142 60.9959 211.898C59.3361 210.654 57.0539 210.032 54.9793 210.032C53.112 209.825 51.4523 210.032 49.7925 210.447ZM217.635 222.887C217.427 226.619 218.465 230.351 220.747 233.046C222.407 234.705 224.896 235.742 227.178 235.534C228.838 235.534 230.498 235.12 232.158 234.705V221.643H225.726V224.96H228.423V232.01C228.008 232.217 227.593 232.217 227.178 232.217C224.481 232.217 221.784 229.936 221.784 222.887C221.784 215.837 224.896 213.349 228.008 213.349C229.046 213.349 230.083 213.557 230.913 213.971L231.743 210.447C230.498 209.825 229.253 209.617 227.801 209.617C223.029 209.825 217.842 213.349 217.635 222.887ZM81.5353 209.203V235.534H85.6847V223.923C85.6847 223.509 85.6847 222.887 85.8921 222.472C86.3071 220.813 87.1369 220.191 88.1743 220.191C89.834 220.191 90.4564 222.057 90.4564 224.131V235.742H94.6058V223.923C94.6058 219.362 92.9461 216.874 90.0415 216.874C89.2116 216.874 88.3818 217.081 87.5519 217.496C86.9295 217.911 86.3071 218.325 85.8921 219.155V209.41L81.5353 209.203ZM125.519 226.411C125.519 223.094 126.141 220.191 128.216 220.191C129.461 220.191 130.29 221.435 130.498 223.094C130.498 223.509 130.498 223.923 130.498 224.131V229.107C130.498 229.522 130.498 229.936 130.29 230.351C129.876 232.217 128.838 232.632 128.008 232.632C126.349 232.424 125.519 230.144 125.519 226.411ZM130.498 209.203V218.74C129.876 217.496 128.631 216.667 127.178 216.667C124.274 216.667 121.369 219.777 121.369 226.204C121.369 231.802 123.444 235.742 126.971 235.742C128.631 235.742 130.083 234.705 130.913 233.254H131.12L131.328 235.534H134.855C134.855 234.083 134.647 232.01 134.647 230.558V209.41L130.498 209.203ZM264.315 230.144C264.108 229.729 264.108 229.314 264.108 228.9V223.716C264.108 223.301 264.108 222.887 264.315 222.472C264.523 221.228 265.353 219.984 266.598 219.984C268.465 219.984 269.295 222.679 269.295 225.997C269.295 229.314 268.465 232.217 266.598 232.217C265.768 232.424 264.938 232.01 264.315 230.144ZM260.166 209.203V230.351C260.166 231.802 260.166 234.083 259.959 235.327H263.486L263.693 233.046C264.315 234.498 265.768 235.534 267.22 235.534C270.332 235.534 273.029 232.217 273.029 225.582C273.029 220.191 271.162 216.459 267.842 216.459C266.183 216.459 264.73 217.289 263.9 218.74V208.995L260.166 209.203Z" fill="#169FDB"/><path d="M50.6224 197.592H54.7718V179.139H50.6224V197.592ZM284.647 178.931V190.957C284.647 191.579 284.647 191.994 284.44 192.616C284.232 193.652 283.402 194.482 282.365 194.482C280.705 194.482 280.29 192.616 280.29 189.92V178.931H276.141V190.335C276.141 195.104 277.593 197.799 280.913 197.799C282.573 197.799 284.232 196.97 285.062 195.518L285.27 197.384H288.797C288.797 195.726 288.589 193.86 288.589 191.994V178.931H284.647ZM375.104 188.262C375.104 194.274 378.008 197.592 382.365 197.592C383.402 197.592 384.44 197.384 385.477 196.97L385.062 193.86C384.44 194.067 383.817 194.274 382.988 194.274C380.498 194.274 379.046 191.994 379.046 188.262C379.046 184.737 380.498 182.041 382.988 182.041C383.61 182.041 384.44 182.249 385.062 182.456L385.685 179.139C384.855 178.724 384.025 178.517 382.988 178.517C378.216 178.724 375.104 182.871 375.104 188.262ZM23.029 181.627C24.4813 181.627 25.5187 183.285 25.5187 186.396H20.5394C20.5394 184.322 21.3693 181.627 23.029 181.627ZM16.5975 188.676C16.5975 194.482 19.0871 197.799 23.8589 197.799C25.5187 197.799 26.971 197.592 28.4232 196.97L27.8008 194.067C26.7635 194.482 25.5187 194.689 24.4813 194.689C22.4066 194.689 20.3319 193.445 20.3319 189.298H29.0456C29.0456 188.676 29.2531 187.847 29.0456 187.225C29.0456 182.249 26.971 178.724 23.2365 178.724C19.5021 178.724 16.5975 182.456 16.5975 188.676ZM35.8921 181.627L35.4772 178.931H31.9502C31.9502 180.59 32.1577 182.456 32.1577 184.115V197.384H36.3071V187.847C36.3071 187.225 36.3071 186.603 36.5145 186.188C36.722 184.53 38.1743 183.078 39.834 183.078C40.0415 183.078 40.4564 183.078 40.6639 183.078V179.139C40.4564 179.139 40.0415 179.139 39.834 179.139C37.9668 178.931 36.5145 180.175 35.8921 181.627ZM62.0332 181.212L61.8257 178.931H58.2988C58.2988 180.59 58.5062 182.041 58.5062 184.115V197.384H62.6556V185.981C62.6556 185.359 62.6556 184.737 62.8631 184.322C63.278 182.871 64.1079 182.041 65.1452 182.041C66.805 182.041 67.4274 183.7 67.4274 185.774V197.592H71.3693V185.566C71.3693 181.212 69.7095 178.931 66.5975 178.931C64.5228 178.724 62.8631 179.553 62.0332 181.212ZM80.9129 181.627C82.3651 181.627 83.4025 183.285 83.4025 186.396H78.4232C78.2158 184.322 79.0456 181.627 80.9129 181.627ZM74.2738 188.676C74.2738 194.482 76.7635 197.799 81.5353 197.799C83.195 197.799 84.6473 197.592 86.0996 196.97L85.4772 194.067C84.4398 194.482 83.195 194.689 82.1577 194.689C80.083 194.689 78.0083 193.445 78.0083 189.298H86.722C86.722 188.676 86.9295 187.847 86.722 187.225C86.722 182.249 84.6473 178.724 80.9129 178.724C77.1784 178.724 74.2738 182.456 74.2738 188.676ZM93.7759 181.627L93.361 178.931H89.834C89.834 180.59 90.0415 182.456 90.0415 184.115V197.384H94.1909V187.847C94.1909 187.225 94.1909 186.603 94.3983 186.188C94.6058 184.53 96.0581 183.078 97.7178 183.078C97.9253 183.078 98.3402 183.078 98.5477 183.078V179.139C98.3402 179.139 97.9253 179.139 97.7178 179.139C95.6431 178.931 94.1909 180.175 93.7759 181.627ZM135.685 181.834C137.137 181.834 138.174 183.493 138.174 186.603H133.195C133.195 184.322 134.025 181.834 135.685 181.834ZM129.046 188.676C129.046 194.482 131.535 197.799 136.307 197.799C137.967 197.799 139.419 197.592 140.871 196.97L140.249 194.067C139.212 194.482 137.967 194.689 136.929 194.689C134.855 194.689 132.78 193.445 132.78 189.298H141.494C141.494 188.676 141.701 187.847 141.494 187.225C141.494 182.249 139.419 178.724 135.685 178.724C132.158 178.724 129.253 182.456 129.046 188.676ZM148.548 181.834L148.133 179.139H144.606C144.606 180.797 144.813 182.663 144.813 184.322V197.592H148.963V187.847C148.963 187.225 148.963 186.603 149.17 186.188C149.378 184.53 150.83 183.078 152.49 183.078C152.697 183.078 153.112 183.078 153.319 183.078V179.139C153.112 179.139 152.697 179.139 152.49 179.139C150.622 178.931 149.17 180.175 148.548 181.834ZM169.295 184.322C169.295 186.188 170.332 188.054 173.029 189.506C174.689 190.542 175.311 191.372 175.311 192.616C175.311 193.652 174.481 194.689 173.444 194.689C173.236 194.689 173.237 194.689 173.029 194.689C171.992 194.689 170.747 194.274 169.917 193.652L169.087 196.762C170.332 197.592 171.577 197.799 173.029 197.799C176.556 197.799 179.253 195.933 179.253 192.201C179.046 189.713 177.593 187.64 175.519 186.603C173.859 185.359 173.237 184.944 173.237 183.907C173.237 182.871 174.066 182.041 175.104 182.041H175.311C176.141 182.041 177.178 182.249 177.801 182.871L178.631 179.968C177.593 179.346 176.349 179.139 175.104 179.139C172.199 178.931 169.502 181.212 169.502 184.322C169.295 184.115 169.295 184.115 169.295 184.322ZM195.436 191.994C195.436 188.676 198.34 188.262 200 188.262V191.786C200 192.201 200 192.408 199.793 192.823C199.585 194.067 198.755 194.896 197.51 194.896C196.473 194.896 195.436 194.067 195.436 191.994ZM192.739 179.968L193.568 182.663C194.606 182.041 195.851 181.627 197.095 181.627C199.17 181.627 199.793 182.871 199.793 184.944V185.359C195.643 185.359 191.494 187.432 191.494 192.201C191.494 195.518 193.568 197.592 196.266 197.592C197.925 197.592 199.378 196.762 200.207 195.518L200.415 197.384H204.149C203.942 195.933 203.942 194.482 203.942 193.238V185.774C203.942 181.834 202.697 178.517 197.925 178.517C196.058 178.724 194.398 179.139 192.739 179.968ZM234.647 181.627C236.1 181.627 237.137 183.285 236.929 186.396H231.95C232.158 184.322 232.988 181.627 234.647 181.627ZM228.008 188.676C228.008 194.482 230.498 197.799 235.27 197.799C236.929 197.799 238.382 197.592 239.834 196.97L239.212 194.067C238.174 194.482 237.137 194.689 235.892 194.689C233.817 194.689 231.743 193.445 231.743 189.298H240.456C240.456 188.676 240.664 187.847 240.456 187.225C240.456 182.249 238.382 178.724 234.647 178.724C230.913 178.724 228.008 182.456 228.008 188.676ZM247.51 181.212L247.303 178.931H243.776C243.776 180.59 243.983 182.041 243.983 184.115V197.384H248.133V185.981C248.133 185.359 248.133 184.737 248.34 184.322C248.755 182.871 249.585 182.041 250.622 182.041C252.282 182.041 252.697 183.7 252.697 185.774V197.592H256.846V185.566C256.846 181.212 255.187 178.931 252.075 178.931C250 178.724 248.34 179.553 247.51 181.212ZM296.266 181.834L295.851 179.139H292.531C292.531 180.797 292.739 182.663 292.739 184.322V197.592H296.888V187.847C296.888 187.225 296.888 186.603 297.095 186.188C297.303 184.53 298.755 183.078 300.415 183.078C300.622 183.078 301.037 183.078 301.245 183.078V179.139C301.037 179.139 300.622 179.139 300.415 179.139C298.34 178.931 296.888 180.175 296.266 181.834ZM338.589 181.834C340.041 181.834 341.079 183.493 341.079 186.603H336.1C336.1 184.322 336.722 181.834 338.589 181.834ZM331.95 188.676C331.95 194.482 334.44 197.799 339.212 197.799C340.871 197.799 342.324 197.592 343.776 196.97L343.154 194.067C342.116 194.482 341.079 194.689 339.834 194.689C337.552 194.689 335.685 193.445 335.685 189.298H344.398C344.398 188.676 344.606 187.847 344.606 187.225C344.606 182.249 342.531 178.724 338.797 178.724C335.062 178.724 331.95 182.456 331.95 188.676ZM351.245 181.212L351.037 178.931H347.51C347.51 180.59 347.718 182.041 347.718 184.115V197.384H351.867V185.981C351.867 185.359 351.867 184.737 352.075 184.322C352.49 182.871 353.319 182.041 354.357 182.041C356.017 182.041 356.432 183.7 356.432 185.774V197.592H360.581V185.566C360.581 181.212 358.921 178.931 355.809 178.931C353.942 178.724 352.282 179.553 351.245 181.212ZM363.278 184.322C363.278 186.188 364.315 188.054 367.012 189.506C368.672 190.542 369.295 191.372 369.295 192.616C369.295 193.652 368.465 194.689 367.427 194.689C367.22 194.689 367.22 194.689 367.012 194.689C365.975 194.689 364.73 194.274 363.9 193.652L363.071 196.762C364.315 197.592 365.56 197.799 367.012 197.799C370.539 197.799 373.236 195.933 373.236 192.201C373.029 189.713 371.577 187.64 369.502 186.603C367.842 185.359 367.22 184.944 367.22 183.907C367.22 182.871 368.05 182.041 369.087 182.041H369.295C370.124 182.041 371.162 182.249 371.784 182.871L372.614 179.968C371.577 179.346 370.332 179.139 369.087 179.139C366.183 178.931 363.485 181.212 363.485 184.322C363.278 183.907 363.278 184.115 363.278 184.322ZM410.166 181.627C411.618 181.627 412.656 183.285 412.656 186.396H407.676C407.676 184.322 408.506 181.627 410.166 181.627ZM403.527 188.676C403.527 194.482 406.017 197.799 410.788 197.799C412.448 197.799 413.9 197.592 415.353 196.97L414.73 194.067C413.693 194.482 412.448 194.689 411.411 194.689C409.336 194.689 407.261 193.445 407.261 189.298H415.975C415.975 188.676 416.183 187.847 415.975 187.225C415.975 182.249 413.9 178.724 410.166 178.724C406.432 178.724 403.734 182.456 403.527 188.676ZM423.029 181.212L422.822 178.931H419.295C419.295 180.59 419.502 182.041 419.502 184.115V197.384H423.651V185.981C423.651 185.359 423.651 184.737 423.859 184.322C424.274 182.871 425.104 182.041 426.141 182.041C427.801 182.041 428.423 183.7 428.423 185.774V197.592H432.573V185.566C432.573 181.212 430.913 178.931 427.801 178.931C425.519 178.724 423.859 179.553 423.029 181.212ZM182.573 175.821V178.931H180.29V181.834H182.573V191.579C182.573 194.274 182.988 195.726 184.025 196.555C184.855 197.384 186.1 197.799 187.344 197.799C188.174 197.799 189.212 197.799 190.041 197.592V194.482C189.627 194.482 189.212 194.689 188.797 194.482C187.759 194.482 186.929 193.86 186.929 191.579V182.041H190.456V179.139H186.929V174.577L182.573 175.821ZM208.091 175.821V178.931H205.809V181.834H208.091V191.579C208.091 194.274 208.506 195.726 209.544 196.555C210.373 197.384 211.618 197.799 212.863 197.799C213.693 197.799 214.73 197.799 215.56 197.592V194.482C215.145 194.482 214.73 194.482 214.315 194.482C213.278 194.482 212.448 193.86 212.448 191.579V182.041H215.975V179.139H212.448V174.577L208.091 175.821ZM219.087 175.821V178.931H216.805V181.834H219.087V191.579C219.087 194.274 219.502 195.726 220.539 196.555C221.369 197.384 222.614 197.799 223.859 197.799C224.689 197.799 225.726 197.799 226.556 197.592V194.482C226.141 194.482 225.726 194.689 225.311 194.482C224.274 194.482 223.444 193.86 223.444 191.579V182.041H226.971V179.139H223.444V174.577L219.087 175.821ZM124.274 171.882L122.614 183.078C122.199 185.981 121.784 188.676 121.369 192.201C120.954 188.676 120.539 185.774 119.917 182.871L117.842 171.882H114.315L112.241 183.078C111.618 186.188 111.203 189.091 110.788 192.201H110.581C110.373 189.091 109.958 186.188 109.544 183.078L107.884 171.882H103.734L108.299 197.592H112.241L114.315 187.432C114.938 184.737 115.353 182.041 115.768 178.931C116.183 181.834 116.598 184.737 117.012 187.432L118.88 197.592H123.029L127.801 171.882H124.274ZM192.946 173.955C192.946 174.992 193.776 176.029 195.021 176.029C196.266 175.821 197.095 174.992 196.888 173.748C196.888 172.711 196.058 171.882 195.021 171.882C193.983 171.882 192.946 172.919 192.946 173.955ZM199.378 173.955C199.378 174.992 200.207 176.029 201.245 176.029C202.49 175.821 203.319 174.992 203.112 173.748C203.112 172.711 202.282 171.882 201.245 171.882C200.207 171.882 199.378 172.711 199.378 173.955ZM277.386 173.955C277.386 174.992 278.216 176.029 279.253 176.029C280.498 175.821 281.328 174.992 281.12 173.748C281.12 172.711 280.29 171.882 279.253 171.882C278.216 171.882 277.386 172.711 277.386 173.955ZM283.817 173.955C283.817 174.992 284.647 176.029 285.685 176.029C286.929 175.821 287.759 174.992 287.552 173.748C287.552 172.711 286.722 171.882 285.685 171.882C284.647 171.882 283.61 172.711 283.817 173.955C283.61 173.955 283.61 173.955 283.817 173.955ZM323.237 171.882L320.954 182.249C320.124 185.774 319.71 188.262 319.295 191.164C318.88 188.262 318.05 185.566 317.427 182.249L314.938 171.882H310.581L308.921 197.592H312.448L312.863 187.847C313.071 184.737 313.071 181.419 313.278 178.517C313.693 181.419 314.523 184.529 315.145 187.018L317.635 197.177H320.332L323.029 186.81C323.651 184.322 324.274 181.212 324.689 178.517H324.896C324.896 181.419 324.896 184.944 325.104 187.64L325.519 197.592H329.253L327.801 171.882H323.237ZM50.2075 174.163C50.2075 175.407 51.0373 176.443 52.2822 176.443C52.2822 176.443 52.2822 176.443 52.4896 176.443C53.7344 176.651 54.9792 175.614 54.9792 174.37C55.1867 173.126 54.1494 171.882 52.9046 171.882C51.4523 171.675 50.4149 172.711 50.2075 174.163ZM4.14938 194.482V185.566H5.39419C7.67635 185.566 9.75104 187.225 9.75104 189.713C9.75104 189.92 9.75104 189.92 9.75104 190.128C9.95851 192.408 8.29875 194.274 6.22407 194.482C6.0166 194.482 5.80913 194.482 5.60166 194.482C4.97925 194.482 4.56432 194.482 4.14938 194.482ZM4.14938 174.992C4.56432 174.785 5.18672 174.785 5.60166 174.785C7.46888 174.577 8.92116 176.029 9.12863 177.895C9.12863 178.102 9.12863 178.309 9.12863 178.517C9.3361 180.59 7.67635 182.456 5.60166 182.456C5.60166 182.456 5.60166 182.456 5.39419 182.456H4.14938V174.992ZM0 172.089V197.384C1.45228 197.592 2.90456 197.592 4.35685 197.592C8.09129 197.592 10.5809 196.762 12.0332 195.104C13.278 193.652 13.9004 191.994 13.9004 190.128C14.1079 187.225 12.2407 184.529 9.3361 183.907V183.7C11.6183 182.663 13.0705 180.59 13.0705 178.102C13.0705 176.443 12.4481 174.785 11.2033 173.541C9.54357 172.297 7.26141 171.675 5.18672 171.882C3.3195 171.675 1.65975 171.882 0 172.089ZM42.5311 197.592H46.6805V171.26H42.5311V197.592ZM155.187 171.26V197.592H159.336V191.164L160.373 189.506L163.693 197.592H168.05L163.071 186.603L167.635 178.931H163.278L160.373 184.944C160.166 185.566 159.751 186.396 159.336 187.225V171.053L155.187 171.26ZM387.759 171.26V197.592H391.909V185.981C391.909 185.566 391.909 184.944 392.116 184.529C392.531 182.871 393.361 182.249 394.398 182.249C396.058 182.249 396.473 184.115 396.473 186.188V197.799H400.622V186.188C400.622 181.419 398.963 179.139 396.058 179.139C395.228 179.139 394.398 179.346 393.568 179.761C392.946 180.175 392.324 180.59 391.909 181.419V171.675H387.759V171.26ZM273.029 170.845C271.577 170.845 269.917 171.467 268.88 172.504C267.635 173.955 267.012 176.029 267.22 178.102V178.931H264.73V181.834H267.22V197.384H271.369V181.834H274.689V178.724H271.369V177.895C271.369 175.821 271.992 174.163 273.859 174.163C274.481 174.163 274.896 174.163 275.519 174.37L276.141 171.26C274.896 171.053 274.066 170.845 273.029 170.845Z" fill="#169FDB"/><defs><linearGradient id="paint0_linear_4_59" x1="432.253" y1="73.5008" x2="0" y2="73.5008" gradientUnits="userSpaceOnUse"><stop stop-color="#5BC5F2"/><stop offset="0.75" stop-color="#19A0DB"/><stop offset="1" stop-color="#169FDB"/></linearGradient></defs></svg>