<svg xmlns="http://www.w3.org/2000/svg" width="500" height="149" viewBox="0 0 500 149" fill="none"><g clip-path="url(#clip0_4_306)"><path d="M178.972 149H135.514V0H178.972V149ZM249.766 109.888V0H206.308V149H278.972V109.422H249.766V109.888ZM340.654 109.888V0H297.196V149H369.86V109.422H340.654V109.888ZM500 149H455.841L452.57 128.512H429.673L426.402 149H382.477L412.85 0H466.589L500 149ZM451.402 100.808L443.925 58.2031H439.486L432.009 100.808H451.402ZM115.888 107.792C115.888 94.7547 111.449 82.4156 101.636 74.2672C107.944 65.6531 111.916 54.9438 111.916 43.5359C111.916 21.4188 96.4953 4.88906 75.2337 1.16406C69.8598 0.465625 66.1215 0 58.4112 0H0V149H74.7664C97.6636 149 115.888 130.841 115.888 107.792ZM70.3271 46.5625C70.3271 51.2188 66.3551 55.1766 61.6822 55.1766H43.4579V37.7156H61.215C66.3551 37.9484 70.3271 41.9062 70.3271 46.5625ZM63.3178 92.1937C67.9907 92.1937 71.9626 96.1516 71.9626 100.808C71.9626 105.464 67.9907 109.422 63.3178 109.422H43.4579V91.7281H63.3178V92.1937Z" fill="#FFD300"/></g><defs><clipPath id="clip0_4_306"><rect width="500" height="149" fill="white"/></clipPath></defs></svg>