<svg xmlns="http://www.w3.org/2000/svg" width="500" height="83" viewBox="0 0 500 83" fill="none"><g clip-path="url(#clip0_4_183)"><path d="M196.276 7.5265C196.276 3.20359 199.77 -0.0900602 203.881 -0.0900602C207.991 -0.0900602 211.485 3.40944 211.485 7.5265C211.485 11.6436 207.991 15.1431 203.881 15.1431C199.565 15.1431 196.276 11.6436 196.276 7.5265Z" fill="#003479"/><path d="M316.303 58.1664C316.303 53.8435 319.797 50.5498 323.907 50.5498C328.018 50.5498 331.511 54.0493 331.511 58.1664C331.511 62.2835 328.018 65.783 323.907 65.783C319.591 65.783 316.303 62.4893 316.303 58.1664Z" fill="#009FE3"/><path d="M71.5229 54.8727C64.9461 54.8727 60.4247 49.7264 60.4247 42.3157C60.4247 34.905 64.9461 29.7586 71.5229 29.7586C78.0997 29.7586 82.6213 34.905 82.6213 42.3157C82.6213 49.9323 78.0997 54.8727 71.5229 54.8727ZM71.5229 18.4367C57.7528 18.4367 47.6821 28.5235 47.6821 42.1098C47.6821 55.6961 57.7528 65.783 71.5229 65.783C85.4986 65.783 95.5693 55.6961 95.5693 42.1098C95.5693 28.5235 85.2931 18.4367 71.5229 18.4367Z" fill="#003479"/><path d="M181.479 43.5508C180.862 42.5215 180.245 41.6981 179.629 41.0806L179.218 40.6689L179.629 40.2572C180.245 39.6396 180.862 38.8162 181.479 37.7869L193.605 19.6718H178.807L169.558 33.8757C168.942 34.6991 167.914 35.1108 166.475 35.1108H164.42V8.14406C164.42 2.79188 161.132 1.96847 157.432 1.96847H151.267V65.5771H164.42V46.4328H165.653C167.092 46.4328 168.12 46.6386 168.736 47.462L175.93 61.2542C177.985 64.9595 180.04 65.5771 183.739 65.5771H193.81L186.206 53.2259L181.479 43.5508Z" fill="#003479"/><path d="M245.397 18.4367C238.614 18.4367 234.504 21.3187 232.038 23.9948L231.216 24.8182L231.01 23.7889C230.393 21.1128 227.927 19.6718 224.433 19.6718H218.473V65.5771H231.627V44.1684C231.627 42.1098 231.832 40.2572 232.449 38.6103C233.887 33.6699 237.998 30.5821 242.93 30.5821C247.041 30.5821 248.685 32.6406 248.685 38.4045V58.3722C248.685 63.1069 250.946 65.3712 255.673 65.3712H261.839V36.1401C261.633 24.6123 256.084 18.4367 245.397 18.4367Z" fill="#003479"/><path d="M204.086 19.466H197.921V54.8727V65.3712H204.497H204.703H207.786H210.869V26.465C210.869 21.7304 208.608 19.466 204.086 19.466Z" fill="#003479"/><path d="M122.699 54.8727C116.122 54.8727 111.6 49.7264 111.6 42.3157C111.6 34.905 116.122 29.7586 122.699 29.7586C129.275 29.7586 133.797 34.905 133.797 42.3157C134.003 49.9323 129.481 54.8727 122.699 54.8727ZM122.699 18.4367C108.928 18.4367 98.8578 28.5235 98.8578 42.1098C98.8578 55.6961 108.928 65.9888 122.699 65.9888C136.674 65.9888 146.745 55.902 146.745 42.3157C146.745 28.7294 136.674 18.4367 122.699 18.4367Z" fill="#003479"/><path d="M402.828 54.8727C396.252 54.8727 391.73 49.7264 391.73 42.3157C391.73 34.905 396.252 29.7587 402.828 29.7587C409.405 29.7587 413.927 34.905 413.927 42.3157C413.927 49.9323 409.405 54.8727 402.828 54.8727ZM402.828 18.4367C389.058 18.4367 378.988 28.5235 378.988 42.1098C378.988 55.6961 389.058 65.783 402.828 65.783C416.599 65.9888 426.875 56.1079 426.875 42.3157C426.875 28.5235 416.599 18.4367 402.828 18.4367Z" fill="#009FE3"/><path d="M289.173 53.0201C281.98 53.0201 279.514 46.8445 279.514 40.8747C279.514 38.1986 280.13 29.9645 288.557 29.9645C292.667 29.9645 298.217 31.1996 298.217 41.2864C298.217 50.9615 293.284 53.0201 289.173 53.0201ZM304.999 19.2601C302.533 19.2601 300.683 20.2894 299.655 22.1421L299.244 22.7596L298.628 22.1421C296.572 20.2894 292.667 18.2309 286.502 18.2309C274.376 18.2309 266.155 27.4943 266.155 41.0806C266.155 54.6669 274.581 64.342 286.913 64.342C291.023 64.342 294.312 63.3127 296.983 61.46L298.011 60.6366V61.8717C298.011 68.0473 294.106 71.341 286.913 71.341C283.419 71.341 280.336 70.5176 278.075 69.6942C275.403 68.8708 273.759 69.4883 272.526 72.3703L271.498 74.8405L270.06 78.5459L270.882 78.9576C275.403 81.4278 281.364 82.8688 286.913 82.8688C298.011 82.8688 310.959 77.1049 310.959 61.0483V18.8484L304.999 19.2601Z" fill="#003479"/><path d="M22.8137 54.461H12.1264V41.6981C12.1264 39.022 13.154 37.5811 15.4148 37.1694H22.6081C27.7462 37.1694 31.0347 40.463 31.0347 45.8152C31.2402 51.1674 28.1574 54.461 22.8137 54.461ZM12.1264 20.0835V16.7899C12.1264 13.908 13.3595 12.467 16.0313 12.2611H21.375C26.1021 12.2611 28.7739 15.1431 28.7739 19.6718C28.7739 23.1713 26.9241 27.4943 21.5805 27.4943H11.9208L12.1264 20.0835ZM36.3783 32.8464L34.5285 31.8172L36.1728 30.3762C38.0225 28.7294 41.3109 24.8182 41.3109 18.4367C41.3109 8.34992 33.5009 1.96847 21.5805 1.96847H8.01593H6.37176C2.87785 2.17432 0.000427246 5.05627 0.000427246 8.55577V65.1654H6.37176H21.9916C35.3507 65.1654 43.9827 57.9605 43.9827 46.6386C43.7772 40.6689 41.1054 35.3167 36.3783 32.8464Z" fill="#003479"/><path d="M485.038 18.6426C479.695 18.6426 474.351 21.1128 471.063 25.4357L470.035 26.6709L469.213 25.2299C466.747 20.907 462.636 18.6426 456.881 18.6426C450.716 18.6426 446.811 21.9362 444.756 23.9948L443.522 25.4357L443.111 23.5831C442.495 21.1128 440.234 19.6718 436.74 19.6718H431.191V65.3712H443.728V45.1976C443.728 43.345 443.933 41.6981 444.344 39.8455C445.578 34.905 448.866 29.7587 454.21 30.1704C457.704 30.5821 459.348 33.0523 459.348 38.1986V65.3712H471.885V45.1976C471.885 42.9333 472.09 41.2864 472.501 39.6396C473.529 34.905 477.023 30.1704 482.161 30.1704C486.066 30.1704 487.505 32.4347 487.505 38.1986V58.5781C487.505 63.1069 489.56 65.1654 494.081 65.1654H500.042V35.9342C500.247 24.4065 495.314 18.6426 485.038 18.6426Z" fill="#009FE3"/><path d="M371.589 49.5206C371.589 49.5206 366.245 55.2844 359.052 55.2844C352.68 55.2844 346.104 51.3732 346.104 42.5215C346.104 34.905 351.242 29.5528 358.435 29.5528C360.696 29.5528 363.368 30.3762 363.779 31.8172V32.023C364.806 35.3167 367.684 35.3167 368.3 35.3167H375.083V29.3469C375.083 21.5245 365.012 18.6426 358.23 18.6426C343.843 18.6426 333.361 28.7294 333.361 42.5215C333.361 56.3137 343.637 66.4005 358.024 66.4005C370.356 66.4005 377.138 58.1664 377.138 58.1664L377.549 57.7547L372.205 48.6971L371.589 49.5206Z" fill="#009FE3"/></g><defs><clipPath id="clip0_4_183"><rect width="500" height="83" fill="white"/></clipPath></defs></svg>