<svg xmlns="http://www.w3.org/2000/svg" width="500" height="74" viewBox="0 0 500 74" fill="none"><path d="M216.1 0H0V73.9H216.1V0Z" fill="#8DC63F"/><path d="M499.2 0H214.7V73.9H499.2V0Z" fill="#F7941D"/><path d="M49.5 49.4C52.5 49.4 54.5 47.6 54.5 44.8C54.5 42 52.2 40.2 49.4 40.2H39.6V49.4H49.5ZM48.2 31.4C50.8 31.4 52.6 30.1 52.6 27.6C52.6 25.1 50.7 23.7 48.1 23.7H39.6V31.4H48.2ZM26 13H50.5C55.1 13 58.6 14.1 61.1 16C63.9 18.2 65.6 21.4 65.6 25.3C65.6 29.2 63.7 32.6 59.7 34.4V34.6C64.9 36.3 67.8 40.6 67.8 46C67.8 51.4 65.7 54.9 62.4 57.3C59.6 59.3 55.8 60.3 51 60.3H26.1V13" fill="#231F20"/><path d="M93.3 60.3V55.9H93.1C90.5 59.4 87.2 61.3 82.6 61.3C74.5 61.3 70.6 56 70.6 48.3V26.5H83.1V45.3C83.1 48.8 84.6 50.7 87.6 50.7C90.6 50.7 92.8 48.4 92.8 44.7V26.5H105.3V60.3H93.4" fill="#231F20"/><path d="M121.6 31.6H121.8C124.5 27.4 127.8 25.8 132.1 25.8C136.4 25.8 133.8 25.9 134.2 26.1V36.8H133.9C126.6 35.5 122.3 38.8 122.3 46.5V60.3H109.8V26.5H121.7V31.6" fill="#231F20"/><path d="M160.4 43.1C160.4 38.3 157.9 34.4 154.2 34.4C150.5 34.4 148.1 37.9 148.1 43.1C148.1 48.3 150.5 51.9 154.2 51.9C157.9 51.9 160.4 48 160.4 43.1ZM135.4 43.3C135.4 32.7 141.5 25.4 150.5 25.4C159.5 25.4 157.7 27.2 159.9 30H160.1V12.9H172.6V60.2H160.7V55.5H160.6C158.4 59.3 154.8 61.3 150.7 61.3C142 61.3 135.5 54.9 135.5 43.2" fill="#231F20"/><path d="M197.2 48V45C196 45.6 194.5 46.1 192.4 46.6C188.8 47.4 187.6 48.5 187.6 50.4C187.6 52.3 189.5 53.6 191.5 53.6C194.4 53.6 197.2 51.9 197.2 47.9M197.7 56.4H197.6C195.4 59.4 192 61.2 186.8 61.2C181.6 61.2 175.6 57.7 175.6 51.1C175.6 44.5 181.4 41.4 187.8 40.7C194.9 39.9 196.9 39 196.9 36.9C196.9 34.8 196 33.7 193.3 33.7C190.6 33.7 189.2 35.3 188.9 37.7H177.1C177.4 31 182.5 25.5 193.1 25.5C203.7 25.5 202.6 26.6 205.3 28.6C208.1 30.8 209.3 33.4 209.3 37.9V50.7C209.3 52.9 210.2 53.1 211.4 52.9H211.6V60C210.7 60.4 208.4 61 206.1 61C201.1 61 198.5 59.6 197.7 56.5" fill="#231F20"/><path d="M214.7 13H251.2V24.6H228.5V32.4H247.3V43.1H228.5V60.3H214.7V13Z" fill="#231F20"/><path d="M274.7 43.5C274.7 37.8 272.7 34 268.9 34C265.1 34 263.2 37.8 263.2 43.5C263.2 49.2 265.1 53 268.9 53C272.7 53 274.7 49.2 274.7 43.5ZM250.5 43.5C250.5 33.2 257.8 25.6 269 25.6C280.2 25.6 287.4 33.3 287.4 43.5C287.4 53.7 280.3 61.4 269 61.4C257.7 61.4 250.5 53.8 250.5 43.5Z" fill="#231F20"/><path d="M302.4 31.6H302.6C305.3 27.4 308.6 25.8 312.9 25.8C317.2 25.8 314.6 25.9 315 26.1V36.8H314.7C307.4 35.5 303.1 38.8 303.1 46.5V60.3H290.6V26.5H302.5V31.6" fill="#231F20"/><path d="M316.5 26.5H329.4L332.7 38.7C333.4 41.3 334.3 45.4 334.3 45.4H334.4C334.4 45.4 335.3 41.2 336 38.4L338.9 26.4H349.5L352.4 38.4C353.1 41.3 354 45.5 354 45.5H354.1C354.1 45.5 355.1 41.3 355.8 38.6L359 26.4H371.6L360.9 60.1H348.9L345.5 46.1C344.8 43.5 344.1 39.8 344.1 39.8H344C344 39.8 343.3 43.5 342.6 46.1L339.2 60.1H327.4L316.6 26.4" fill="#231F20"/><path d="M392.3 48V45C391.1 45.6 389.6 46.1 387.5 46.6C383.9 47.4 382.7 48.5 382.7 50.4C382.7 52.3 384.6 53.6 386.6 53.6C389.5 53.6 392.3 51.9 392.3 47.9M392.8 56.4H392.7C390.5 59.4 387.1 61.2 381.9 61.2C376.7 61.2 370.7 57.7 370.7 51.1C370.7 44.5 376.5 41.4 382.9 40.7C390 39.9 392 39 392 36.9C392 34.8 391.1 33.7 388.4 33.7C385.7 33.7 384.3 35.3 384 37.7H372.2C372.5 31 377.6 25.5 388.2 25.5C398.8 25.5 397.7 26.6 400.4 28.6C403.2 30.8 404.4 33.4 404.4 37.9V50.7C404.4 52.9 405.3 53.1 406.5 52.9H406.7V60C405.8 60.4 403.5 61 401.2 61C396.2 61 393.6 59.6 392.8 56.5" fill="#231F20"/><path d="M421.1 31.6H421.3C424 27.4 427.3 25.8 431.6 25.8C435.9 25.8 433.3 25.9 433.7 26.1V36.8H433.4C426.1 35.5 421.8 38.8 421.8 46.5V60.3H409.3V26.5H421.2V31.6" fill="#231F20"/><path d="M459.9 43.1C459.9 38.3 457.4 34.4 453.7 34.4C450 34.4 447.6 37.9 447.6 43.1C447.6 48.3 450 51.9 453.7 51.9C457.4 51.9 459.9 48 459.9 43.1ZM434.9 43.3C434.9 32.7 441 25.4 450 25.4C459 25.4 457.2 27.2 459.4 30H459.6V12.9H472.1V60.2H460.2V55.5H460.1C457.9 59.3 454.3 61.3 450.2 61.3C441.5 61.3 435 54.9 435 43.2" fill="#231F20"/></svg>