<svg xmlns="http://www.w3.org/2000/svg" width="500" height="132" viewBox="0 0 500 132" fill="none"><path d="M120.099 3.73586L115.265 25.1827H84.4832C55.9918 25.1827 40.3025 43.65 40.3025 77.1824C40.3025 98.7837 49.3955 106.815 73.8524 106.815H97.06L92.3147 128.264H51.9433C16.1395 128.264 4.01663 116.794 4.01663 83.0588C4.01663 55.6897 12.5941 31.0128 26.5803 17.9061C37.2111 7.97951 52.3128 3.73586 77.1162 3.73586H120.099ZM125.149 34.1761C145.801 34.1761 153.265 40.462 153.265 57.6965C153.265 83.2791 138.977 97.8206 113.901 97.8206H75.9869C55.3369 97.8206 48.2384 92.3439 48.2384 76.5424C48.2384 49.0725 61.6977 34.1728 86.405 34.1728L125.149 34.1761ZM195.937 34.1761L213.889 70.8921L222.594 34.1761H247.236L232.214 97.824H206.563L185.034 55.6329L175.141 97.824H150.501L165.433 34.1761H195.937ZM301.205 34.1761C322.546 34.1761 331.045 39.7401 331.045 53.5677C331.045 66.3119 322.917 74.5723 307.486 77.7157L317.506 89.8032L344.422 53.8367C358.305 35.2072 359.511 34.2204 379.705 34.1778L413.068 34.1761L397.918 97.824H371.864L374.541 86.4252H347.105L338.968 97.824H312.94C298.341 97.824 297.694 97.4673 290.396 85.7035L277.922 65.3262H296.125C303.328 65.3262 306.84 62.4568 306.84 56.7094C306.84 52.6694 302.961 50.5148 295.567 50.5148H279.034L267.76 97.824H241.708L256.858 34.1761H301.205ZM470.257 34.1761C488.294 34.1761 495.983 41.0891 495.983 57.4278C495.983 83.8198 482.984 97.824 458.532 97.824H404.776L419.706 34.1761H470.257ZM95.346 51.0506C81.9789 51.0506 74.2958 58.5931 74.2958 72.3289C74.2958 80.1371 77.9251 82.4732 89.4445 82.4732L106.251 82.4749C118.881 82.4749 125.704 74.8402 125.704 60.5695C125.704 53.027 122.94 51.0522 112.339 51.0522L95.346 51.0506ZM456.331 50.5148H441.684L434.356 81.4883H451.94C462.744 81.4883 469.517 73.4081 469.517 60.5698C469.517 52.6694 466.68 50.5148 456.331 50.5148ZM382.274 50.5148H380.52C372.482 50.5148 370.817 51.5022 365.273 59.6732L357.516 70.8921H377.471L382.274 50.5148Z" fill="#4281FF"/></svg>