<svg xmlns="http://www.w3.org/2000/svg" viewBox="0 0 645 183"><defs><style>.cls-1{fill:#e30613;}</style></defs><g id="SPC_LUNCHIT_SPENDIT" data-name="SPC/LUNCHIT/SPENDIT"><path d="M58.74,63.69H114V8.44h55.25V63.69h55.24v55.24H169.24v55.24H114V118.93H58.74Z"/><path d="M267.56,8.17h19.75c11.86,0,20.78,7.44,20.78,22.63,0,13.28-6.8,23.15-20.78,23.15H267.56Zm10.07,37.32h9c5.83,0,11.41-3.59,11.41-13.73,0-9.23-3.21-15.13-13.21-15.13h-7.18Z"/><path d="M321.11,39.59c.25,5.77,3.07,8.4,8.14,8.4,3.65,0,6.6-2.25,7.18-4.3h8c-2.57,7.83-8,11.16-15.52,11.16-10.45,0-16.93-7.18-16.93-17.44,0-9.94,6.86-17.51,16.93-17.51,11.28,0,16.73,9.49,16.09,19.69Zm14.81-5.77c-.83-4.62-2.82-7.06-7.25-7.06a7.17,7.17,0,0,0-7.56,7.06Z"/><path d="M381.51,54h-8.66V49.34h-.19a11.84,11.84,0,0,1-10.13,5.51c-9.68,0-12.12-5.45-12.12-13.66V20.8h9.1V39.52c0,5.46,1.61,8.15,5.84,8.15,4.94,0,7-2.76,7-9.49V20.8h9.11V54Z"/><path d="M400.36,20.8H407v6.09h-6.67V43.31c0,3.08.77,3.84,3.85,3.84A14.15,14.15,0,0,0,407,46.9V54a35.8,35.8,0,0,1-5.32.32c-5.58,0-10.45-1.29-10.45-7.89V26.89h-5.52V20.8h5.52V10.86h9.1V20.8Z"/><path d="M419,43.18c.07,4,3.4,5.58,7,5.58,2.63,0,6-1,6-4.24,0-2.75-3.78-3.71-10.32-5.12-5.26-1.16-10.52-3-10.52-8.85,0-8.47,7.31-10.65,14.43-10.65s13.91,2.44,14.62,10.58h-8.65C431.27,27,428.58,26,425.3,26c-2.05,0-5.06.39-5.06,3.08,0,3.27,5.13,3.72,10.32,4.94s10.52,3.14,10.52,9.3c0,8.72-7.56,11.54-15.13,11.54S410.75,52,410.36,43.18Z"/><path d="M468.52,32.47c-.57-3.72-2.95-5.71-6.73-5.71-5.84,0-7.76,5.9-7.76,10.78S455.89,48,461.6,48c4.23,0,6.66-2.7,7.25-6.74h8.78c-1.15,8.79-7.25,13.6-16,13.6-10,0-16.74-7.05-16.74-17,0-10.33,6.16-18,16.93-18,7.83,0,15,4.11,15.58,12.57Z"/><path d="M482.76,8.17h9.1V25.42h.2a11.63,11.63,0,0,1,9.68-5.52c9.68,0,12.12,5.45,12.12,13.66V54h-9.11V35.23c0-5.45-1.6-8.15-5.83-8.15-4.94,0-7.06,2.76-7.06,9.5V54h-9.1Z"/><path d="M527.84,39.59c.25,5.77,3.07,8.4,8.14,8.4,3.66,0,6.61-2.25,7.18-4.3h8c-2.57,7.83-8,11.16-15.52,11.16-10.45,0-16.93-7.18-16.93-17.44,0-9.94,6.86-17.51,16.93-17.51,11.29,0,16.74,9.49,16.1,19.69Zm14.81-5.77c-.83-4.62-2.82-7.06-7.25-7.06a7.17,7.17,0,0,0-7.56,7.06Z"/><path d="M564.2,43.18c.06,4,3.39,5.58,7,5.58,2.63,0,6-1,6-4.24,0-2.75-3.79-3.71-10.33-5.12-5.25-1.16-10.51-3-10.51-8.85,0-8.47,7.31-10.65,14.42-10.65s13.92,2.44,14.63,10.58H576.7c-.25-3.52-3-4.49-6.22-4.49-2.05,0-5.06.39-5.06,3.08,0,3.27,5.13,3.72,10.32,4.94s10.52,3.14,10.52,9.3c0,8.72-7.57,11.54-15.14,11.54S555.92,52,555.54,43.18Z"/><path d="M267.69,68.16h24.69c8.2,0,13.4,5.71,13.4,12.63,0,5.39-2.18,9.43-7.25,11.48v.13c4.94,1.28,6.35,6.09,6.67,10.71.19,2.88.13,8.27,1.93,10.83H297.06c-1.22-2.88-1.09-7.31-1.61-11-.7-4.81-2.56-6.93-7.63-6.93H277.76v17.89H267.69V68.16Zm10.07,20.71h11c4.49,0,6.92-1.92,6.92-6.54,0-4.42-2.43-6.35-6.92-6.35h-11Z"/><path d="M328.29,79.89c10.45,0,17.18,6.93,17.18,17.51s-6.73,17.44-17.18,17.44-17.13-6.93-17.13-17.44S317.9,79.89,328.29,79.89Zm0,28.09c6.22,0,8.08-5.32,8.08-10.58s-1.86-10.65-8.08-10.65-8,5.33-8,10.65S322.13,108,328.29,108Z"/><path d="M362.78,80.79h6.67v6.09h-6.67V103.3c0,3.08.77,3.85,3.85,3.85a14.17,14.17,0,0,0,2.82-.26V114a35.72,35.72,0,0,1-5.32.32c-5.58,0-10.45-1.28-10.45-7.89V86.88h-5.52V80.79h5.52V70.85h9.1v9.94Z"/><path d="M381.51,99.58c.26,5.77,3.08,8.4,8.14,8.4,3.66,0,6.61-2.24,7.18-4.3h8c-2.57,7.83-8,11.16-15.52,11.16-10.45,0-16.93-7.18-16.93-17.44,0-9.94,6.86-17.51,16.93-17.51,11.29,0,16.74,9.49,16.1,19.69Zm14.81-5.77c-.83-4.62-2.82-7.06-7.25-7.06a7.17,7.17,0,0,0-7.56,7.06Z"/><path d="M417.87,103.17c.06,4,3.39,5.58,7,5.58,2.63,0,6-1,6-4.23,0-2.76-3.79-3.72-10.32-5.13-5.26-1.16-10.52-3-10.52-8.85,0-8.47,7.31-10.65,14.42-10.65S438.32,82.33,439,90.47h-8.66C430.12,87,427.42,86,424.15,86c-2,0-5.06.38-5.06,3.07,0,3.27,5.13,3.72,10.32,4.94s10.52,3.14,10.52,9.3c0,8.72-7.57,11.54-15.14,11.54s-15.2-2.88-15.58-11.67Z"/><path d="M267.56,128.15h10.07v19l17.89-19h12.57L290.2,146.23l19.62,27.7H297.19L283.4,153.35l-5.77,5.83v14.75H267.56V128.15Z"/><path d="M312.9,140.78h8.65v6.16h.13a11.73,11.73,0,0,1,10.58-7.06,6.59,6.59,0,0,1,2,.33v8.46a16.77,16.77,0,0,0-3.27-.32c-6.67,0-9,4.81-9,10.64v14.94h-9.1V140.78Z"/><path d="M344.2,159.57c.26,5.77,3.08,8.4,8.14,8.4,3.66,0,6.61-2.24,7.19-4.29h8c-2.56,7.82-8,11.15-15.52,11.15-10.45,0-16.93-7.18-16.93-17.44,0-9.94,6.86-17.51,16.93-17.51,11.29,0,16.74,9.49,16.1,19.69ZM359,153.8c-.83-4.62-2.82-7.06-7.24-7.06a7.18,7.18,0,0,0-7.57,7.06Z"/><path d="M404,173.93h-8.66v-4.61h-.19a11.83,11.83,0,0,1-10.13,5.51c-9.69,0-12.12-5.45-12.12-13.66V140.78H382V159.5c0,5.46,1.61,8.15,5.84,8.15,4.93,0,7.05-2.76,7.05-9.49V140.78H404v33.15Z"/><path d="M409,167.07l17.25-19.43h-16v-6.86h28v6.86L421,167.07h18.47v6.86H409v-6.86Z"/></g></svg>