<svg xmlns="http://www.w3.org/2000/svg" width="500" height="80" viewBox="0 0 500 80" fill="none"><g clip-path="url(#clip0_4_315)"><mask id="mask0_4_315" style="mask-type:luminance" maskUnits="userSpaceOnUse" x="0" y="-6" width="500" height="86"><path d="M500 -5.86343H0V79.9428H500V-5.86343Z" fill="white"/></mask><g mask="url(#mask0_4_315)"><path d="M147.271 6.28688C148.319 3.491 147.185 2.5292 145.177 1.65612C142.995 0.78221 139.503 0.0832319 136.273 0.0832319C126.584 0.0832319 116.808 5.67497 116.808 18.2572V19.0871H113.23C110.698 19.0871 109.215 20.4851 109.215 23.1059V26.0768C109.215 28.6107 110.699 30.0957 113.23 30.0957H116.808V59.3221C116.808 61.856 118.205 63.3407 120.736 63.3407H127.981C130.512 63.3407 131.909 61.8551 131.909 59.3221V30.0957H139.764C142.296 30.0957 143.779 28.6098 143.779 26.0768V23.1059C143.779 20.4851 142.295 19.0871 139.764 19.0871H131.909V18.2572C131.909 13.8014 134.876 11.6174 138.281 11.6174C139.328 11.6174 140.463 11.8794 141.423 12.2285C143.868 12.9275 144.915 12.3164 145.787 10.1325L147.271 6.28688Z" fill="#00652D"/><path d="M177.475 23.3913C178.173 20.8566 176.777 20.1585 175.292 19.6336C173.668 19.0767 172.541 18.851 169.807 18.6727C166.459 18.4538 164.533 19.626 162.635 21.8108C162.311 20.2498 160.928 19.0767 159.272 19.0767C159.272 19.0767 151.162 19.0758 150.979 19.0792C149.109 19.1105 147.602 20.636 147.602 22.5157V59.3224C147.602 61.8563 148.998 63.3413 151.53 63.3413H158.774C161.305 63.3413 162.702 61.8554 162.702 59.3224V39.6719C162.702 34.5173 164.648 31.4889 167.609 31.4282C169.092 31.3985 170.751 31.865 172.148 32.3029C173.632 32.9141 175.116 32.3898 175.814 29.9441L177.475 23.3913Z" fill="#00652D"/><path d="M223.688 40.536C223.688 34.5073 221.333 28.7414 217.317 24.7219C213.563 20.9641 207.803 18.5182 200.819 18.5182C187.115 18.5182 177.339 28.2165 177.339 41.4107C177.339 55.0401 187.551 64.4765 201.518 64.4765C208.413 64.4765 214.92 62.2046 218.847 58.011C219.895 56.8758 220.593 55.3902 218.672 53.5551L215.537 50.1609C213.879 48.4139 212.569 49.0242 210.997 50.2478C207.855 52.4328 206.406 53.4773 203.263 53.4773C197.502 53.4773 192.614 50.5836 191.916 44.7299H219.673C222.903 44.7305 223.688 43.5939 223.688 40.536ZM192.004 36.1902C192.711 31.5018 196.068 28.9156 200.471 28.9156C203.002 28.9156 205.649 29.7896 207.22 31.3625C208.443 32.5863 209.401 33.9876 209.824 36.1908L192.004 36.1902Z" fill="#00652D"/><path d="M354.571 59.3218V37.566C354.571 25.9455 347.066 18.5182 336.417 18.5182C331.737 18.5182 328.143 20.0775 325.423 22.5294V22.521C325.423 20.6227 323.886 19.0819 321.989 19.0819H313.754C311.857 19.0819 310.317 20.6227 310.317 22.521V59.3218C310.317 61.8557 311.714 63.3407 314.246 63.3407H321.489C324.02 63.3407 325.417 61.8548 325.417 59.3218V38.702C325.417 34.3339 328.123 31.3625 332.489 31.3625C336.766 31.3625 339.383 34.3331 339.383 38.702V59.3227C339.383 61.8566 340.869 63.3416 343.397 63.3416H350.557C353.089 63.3416 354.571 61.8557 354.571 59.3218Z" fill="#00652D"/><path d="M403.36 19.0828H395.129C393.5 19.0828 392.143 20.2153 391.786 21.7349C388.56 19.7141 384.794 18.5182 380.56 18.5182C367.88 18.5182 358.697 28.5852 358.697 41.5417C358.697 54.4975 367.969 64.5638 380.56 64.5638C385.011 64.5638 388.803 63.1986 391.866 60.9716C392.314 62.3468 393.603 63.3407 395.129 63.3407H403.36C405.257 63.3407 406.797 61.8016 406.797 59.9016V22.5218C406.797 20.6235 405.26 19.0828 403.36 19.0828ZM383.011 51.6087C377.5 51.6087 373.651 47.2315 373.651 41.5425C373.651 35.8521 377.5 31.4757 383.011 31.4757C388.346 31.4757 392.369 35.4151 392.369 41.5425C392.369 47.5816 388.169 51.6087 383.011 51.6087Z" fill="#00652D"/><path d="M439.423 18.5182C435.243 18.5182 431.469 19.7319 428.249 21.7332C427.891 20.2145 426.534 19.0828 424.909 19.0828H416.674C414.777 19.0828 413.237 20.6235 413.237 22.5218V75.9228C413.237 78.4575 414.634 79.9425 417.166 79.9425H424.409C426.94 79.9425 428.337 78.4566 428.337 75.9228V61.3317C431.48 63.3407 435.234 64.4765 439.423 64.4765C452.08 64.4765 461.246 54.3419 461.246 41.4979C461.246 28.5666 451.994 18.5182 439.423 18.5182ZM436.891 51.5452C431.654 51.5452 427.551 47.6145 427.551 41.4979C427.551 35.3813 431.654 31.4494 436.891 31.4494C442.477 31.4494 446.32 35.8181 446.32 41.4979C446.32 47.1774 442.477 51.5452 436.891 51.5452Z" fill="#00652D"/><path d="M497.509 1.65612C495.326 0.78221 491.834 0.0832319 488.603 0.0832319C478.914 0.0832319 469.14 5.67497 469.14 18.2572V19.0871H465.56C463.029 19.0871 461.546 20.4851 461.546 23.1059V26.0768C461.546 28.6107 463.029 30.0957 465.56 30.0957H469.14V59.3221C469.14 61.856 470.534 63.3407 473.066 63.3407H480.311C482.843 63.3407 484.24 61.8551 484.24 59.3221V30.0957H492.094C494.626 30.0957 496.109 28.6098 496.109 26.0768V23.1059C496.109 20.4851 494.626 19.0871 492.094 19.0871H484.24V18.2572C484.24 13.8014 487.206 11.6174 490.611 11.6174C491.66 11.6174 492.794 11.8794 493.754 12.2285C496.197 12.9275 497.246 12.3164 498.12 10.1325L499.603 6.28771C500.649 3.491 499.514 2.5292 497.509 1.65612Z" fill="#00652D"/><path d="M241.361 31.6662C241.361 30.2684 242.691 29.6844 244.963 29.7444C248.819 29.8457 250.605 30.7795 253.406 32.4396C255.654 33.7716 257.576 33.737 259.061 31.8149L261.075 29.2525C263.17 26.6314 262.919 24.9842 260.912 23.2372C257.857 20.6164 251.067 18.4316 244.599 18.4316C233.688 18.4316 226.838 23.7546 226.838 32.2291C226.838 41.4916 234.659 44.0432 243.203 46.6531C246.028 47.5161 248.879 48.5826 248.702 50.672C248.569 52.2474 246.93 52.8143 244.611 52.7731C240.139 52.6927 237.242 50.9492 234.185 49.0059C232.223 47.7595 230.344 46.9961 228.337 49.4421L225.833 52.4187C223.739 54.7778 224.175 56.4376 226.182 58.2736C229.674 61.5062 236.831 64.5632 244.513 64.5632C255.424 64.5632 263.37 59.4068 263.37 50.5822C263.37 42.9806 258.329 39.5907 250.449 36.433C245.013 34.2558 241.361 33.8503 241.361 31.6662Z" fill="#00652D"/><path d="M283.308 31.6662C283.308 30.2684 284.638 29.6844 286.911 29.7444C290.766 29.8457 292.551 30.7795 295.351 32.4396C297.6 33.7716 299.523 33.737 301.009 31.8149L303.02 29.2525C305.117 26.6314 304.866 24.9842 302.86 23.2372C299.803 20.6164 293.014 18.4316 286.546 18.4316C275.635 18.4316 268.784 23.7546 268.784 32.2291C268.784 41.4916 276.605 44.0432 285.149 46.6531C287.974 47.5161 290.826 48.5826 290.649 50.672C290.514 52.2474 288.877 52.8143 286.557 52.7731C282.086 52.6927 279.188 50.9492 276.132 49.0059C274.169 47.7595 272.291 46.9961 270.284 49.4421L267.779 52.4187C265.685 54.7778 266.121 56.4376 268.129 58.2736C271.621 61.5062 278.778 64.5632 286.46 64.5632C297.371 64.5632 305.317 59.4068 305.317 50.5822C305.317 42.9806 300.274 39.5907 292.397 36.433C286.96 34.2558 283.308 33.8503 283.308 31.6662Z" fill="#00652D"/><path d="M14.9519 10.4408C13.693 9.94886 12.4028 9.70291 11.0873 9.70291C8.64966 9.70291 6.12503 10.5464 3.5396 12.2292C0.309111 14.332 -0.888183 18.3829 0.693294 21.8617C1.88637 24.4868 3.6764 26.4526 6.01274 27.7054C9.04397 29.3323 12.993 29.7024 17.6505 28.7949C20.1709 28.3046 22.2581 26.5753 23.2342 24.1708C24.2111 21.7628 23.9181 19.065 22.4523 16.952C20.1911 13.6922 17.6674 11.5023 14.9519 10.4408Z" fill="#00652D"/><path d="M52.2486 10.424C51.4432 12.81 51.9 15.4267 53.4714 17.4255C54.7674 19.0728 56.6934 20.1081 58.7563 20.2653C59.1606 20.2957 59.5717 20.2932 59.9772 20.2569C64.626 19.8419 68.2112 18.4313 70.6329 16.0665C72.4912 14.2519 73.6415 11.9149 74.0509 9.12077C74.5937 5.42055 72.3689 1.93587 68.76 0.835438C67.1137 0.333414 65.5592 0.0832319 64.1026 0.0832319C61.6237 0.0832319 59.4257 0.808409 57.5369 2.25619C55.2714 3.99388 53.4917 6.74242 52.2486 10.424Z" fill="#00652D"/><path d="M58.5343 64.0578C52.2243 69.0511 48.0743 66.8213 48.032 66.785C48.0272 66.7936 47.7426 67.3007 47.7112 67.3565C47.1549 68.3504 46.5417 69.292 45.8766 70.1778C47.9114 72.7445 52.5317 75.5309 58.026 75.7483C61.5806 75.7821 65.9503 75.6207 67.1669 72.6988C67.1854 72.6533 67.204 72.6084 67.2226 72.5629C69.6569 66.4775 66.3843 58.4177 58.5343 64.0578Z" fill="#EE2F24"/><path d="M88.7451 49.9249C87.9911 48.4977 86.4746 47.5973 85.0917 46.9051C83.554 46.136 81.5909 46.1412 79.7046 46.9214C77.6511 47.7698 76.0546 49.3629 75.4349 51.1834C75.3291 51.4523 72.9109 57.4167 66.0894 59.2137C62.1557 60.2523 58.5949 58.6989 55.2057 54.4678C54.1309 53.1266 53.1877 51.553 52.4026 49.7891L52.2934 49.5448C52.2934 49.5448 53.2266 48.7139 53.5549 48.3673C56.7569 45.4201 58.7714 39.9173 56.6317 35.7801C55.2117 33.034 52.5197 32.5311 50.3337 32.4001C47.3837 32.2228 44.7948 32.6064 42.1814 33.6089L41.6674 33.7627C38.3228 34.6188 35.1294 35.4926 32.7897 36.7665L32.7491 36.7851C32.0274 37.0674 31.6228 37.3512 30.9331 37.9201C30.6063 38.1729 29.886 38.8716 29.7288 39.0458C29.2788 39.5495 28.9563 40.0103 28.7157 40.4962C27.7304 42.0825 28.4742 44.3089 28.8383 45.1947C29.6471 47.1588 30.706 48.5297 32.0754 49.3849L32.122 49.4195C32.7297 49.9538 33.406 50.4195 34.1323 50.8042C34.568 51.0719 35.0054 51.2892 35.4528 51.4617C36.1231 51.7843 36.808 52.0558 37.5157 52.2806L37.7791 52.3641L37.7646 52.6398C37.666 54.511 37.3654 56.2631 36.8706 57.8494C35.0948 63.5552 33.3166 64.8686 29.7491 65.8085C22.72 67.6602 18.9246 64.093 17.1016 62.378C16.7766 62.0728 16.5334 61.8446 16.3181 61.6867C14.4208 60.2912 12.3606 58.9583 10.3898 58.9583C9.07268 58.9583 7.79599 59.5541 6.63416 61.1246C4.65668 63.7986 3.43236 67.7137 5.92576 70.6817C6.24239 71.0604 13.8162 79.9442 25.8069 79.9434C27.347 79.9434 28.916 79.7938 30.4694 79.4998C30.6991 79.4557 30.934 79.4082 31.1754 79.3567C37.3314 78.0164 42.3511 74.8679 45.8757 70.1781C46.5417 69.2925 47.154 68.351 47.7103 67.357C47.7417 67.3013 48.0263 66.7941 48.0311 66.7856C48.0726 66.8219 52.2234 69.0514 58.5334 64.0581C66.384 58.4183 69.656 66.4778 67.2217 72.5632C67.6017 72.5177 68.8346 72.3241 69.0674 72.28C75.0769 71.1425 80.3423 67.8902 84.2937 62.8748C87.2134 59.1697 88.47 55.7517 88.6928 55.1036C89.4434 52.9221 89.4594 51.2764 88.7451 49.9249Z" fill="#00652D"/></g></g><defs><clipPath id="clip0_4_315"><rect width="500" height="80" fill="white"/></clipPath></defs></svg>