<svg xmlns="http://www.w3.org/2000/svg" width="542" height="76" viewBox="0 0 542 76" fill="none"><g clip-path="url(#clip0_4_9)"><path d="M211.1 1.80001C211.5 1.50001 184.2 44.6 184.1 44.5V68.8C184.2 69.1 161.3 69.1 161.4 68.8V44.4C161.3 44.5 134 1.40001 134.4 1.70001C134 1.40001 158.5 1.40001 158.7 1.70001C158.6 1.40001 172.8 23.8 172.8 23.9C172.8 23.8 187 1.30001 186.9 1.70001C187 1.40001 211.5 1.40001 211.1 1.80001Z" fill="#042874"/><path d="M122 1.8C122.1 1.5 98.6 1.5 98.7 1.8C98.6 1.5 71.5 69.2 71.9 68.8C71.5 69.1 94.6 69.1 94.8 68.8C94.9 68.5 98 59.6 98.1 59.3C98 59.5 121.9 59.5 121.8 59.3C121.9 59.5 124.9 68.5 124.9 68.8C125.1 69.1 148.8 69.1 148.4 68.8C148.8 69.1 122.1 1.4 122 1.8ZM103.8 43.1C103.7 43.2 110.4 24.2 110.4 24.3C110.4 24.2 116.6 43.2 116.6 43.1C116.6 43.2 103.7 43.2 103.8 43.1Z" fill="#042874"/><path d="M245.5 25.2C238.2 24 231 24.4 230.5 21.3C229.9 18.5 233.7 17.9 236.6 18C242.6 17.7 251.1 20.4 256.1 22.3L265.8 7.2C257.5 2.8 244.9 0.100005 232.9 1C217.3 2.2 207.9 11.8 208.5 23C208.5 37.4 222.7 41.7 229.7 42.8C239.8 44.7 247.7 43.9 247.3 47.7C247.3 50.3 242.4 51.2 237.2 50.8C231.3 50.8 223.2 49.1 215.9 44.5L205.8 60.2C217.4 68.4 231.4 70.2 242.4 69.4C257.1 68.1 268.2 61.2 269.3 49.2C271.3 33.3 258.3 27 245.5 25.2Z" fill="#042874"/><path d="M55.5 1.5C49.6 1.5 44.5 1.6 44.7 1.7V24H22.4V1.8C22.6 1.6 17.4 1.6 11.6 1.6C5.7 1.5 -0.199999 1.6 1.39559e-06 1.8V68.8C1.39559e-06 69 5.8 69 11.5 69C17.3 69 22.3 68.9 22.3 68.8V46.4H44.7V68.8C44.7 69 49.7 69 55.5 69C61.3 69 67.1 68.9 67 68.8V1.8C67.2 1.6 61.4 1.5 55.5 1.5Z" fill="#042874"/><path d="M22.4 24.1H44.7L22.4 1.70001V24.1Z" fill="#2DBAD7"/><path d="M22.4 68.8L44.7 46.4H22.4V68.8Z" fill="#2DBAD7"/><path d="M44.7 24.1V46.4L55.9 35.3L44.7 24.1Z" fill="#2DBAD7"/><path d="M297.4 1.49999H300.5L307 23.9L313.3 1.39999H315.8L322.2 23.9L328.6 1.49999H331.6L323.5 28.9H320.9L314.5 6.99999L308.1 28.9H305.6L297.4 1.49999Z" fill="#042874"/><path d="M331.3 18.8V18.5C331.3 12.6 335.1 8.10001 340.3 8.10001C345.5 8.10001 349.3 12.6 349.3 18.5V18.7C349.3 24.6 345.5 29.2 340.3 29.2C335.1 29.2 331.3 24.7 331.3 18.8ZM346.5 18.7V18.5C346.5 14 343.8 10.6 340.3 10.6C336.7 10.6 334.2 14 334.2 18.5V18.7C334.2 23.2 336.9 26.6 340.3 26.6C343.9 26.6 346.5 23.2 346.5 18.7Z" fill="#042874"/><path d="M353.1 8.5H355.9V13C357.1 10.2 359.6 8.1 362.9 8.3V11.3H362.7C358.9 11.3 355.9 13.9 355.9 19.2V28.8H353.1V8.5Z" fill="#042874"/><path d="M366.5 0.699997H369.3V19.5L378.3 8.5H381.7L374.6 17L382 28.7H378.7L372.7 19.2L369.3 23.1V28.7H366.5V0.699997Z" fill="#042874"/><path d="M385.5 1H388.6V4.3H385.5V1ZM385.7 8.5H388.5V28.8H385.7V8.5Z" fill="#042874"/><path d="M394.1 8.50001H396.9V11.8C398 9.80001 399.9 8.10001 402.9 8.10001C407 8.10001 409.5 10.9 409.5 15.5V28.8H406.7V16.3C406.7 12.7 405 10.7 402 10.7C399 10.7 396.9 13 396.9 16.5V28.8H394.1V8.50001Z" fill="#042874"/><path d="M413.9 32.5L415 30.2C416.9 31.4 419.2 32.2 421.5 32.2C425.3 32.2 427.7 30.2 427.7 26.1V23.1C426.3 25.4 424.2 27.3 421 27.3C416.9 27.3 413 23.9 413 17.8V17.6C413 11.5 416.9 8 421 8C424.2 8 426.3 9.9 427.7 12V8.5H430.5V26.1C430.5 28.9 429.7 30.9 428.3 32.4C426.7 34 424.4 34.7 421.6 34.7C418.9 34.7 416.3 33.9 413.9 32.5ZM427.8 17.8V17.7C427.8 13.3 424.8 10.7 421.7 10.7C418.5 10.7 415.9 13.3 415.9 17.7V17.8C415.9 22.2 418.5 24.9 421.7 24.9C424.8 24.8 427.8 22.1 427.8 17.8Z" fill="#042874"/><path d="M447.3 11H444.8V8.5H447.3V6.6C447.3 4.5 447.9 2.9 448.9 1.9C449.8 1 451.2 0.5 452.8 0.5C453.9 0.5 454.7 0.7 455.5 0.9V3.4C454.7 3.2 454 3 453.2 3C451.2 3 450.1 4.2 450.1 6.8V8.5H455.4V11H450.1V28.8H447.3V11Z" fill="#042874"/><path d="M456.4 18.8V18.5C456.4 12.6 460.2 8.10001 465.4 8.10001C470.6 8.10001 474.4 12.6 474.4 18.5V18.7C474.4 24.6 470.6 29.2 465.4 29.2C460.2 29.2 456.4 24.7 456.4 18.8ZM471.6 18.7V18.5C471.6 14 468.9 10.6 465.4 10.6C461.8 10.6 459.3 14 459.3 18.5V18.7C459.3 23.2 462 26.6 465.4 26.6C469 26.6 471.6 23.2 471.6 18.7Z" fill="#042874"/><path d="M478.9 8.5H481.7V13C482.9 10.2 485.4 8.1 488.7 8.3V11.3H488.5C484.7 11.3 481.7 13.9 481.7 19.2V28.8H478.9V8.5Z" fill="#042874"/><path d="M311.9 49.1H314.9L307.7 69.9C306.3 74.1 304.5 75.6 301.7 75.6C300.4 75.6 299.2 75.3 298 74.7L298.9 72.3C299.7 72.7 300.5 73 301.6 73C303.1 73 304.1 72.1 305.1 69.5L297.3 49.1H300.4L306.5 65.9L311.9 49.1Z" fill="#042874"/><path d="M316.2 59.4V59.1C316.2 53.1 320 48.6 325.3 48.6C330.5 48.6 334.3 53.1 334.3 59.1V59.3C334.3 65.3 330.5 69.8 325.2 69.8C320 69.9 316.2 65.4 316.2 59.4ZM331.5 59.4V59.2C331.5 54.6 328.8 51.2 325.3 51.2C321.7 51.2 319.2 54.6 319.2 59.2V59.4C319.2 64 321.9 67.4 325.4 67.4C328.9 67.4 331.5 63.9 331.5 59.4Z" fill="#042874"/><path d="M337.6 62.5V49.1H340.4V61.7C340.4 65.3 342.1 67.4 345.1 67.4C348.1 67.4 350.3 65.1 350.3 61.6V49.1H353.1V69.5H350.3V66.2C349.2 68.2 347.3 69.9 344.3 69.9C340.1 69.9 337.6 67 337.6 62.5Z" fill="#042874"/><path d="M358.7 49.1H361.5V53.6C362.7 50.7 365.2 48.7 368.5 48.8V51.9H368.3C364.5 51.9 361.4 54.6 361.4 59.8V69.5H358.6V49.1H358.7Z" fill="#042874"/><path d="M383.5 64.7V51.6H381V49.1H383.5V43.1H386.3V49.1H391.6V51.6H386.3V64.3C386.3 66.5 387.5 67.2 389.2 67.2C390 67.2 390.8 67 391.6 66.7V69.1C390.7 69.5 389.7 69.8 388.5 69.8C385.7 69.8 383.5 68.4 383.5 64.7Z" fill="#042874"/><path d="M394.1 59.4V59.1C394.1 53.1 397.9 48.6 403.2 48.6C408.5 48.6 412.2 53.1 412.2 59.1V59.3C412.2 65.3 408.4 69.8 403.1 69.8C397.8 69.8 394.1 65.4 394.1 59.4ZM409.4 59.4V59.2C409.4 54.6 406.7 51.2 403.2 51.2C399.6 51.2 397.1 54.6 397.1 59.2V59.4C397.1 64 399.8 67.4 403.3 67.4C406.8 67.4 409.4 63.9 409.4 59.4Z" fill="#042874"/><path d="M416.8 49.1H419.6V52.3C420.7 50.4 422.4 48.7 425.3 48.7C428 48.7 430 50.2 430.9 52.4C432.2 50.4 434 48.7 437.2 48.7C441.2 48.7 443.7 51.4 443.7 56.2V69.5H440.9V56.9C440.9 53.2 439.3 51.2 436.5 51.2C433.8 51.2 431.7 53.3 431.7 57V69.5H428.9V56.9C428.9 53.3 427.3 51.3 424.5 51.3C421.8 51.3 419.7 53.7 419.7 57.1V69.5H416.9V49.1H416.8Z" fill="#042874"/><path d="M447.5 59.4V59.1C447.5 53.1 451.3 48.6 456.6 48.6C461.9 48.6 465.6 53.1 465.6 59.1V59.3C465.6 65.3 461.8 69.8 456.5 69.8C451.2 69.8 447.5 65.4 447.5 59.4ZM462.8 59.4V59.2C462.8 54.6 460.1 51.2 456.6 51.2C453 51.2 450.5 54.6 450.5 59.2V59.4C450.5 64 453.2 67.4 456.7 67.4C460.2 67.4 462.8 63.9 462.8 59.4Z" fill="#042874"/><path d="M469.5 49.1H472.3V53.6C473.5 50.7 476 48.7 479.3 48.8V51.9H479.1C475.3 51.9 472.2 54.6 472.2 59.8V69.5H469.4V49.1H469.5Z" fill="#042874"/><path d="M483 49.1H485.8V53.6C487 50.7 489.5 48.7 492.8 48.8V51.9H492.6C488.8 51.9 485.7 54.6 485.7 59.8V69.5H483V49.1Z" fill="#042874"/><path d="M494.9 59.4V59.1C494.9 53.1 498.7 48.6 504 48.6C509.3 48.6 513 53.1 513 59.1V59.3C513 65.3 509.2 69.8 503.9 69.8C498.7 69.9 494.9 65.4 494.9 59.4ZM510.2 59.4V59.2C510.2 54.6 507.5 51.2 504 51.2C500.4 51.2 497.9 54.6 497.9 59.2V59.4C497.9 64 500.6 67.4 504.1 67.4C507.6 67.4 510.2 63.9 510.2 59.4Z" fill="#042874"/><path d="M514.5 49.1H517.5L522 65.3L526.7 49H529.1L533.7 65.3L538.3 49.1H541.1L535 69.6H532.5L527.9 53.7L523.2 69.6H520.7L514.5 49.1Z" fill="#042874"/></g><defs><clipPath id="clip0_4_9"><rect width="541.1" height="75" fill="white" transform="translate(0 0.5)"/></clipPath></defs></svg>