<svg xmlns="http://www.w3.org/2000/svg" width="500" height="200" viewBox="0 0 500 200" fill="none"><g clip-path="url(#clip0_4_166)"><path d="M288.759 145.333V54.6667H299.947C330.314 54.6667 350.027 68.2667 350.027 99.7333V100.267C350.027 131.467 330.314 145.333 299.947 145.333H288.759ZM222.163 200H295.951C376.398 200 416.622 158.133 416.622 98.9333V98.4C416.889 39.2 377.198 0 298.348 0H222.163V200Z" fill="#006B2D"/><path d="M41.5557 137.867H145.978V69.0667H41.5557V137.867Z" fill="#E30613"/><path d="M437.667 200H500V0H437.667V200Z" fill="#006B2D"/><path d="M0 200H62.5999V0H0V200Z" fill="#006B2D"/><path d="M131.859 200H194.459V0H131.859V200Z" fill="#006B2D"/></g><defs><clipPath id="clip0_4_166"><rect width="500" height="200" fill="white"/></clipPath></defs></svg>