<svg xmlns="http://www.w3.org/2000/svg" width="500" height="209" viewBox="0 0 500 209" fill="none"><g clip-path="url(#clip0_4_274)"><path d="M0 0V49.115H171.143V0H0ZM160.4 38.5157H10.7431V10.7486H160.4V38.5157Z" fill="#01A982"/><path d="M10.7431 130.476H0V81.3607H10.7431V100.768H29.8418V81.3607H40.5849V130.476H29.8418V110.024H10.7431V130.476ZM64.7568 131.222C53.8645 131.222 46.5533 124.355 46.5533 113.159C46.5533 101.962 53.7153 94.6471 63.4139 94.6471C73.1125 94.6471 79.0809 101.664 79.0809 112.114V115.995H56.6995C57.8932 121.369 62.2202 122.862 66.3981 122.862C70.5759 122.862 72.8141 122.116 76.0967 120.026H76.5443V128.087C73.7093 130.326 69.6807 131.222 64.7568 131.222ZM56.6995 108.979H69.3823C69.0839 105.396 67.5918 102.858 63.4139 102.858C59.236 102.858 57.5947 104.201 56.6995 108.979ZM106.983 109.874L101.462 130.476H92.0621L81.319 95.8414V95.3936H91.6144L97.4336 116.144L102.954 95.3936H111.31L116.831 116.144L122.799 95.3936H132.647V95.8414L121.904 130.476H112.504L106.983 109.874ZM149.955 131.222C141.45 131.222 138.019 127.789 138.019 119.876V81.2114H148.463V119.13C148.463 121.519 149.358 122.414 151.447 122.414C153.536 122.414 153.238 122.116 153.835 121.966H153.984V130.476C153.089 130.924 151.597 131.222 149.955 131.222ZM175.022 131.222C164.13 131.222 156.819 124.355 156.819 113.159C156.819 101.962 163.981 94.6471 173.679 94.6471C183.378 94.6471 189.346 101.664 189.346 112.114V115.995H166.965C168.159 121.369 172.486 122.862 176.664 122.862C180.842 122.862 183.08 122.116 186.362 120.026H186.81V128.087C183.975 130.326 179.946 131.222 175.022 131.222ZM166.965 108.979H179.648C179.349 105.396 177.857 102.858 173.679 102.858C169.502 102.858 167.86 104.201 166.965 108.979ZM231.871 95.5429H239.63V103.903H231.871V118.085C231.871 121.22 233.065 122.564 236.198 122.564C239.332 122.564 238.138 122.414 239.332 122.116H239.63V130.326C238.287 130.774 236.198 131.371 233.214 131.371C224.858 131.371 221.426 127.49 221.426 118.682V103.903H208.147V118.085C208.147 121.22 209.34 122.564 212.474 122.564C215.607 122.564 214.414 122.414 215.607 122.116H215.906V130.326C214.563 130.774 212.474 131.371 209.49 131.371C201.134 131.371 197.702 127.49 197.702 118.682V103.903H192.331V95.5429H197.702V85.9886H208.147V95.5429H221.426V85.9886H231.871V95.5429ZM293.494 97.9314C293.494 108.68 286.332 114.502 275.44 114.502H267.83V130.476H257.087V81.3607H275.44C286.332 81.3607 293.494 87.1829 293.494 97.9314ZM274.545 105.545C279.916 105.545 282.602 102.41 282.602 98.0807C282.602 93.7514 280.066 90.4671 274.545 90.4671H267.83V105.545H274.545ZM316.622 127.042C314.384 129.729 310.952 131.073 307.371 131.073C300.507 131.073 294.987 126.893 294.987 119.578C294.987 112.263 300.507 108.232 308.565 108.232C316.622 108.232 313.638 108.68 316.323 109.426V108.829C316.323 105.097 314.235 103.455 308.565 103.455C302.895 103.455 301.701 104.5 298.717 106.142H298.269V97.7821C300.955 96.14 305.73 94.7964 310.355 94.7964C320.949 94.7964 326.619 99.8721 326.619 108.68V130.625H316.622V127.042ZM316.323 119.429V116.443C314.682 115.547 312.742 115.249 310.654 115.249C307.222 115.249 305.282 116.443 305.282 119.279C305.282 122.116 307.371 123.459 310.355 123.459C313.19 123.609 315.279 122.116 316.323 119.429ZM331.99 113.009C331.99 101.813 339.899 94.6471 350.343 94.6471C360.788 94.6471 357.505 95.3936 360.042 97.3343V106.291H359.594C357.356 104.5 354.67 103.604 351.537 103.604C346.315 103.604 342.435 107.187 342.435 113.159C342.435 119.13 346.315 122.564 351.537 122.564C356.759 122.564 357.207 121.519 359.594 119.876H360.042V128.834C357.505 130.774 353.924 131.521 350.343 131.521C339.899 131.222 331.99 124.355 331.99 113.009ZM376.902 114.651V130.476H366.458V81.3607H376.902V109.426L387.347 95.5429H399.135V95.9907L386.601 111.815L399.135 130.177V130.625H387.198L376.902 114.651ZM422.71 127.042C420.471 129.729 417.04 131.073 413.459 131.073C406.595 131.073 401.074 126.893 401.074 119.578C401.074 112.263 406.595 108.232 414.652 108.232C422.71 108.232 419.725 108.68 422.411 109.426V108.829C422.411 105.097 420.322 103.455 414.652 103.455C408.982 103.455 407.789 104.5 404.805 106.142H404.357V97.7821C407.043 96.14 411.817 94.7964 416.443 94.7964C427.037 94.7964 432.707 99.8721 432.707 108.68V130.625H422.71V127.042ZM422.411 119.429V116.443C420.77 115.547 418.83 115.249 416.741 115.249C413.309 115.249 411.37 116.443 411.37 119.279C411.37 122.116 413.459 123.459 416.443 123.459C419.278 123.609 421.516 122.116 422.411 119.429ZM450.313 101.216C452.253 97.3343 454.939 95.095 458.818 95.095C462.698 95.095 461.653 95.3936 462.25 95.6921V105.545H461.802C460.609 105.097 459.266 104.799 457.177 104.799C453.894 104.799 451.507 106.739 450.612 110.322V130.476H440.167V95.3936H450.164V101.216H450.313ZM490.003 126.893C487.765 129.729 484.333 131.371 479.558 131.371C470.606 131.371 464.787 123.161 464.787 113.159C464.787 103.156 470.457 94.7964 479.558 94.7964C488.66 94.7964 487.466 96.14 489.555 98.8271V81.51H500V130.625H490.003V126.893ZM489.705 118.682V107.486C487.914 104.948 485.676 103.903 483.139 103.903C478.514 103.903 475.53 107.187 475.53 113.159C475.53 119.13 478.663 122.414 483.139 122.414C485.676 122.265 487.914 121.071 489.705 118.682ZM0 146.599H30.2895V152.57H6.86362V167.648H28.2005V173.47H6.86362V189.891H30.4387V195.863H0V146.599ZM55.5058 160.333C63.2647 160.333 67.5918 165.409 67.5918 173.918V195.714H61.0266V174.067C61.0266 169.589 58.7884 166.304 53.8645 166.304C48.9406 166.304 46.2548 168.842 45.0612 172.574V195.564H38.496V160.93H45.0612V166.006C47.1501 162.871 50.5819 160.333 55.5058 160.333ZM85.0492 161.079H94.0018V166.603H85.0492V185.264C85.0492 189.145 87.1382 190.489 90.7192 190.489C94.3002 190.489 92.8081 190.339 93.5542 190.041H93.8526V195.564C92.9573 196.012 91.6144 196.311 89.8239 196.311C81.7666 196.311 78.484 192.579 78.484 185.861V166.752H72.5157V161.229H78.484V151.973H85.0492V161.079ZM115.189 196.46C105.043 196.46 98.1797 189.742 98.1797 178.844C98.1797 167.946 104.596 160.482 113.996 160.482C123.396 160.482 128.469 167.349 128.469 177.501V180.486H104.745C105.491 187.503 109.967 190.936 116.085 190.936C122.202 190.936 122.65 190.041 125.783 187.801H126.082V193.624C123.098 195.564 119.517 196.46 115.189 196.46ZM104.894 174.963H122.053C121.755 169.887 119.367 165.856 113.996 165.856C109.072 166.006 105.789 169.738 104.894 174.963ZM142.644 166.454C144.136 162.721 147.419 160.482 151.149 160.482C154.879 160.482 153.984 160.781 154.581 161.079V167.499H154.432C153.536 167.051 151.895 166.752 150.403 166.752C146.822 166.752 143.838 169.141 142.793 173.022V195.564H136.228V160.93H142.793V166.454H142.644ZM176.813 160.333C187.108 160.333 192.629 168.693 192.629 178.396C192.629 188.1 187.108 196.46 176.813 196.46C166.517 196.46 168.905 194.221 167.114 191.832V209H160.549V161.079H167.114V164.961C168.905 162.572 172.486 160.333 176.813 160.333ZM175.619 190.489C182.035 190.489 185.915 185.413 185.915 178.396C185.915 171.38 182.184 166.304 175.619 166.304C169.054 166.304 168.756 168.394 167.114 171.828V185.114C168.905 188.548 172.187 190.489 175.619 190.489ZM206.804 166.454C208.296 162.721 211.579 160.482 215.309 160.482C219.039 160.482 218.144 160.781 218.741 161.079V167.499H218.591C217.696 167.051 216.055 166.752 214.563 166.752C210.982 166.752 207.998 169.141 206.953 173.022V195.564H200.388V160.93H206.953V166.454H206.804ZM228.29 147.046C230.528 147.046 232.468 148.838 232.468 151.077C232.468 153.316 230.528 155.108 228.29 155.108C226.052 155.108 224.112 153.316 224.112 151.077C224.112 148.838 226.052 147.046 228.29 147.046ZM225.007 161.079H231.573V195.714H225.007V161.079ZM254.849 175.56C259.773 177.202 265.294 179.143 265.294 185.861C265.294 192.579 259.475 196.609 252.014 196.609C244.554 196.609 242.913 195.564 240.227 193.474V187.204H240.525C243.509 189.891 247.687 191.086 251.865 191.086C256.043 191.086 258.878 189.742 258.878 186.607C258.878 183.472 256.192 182.875 250.671 181.084C245.748 179.441 240.376 177.65 240.376 171.231C240.376 164.811 245.897 160.631 252.91 160.631C259.922 160.631 260.668 161.527 263.503 163.468V169.738H263.354C260.519 167.499 257.237 166.155 253.059 166.155C248.881 166.155 246.643 167.946 246.643 170.335C246.643 172.724 249.179 173.769 254.849 175.56ZM287.974 196.46C277.828 196.46 270.964 189.742 270.964 178.844C270.964 167.946 277.38 160.482 286.78 160.482C296.18 160.482 301.253 167.349 301.253 177.501V180.486H277.529C278.275 187.503 282.751 190.936 288.869 190.936C294.987 190.936 295.434 190.041 298.568 187.801H298.866V193.624C295.882 195.564 292.301 196.46 287.974 196.46ZM277.678 174.963H294.837C294.539 169.887 292.152 165.856 286.78 165.856C281.856 166.006 278.574 169.738 277.678 174.963Z" fill="black"/></g><defs><clipPath id="clip0_4_274"><rect width="500" height="209" fill="white"/></clipPath></defs></svg>