<svg xmlns="http://www.w3.org/2000/svg" width="524" height="453" viewBox="0 0 524 453" fill="none"><path d="M349 229.5L426.4 322.3L426.5 322.4C428.7 324.4 430 327.3 430 330.5V335.7C430 341.8 425 346.8 418.9 346.8V346.7C418.3 346.7 417.8 346.8 417.2 346.8H415C412.5 346.8 410.4 348.8 410.4 351.4C410.4 353.9 412.4 356 415 356H518.8C521.3 356 523.3 354 523.3 351.4C523.3 348.9 521.3 346.8 518.8 346.8H518C487.6 345.3 470.5 331.6 464.6 325.8L462.6 323.9L384.7 222.7L450.8 161.1L452.8 159.2C458.7 153.4 475.8 139.7 506.2 138.2H507C509.5 138.2 511.5 136.2 511.5 133.6C511.5 131.1 509.5 129 507 129H414.9C412.4 129 410.3 131 410.3 133.6C410.3 136.1 412.3 138.2 414.9 138.2H417.1C417.7 138.2 418.3 138.2 418.8 138.3V138.2C424.9 138.2 429.9 143.2 429.9 149.3C429.9 152.5 428.5 155.4 426.4 157.4L426.3 157.5L349 229.5Z" fill="#004388"/><path d="M73 68.2C73 82.1 61.7 93.4 47.8 93.4C33.9 93.4 22.6 82.1 22.6 68.2C22.6 54.3 33.9 43 47.8 43C61.8 43.1 73 54.3 73 68.2Z" fill="#5D686E"/><path d="M80.2 138.7L80.4 319.4C80.4 334.5 92.7 346.8 107.8 346.8H110C112.5 346.8 114.6 348.8 114.6 351.4C114.6 353.9 112.6 356 110 356H8C5.5 356 3.4 354 3.4 351.4C3.4 348.9 5.4 346.8 8 346.8H10.2C25.3 346.8 37.6 334.5 37.6 319.4L37.5 170.7C37.5 161.7 30.2 154.4 21.2 154.4C20.7 154.4 20.2 154.3 19.7 154.4C17.5 154.4 15.3 154.7 13.1 155.1L12.7 155.2C10.2 155.7 7.6 156.3 5.1 156.8C4.9 156.8 4.6 156.9 4.4 156.9C2 156.9 0 154.9 0 152.5C0 150.4 1.5 148.7 3.4 148.2C31.4 142.5 59.2 135.6 85.9 127.8C86.3 127.7 86.7 127.6 87.1 127.6C89.5 127.6 91.5 129.6 91.5 132C91.5 134 90.2 135.7 88.3 136.2C85.6 137.1 83 137.9 80.2 138.7Z" fill="#004388"/><path d="M283.7 55.2C281.3 56.5 278.8 57.9 276.4 59.2C275.8 59.5 275.1 59.7 274.3 59.7C271.9 59.7 269.9 57.7 269.9 55.3C269.9 53.6 270.9 52.1 272.3 51.4C301.1 35.7 328.8 18.9 354.4 0.700001C355.1 0.200001 355.9 0 356.9 0C359.3 0 361.3 2 361.3 4.4C361.3 5.8 360.6 7.1 359.5 7.9C356.7 9.9 353.9 11.8 351 13.8L351.2 319.5C351.2 334.6 363.5 346.9 378.6 346.9H380.8C383.3 346.9 385.3 348.9 385.3 351.5C385.3 354 383.3 356.1 380.8 356.1H278.8C276.3 356.1 274.3 354.1 274.3 351.5C274.3 349 276.3 346.9 278.8 346.9H281C296.1 346.9 308.4 334.6 308.4 319.5V62.6C308.4 53.6 301.1 48.7 292.1 51.7C291.6 51.9 291.1 52.1 290.6 52.3C288.4 53 286.2 54 284.1 55.1L283.7 55.2Z" fill="#004388"/><path d="M240.9 130.2H205.7V92.8C208.7 91.5 211.7 90.2 214.7 88.9C216.2 88.2 217.2 86.7 217.2 84.9C217.2 82.5 215.2 80.5 212.8 80.5C212.1 80.5 211.5 80.7 210.9 80.9C184.4 92.7 156.6 103.5 128.3 113.1C126.6 113.7 125.4 115.3 125.4 117.2C125.4 119.6 127.4 121.6 129.8 121.6C130.3 121.6 130.8 121.5 131.3 121.3C132.1 121 133 120.7 133.8 120.5L134.1 120.4C137.6 119.2 141.4 118.5 145.3 118.5C145.8 118.5 146.3 118.4 146.8 118.4C155.8 118.4 163.1 123.9 163.1 132.9V138.7V141.5L163.2 301.8V327H163.3C163.3 342.9 176.2 355.8 192.1 355.8L193.1 355.7H235.4C237.9 355.7 239.9 353.7 239.9 351.1C239.9 348.6 237.9 346.5 235.4 346.5H233.2C218.1 346.5 205.8 334.2 205.8 319.1L205.7 156.1V151.3H240.9V130.2Z" fill="#004388"/><path fill-rule="evenodd" clip-rule="evenodd" d="M351.3 403.6C349.2 403.6 347.8 403.7 346.8 403.8V415.4H351.5C357.2 415.4 360.8 413 360.8 409.4C360.8 404.6 355.7 403.6 351.3 403.6Z" fill="#5D686E"/><path fill-rule="evenodd" clip-rule="evenodd" d="M2.90002 381.6V452.6H522.8V381.6H2.90002ZM53.8 440.7H22.5V396.3H52.7V404.3H32.5V413.7H51.5V421.6H32.5V432.8H53.8V440.7ZM105.5 440.7H96.4L80.3 419.3C78 416.2 76.1 413.5 74.5 411.1C74.6 414.3 74.6 417.7 74.6 421.6V440.8H65.1V396.3H74.8L91 417.7C93.1 420.5 94.8 422.9 96.3 425.2C96.1 421.7 96.1 418.4 96.1 415.3V396.3H105.6V440.7H105.5ZM160.7 438.4L159.5 438.8C157.8 439.3 151.6 441.1 143.8 441.1C135.6 441.1 129.2 439.2 124.3 435.3C119.5 431.5 116.8 425.4 116.8 418.7C116.8 405 128.2 395.8 145.2 395.8C151.1 395.8 155.9 396.9 158.2 397.8L159.8 398.4L157 406L155.3 405.3C152.5 404.2 149.2 403.7 145.1 403.7C133.8 403.7 127.1 409.2 127.1 418.4C127.1 427.6 133.5 433.1 144.3 433.1C147 433.1 149.4 432.9 151 432.5V423.4H141.1V415.6H160.8V438.4H160.7ZM183.3 440.7H173.3V396.3H183.3V440.7ZM237.8 440.7H228.7L212.6 419.3C210.3 416.2 208.4 413.5 206.8 411.1C206.9 414.3 206.9 417.7 206.9 421.6V440.8H197.4V396.3H207.1L223.3 417.7C225.4 420.5 227.1 422.9 228.6 425.2C228.4 421.7 228.4 418.4 228.4 415.3V396.3H237.9V440.7H237.8ZM283.2 440.7H251.9V396.3H282.1V404.3H261.9V413.7H280.9V421.6H261.9V432.8H283.2V440.7ZM325.6 440.7H294.4V396.3H324.6V404.3H304.4V413.7H323.4V421.6H304.4V432.8H325.7V440.7H325.6ZM363.2 440.7L362.7 439.9C361.8 438.6 360.8 435.5 359.2 429.6C357.9 424.7 355.9 423.1 350.9 423H346.7V440.7H336.8V397.1L338.3 396.8C341.7 396.2 346.5 395.9 350.8 395.9C357.9 395.9 362.8 397.1 366.2 399.7C369.1 401.8 370.8 405.2 370.8 408.9C370.8 413.4 368.2 417.3 363.8 419.6C366.1 421.3 367.7 423.8 368.7 427.3C369.9 431.4 371.3 436.6 372.2 438.1L373.8 440.8H363.2V440.7ZM392.6 440.7H382.6V396.3H392.6V440.7ZM447.2 440.7H438.1L422 419.3C419.7 416.2 417.8 413.5 416.2 411.1C416.3 414.3 416.3 417.7 416.3 421.6V440.8H406.8V396.3H416.5L432.7 417.7C434.8 420.5 436.5 422.9 438 425.2C437.8 421.7 437.8 418.4 437.8 415.3V396.3H447.3V440.7H447.2ZM502.4 438.4L501.2 438.8C499.5 439.3 493.3 441.1 485.5 441.1C477.3 441.1 470.9 439.2 466 435.3C461.2 431.5 458.5 425.4 458.5 418.7C458.5 405 469.9 395.8 486.9 395.8C492.8 395.8 497.6 396.9 499.9 397.8L501.5 398.4L498.7 406L497 405.3C494.2 404.2 490.9 403.7 486.8 403.7C475.5 403.7 468.8 409.2 468.8 418.4C468.8 427.6 475.2 433.1 486 433.1C488.7 433.1 491.1 432.9 492.7 432.5V423.4H482.8V415.6H502.4V438.4Z" fill="#5D686E"/></svg>