<svg xmlns="http://www.w3.org/2000/svg" width="1080" height="1080" viewBox="0 0 1080 1080" fill="none"><g clip-path="url(#clip0_7_55)"><path d="M908.45 907.165C1111.86 703.754 1111.86 373.959 908.45 170.548C705.039 -32.8637 375.244 -32.8637 171.833 170.548C-31.5782 373.959 -31.5782 703.754 171.833 907.165C375.244 1110.58 705.039 1110.58 908.45 907.165Z" fill="white"/><path d="M243.783 601.529H220.445V401.366H243.783V601.529ZM297.411 601.529H274.117L244.846 503.661V501.979L269.113 401.366H290.502L266.102 500.694L297.411 601.529Z" fill="#1D1D1B"/><path d="M386.554 401.366V563.622C386.554 588.893 377.166 601.529 358.389 601.529H338.683C320.084 601.529 310.784 588.805 310.784 563.356V401.366H334.078V564.197C334.078 573.054 337.487 577.483 344.307 577.483H353.74C360.072 577.483 363.216 573.054 363.216 564.197V401.366H386.554Z" fill="#1D1D1B"/><path d="M462.502 498.657C475.314 502.731 481.721 510.348 481.721 521.508V571.549C481.721 591.476 472.864 601.425 455.15 601.396H408.387V401.366H448.242C468.908 401.366 479.241 413.44 479.241 437.59V476.073C479.677 481.077 478.181 486.059 475.06 489.995C471.939 493.931 467.429 496.524 462.457 497.24L462.502 498.657ZM431.503 485.815H442.441C451.298 485.815 455.726 480.988 455.726 471.334V440.114C455.726 430.416 452.272 425.589 445.319 425.589H431.68L431.503 485.815ZM431.503 577.261H449.216C455.372 577.261 458.428 574.383 458.428 568.404V524.121C458.428 514.644 453.822 509.905 444.611 509.905H431.68L431.503 577.261Z" fill="#1D1D1B"/><path d="M523.213 601.529H499.92V435.641C499.92 412.791 509.22 401.366 527.819 401.366H545.311C563.91 401.366 573.21 412.791 573.21 435.641V601.529H549.916V528.195H523.346L523.213 601.529ZM549.784 504.104V437.678C549.784 429.84 546.374 425.943 539.598 425.943H533.266C526.49 425.943 523.08 429.84 523.08 437.678V504.104H549.784Z" fill="#1D1D1B"/><path d="M631.003 425.412V601.352H607.709V425.412H585.567V401.366H653.587V425.412H631.003Z" fill="#1D1D1B"/><path d="M685.161 577.261H724.485V601.529H659.875L658.192 592.052L694.859 425.899H662.089V401.366H714.787L719.614 412.791L685.161 577.261Z" fill="#1D1D1B"/><path d="M761.152 601.529H737.814V401.366H761.152V601.529ZM814.78 601.529H791.487L762.348 503.661V501.979L786.615 401.366H808.004L783.471 500.694L814.78 601.529Z" fill="#1D1D1B"/><path d="M828.153 601.529V401.366H851.535V601.529H828.153Z" fill="#1D1D1B"/><path d="M261.941 367.843C259.566 370.035 256.773 371.725 253.729 372.813C250.686 373.901 247.454 374.364 244.228 374.175H220.58V307.75H244.449C247.676 307.56 250.907 308.024 253.951 309.112C256.994 310.2 259.787 311.89 262.163 314.082C269.602 321.522 268.85 330.644 268.85 340.652C268.85 350.661 269.381 360.314 261.941 367.843ZM253.084 323.559C251.915 322.162 250.429 321.063 248.75 320.355C247.071 319.646 245.248 319.348 243.431 319.485H233.688V362.617H243.431C245.251 362.749 247.077 362.443 248.756 361.727C250.435 361.011 251.919 359.904 253.084 358.499C255.52 355.532 255.874 350.793 255.874 340.785C255.874 330.777 255.343 326.482 252.907 323.559H253.084Z" fill="#1D1D1B"/><path d="M305.737 374.087V369.924C304.205 371.501 302.341 372.717 300.281 373.483C298.22 374.249 296.015 374.546 293.825 374.353C291.572 374.495 289.314 374.176 287.19 373.414C285.065 372.653 283.119 371.465 281.469 369.924C278.781 366.946 277.352 363.041 277.484 359.03C277.484 351.325 282.798 344.992 294.046 344.992H305.471V342.601C305.471 337.287 302.859 334.984 296.615 334.984C294.853 334.803 293.075 335.073 291.448 335.771C289.821 336.468 288.398 337.569 287.315 338.97L279.61 331.441C281.776 329.006 284.495 327.127 287.54 325.964C290.584 324.8 293.864 324.385 297.102 324.755C310.653 324.755 317.738 330.511 317.738 341.848V373.733L305.737 374.087ZM305.471 353.628H295.906C291.478 353.628 289.086 355.665 289.086 359.119C289.086 362.573 291.345 364.699 296.083 364.699C297.444 364.881 298.827 364.77 300.141 364.373C301.455 363.975 302.669 363.301 303.7 362.396C304.396 361.543 304.911 360.557 305.216 359.499C305.52 358.442 305.607 357.333 305.471 356.24V353.628Z" fill="#1D1D1B"/><path d="M346.7 374.662C342.938 375.097 339.125 374.713 335.525 373.536C331.925 372.359 328.622 370.416 325.843 367.843L333.725 359.96C335.48 361.518 337.527 362.712 339.746 363.472C341.966 364.232 344.315 364.544 346.656 364.389C351.085 364.389 355.203 362.971 355.203 359.34C355.203 356.949 353.919 355.266 350.11 354.912L342.494 354.159C333.637 353.318 328.367 349.509 328.367 340.564C328.367 330.511 337.224 325.153 347.055 325.153C353.715 324.548 360.347 326.584 365.521 330.821L358.081 338.35C354.824 335.884 350.773 334.702 346.7 335.028C341.874 335.028 339.836 337.287 339.836 339.457C339.836 341.627 340.589 343.265 344.841 343.885L352.502 344.638C362.067 345.568 366.894 350.661 366.894 358.853C367.027 369.525 357.904 374.662 346.7 374.662Z" fill="#1D1D1B"/><path d="M219.604 691.115V681.815L244.846 641.739H220.712V631.332H258.574V640.587L233.2 680.797H258.574V691.115H219.604Z" fill="#1D1D1B"/><path d="M292.939 691.115V687.085C291.538 688.524 289.855 689.66 287.997 690.422C286.138 691.184 284.142 691.555 282.134 691.514C280.254 691.587 278.379 691.28 276.621 690.611C274.863 689.941 273.259 688.923 271.904 687.617C270.339 685.967 269.136 684.007 268.373 681.864C267.61 679.72 267.305 677.441 267.476 675.173V647.186H278.281V673.756C278.203 674.748 278.332 675.746 278.658 676.687C278.984 677.627 279.501 678.49 280.177 679.221C280.853 679.952 281.673 680.535 282.585 680.934C283.497 681.333 284.482 681.539 285.477 681.539C286.473 681.539 287.458 681.333 288.37 680.934C289.282 680.535 290.102 679.952 290.777 679.221C291.453 678.49 291.971 677.627 292.297 676.687C292.623 675.746 292.751 674.748 292.673 673.756V647.186H303.523V691.115H292.939Z" fill="#1D1D1B"/><path d="M340.544 691.115V664.545C340.621 663.576 340.497 662.602 340.179 661.684C339.862 660.766 339.357 659.923 338.698 659.209C338.038 658.495 337.239 657.926 336.348 657.536C335.458 657.147 334.497 656.946 333.525 656.946C332.554 656.946 331.593 657.147 330.702 657.536C329.812 657.926 329.012 658.495 328.353 659.209C327.694 659.923 327.189 660.766 326.872 661.684C326.554 662.602 326.429 663.576 326.506 664.545V691.115H315.701V631.332H326.551V651.26C327.885 649.842 329.499 648.717 331.29 647.955C333.081 647.193 335.011 646.81 336.957 646.831C346.434 646.831 351.438 653.562 351.438 662.818V691.115H340.544Z" fill="#1D1D1B"/><path d="M385.271 691.115V687.351C383.941 688.845 382.29 690.02 380.442 690.786C378.594 691.553 376.596 691.893 374.599 691.78C372.585 691.928 370.561 691.658 368.656 690.988C366.751 690.317 365.005 689.26 363.528 687.883C361.084 685.12 359.813 681.514 359.985 677.83C359.985 670.878 364.724 665.121 374.82 665.121H385.05V662.951C385.05 658.168 382.703 656.042 376.99 656.042C375.408 655.885 373.812 656.137 372.354 656.773C370.897 657.408 369.626 658.407 368.665 659.674L361.757 652.854C363.685 650.678 366.106 648.996 368.818 647.948C371.53 646.9 374.454 646.517 377.344 646.831C389.478 646.831 395.811 652.057 395.811 662.331V691.115H385.271ZM385.006 672.605H376.415C372.518 672.605 370.348 674.465 370.348 677.609C370.348 680.753 372.34 682.613 376.592 682.613C377.811 682.786 379.054 682.69 380.233 682.33C381.411 681.971 382.496 681.357 383.411 680.531C384.045 679.769 384.514 678.883 384.788 677.931C385.063 676.978 385.137 675.979 385.006 674.996V672.605Z" fill="#1D1D1B"/><path d="M432.433 691.115V687.085C431.032 688.524 429.349 689.66 427.491 690.422C425.632 691.184 423.636 691.555 421.628 691.514C419.748 691.587 417.873 691.28 416.115 690.611C414.357 689.941 412.753 688.923 411.398 687.617C409.833 685.967 408.63 684.007 407.867 681.864C407.104 679.72 406.799 677.441 406.97 675.173V647.186H417.82V673.756C417.677 674.764 417.757 675.792 418.053 676.766C418.349 677.74 418.854 678.639 419.533 679.398C420.212 680.157 421.048 680.758 421.984 681.161C422.919 681.563 423.931 681.756 424.949 681.727C425.974 681.761 426.994 681.572 427.938 681.173C428.883 680.774 429.73 680.175 430.42 679.417C431.111 678.659 431.628 677.761 431.938 676.783C432.247 675.806 432.341 674.773 432.212 673.756V647.186H443.017V691.115H432.433Z" fill="#1D1D1B"/><path d="M469.412 691.735C466.059 692.078 462.671 691.69 459.483 690.597C456.295 689.503 453.382 687.731 450.945 685.402L457.986 678.273C459.548 679.698 461.379 680.797 463.372 681.504C465.364 682.211 467.478 682.513 469.589 682.391C473.309 682.391 477.25 681.107 477.25 677.963C477.25 675.793 476.054 674.287 472.822 673.933L466.002 673.269C458.164 672.516 453.337 669.062 453.337 661.002C453.337 651.879 461.263 647.008 470.076 647.008C476.056 646.487 482.002 648.332 486.638 652.145L479.996 658.965C477.108 656.804 473.541 655.751 469.943 655.998C465.515 655.998 463.743 658.035 463.743 660.426C463.743 662.818 464.408 663.88 468.172 664.235L475.124 664.545C483.671 665.386 488.011 670.036 488.011 677.431C487.79 687.085 479.553 691.735 469.412 691.735Z" fill="#1D1D1B"/><path d="M505.369 672.693C505.228 673.986 505.375 675.294 505.797 676.524C506.219 677.754 506.907 678.875 507.811 679.81C508.716 680.744 509.815 681.467 511.031 681.929C512.246 682.39 513.549 682.578 514.845 682.48C516.69 682.594 518.537 682.281 520.241 681.567C521.946 680.853 523.464 679.756 524.677 678.361L531.23 684.827C529.186 687.149 526.641 688.977 523.787 690.174C520.934 691.37 517.846 691.904 514.757 691.735C504.527 691.735 494.696 686.997 494.696 669.239C494.696 654.979 502.357 646.875 513.606 646.875C525.695 646.875 532.515 655.732 532.515 667.822V672.693H505.369ZM520.868 660.515C520.21 659.147 519.179 657.994 517.895 657.186C516.61 656.379 515.123 655.95 513.606 655.95C512.088 655.95 510.601 656.379 509.317 657.186C508.032 657.994 507.001 659.147 506.343 660.515C505.714 662.001 505.383 663.596 505.369 665.209H521.842C521.805 663.598 521.475 662.008 520.868 660.515Z" fill="#1D1D1B"/><path d="M584.016 691.115V687.351C582.69 688.839 581.046 690.01 579.206 690.776C577.366 691.543 575.378 691.886 573.387 691.779C571.373 691.928 569.35 691.658 567.445 690.987C565.54 690.317 563.794 689.26 562.316 687.882C559.894 685.193 558.609 681.669 558.729 678.051C558.729 671.099 563.468 665.342 573.52 665.342H583.75V663.172C583.75 658.389 581.447 656.264 575.69 656.264C574.108 656.107 572.512 656.358 571.054 656.994C569.596 657.63 568.326 658.628 567.365 659.895L560.457 653.075C562.367 650.853 564.786 649.125 567.507 648.037C570.229 646.95 573.173 646.537 576.089 646.831C588.267 646.831 594.599 652.057 594.599 662.331V691.115H584.016ZM583.75 672.605H575.203C571.262 672.605 569.136 674.464 569.136 677.609C569.136 680.753 571.129 682.613 575.38 682.613C576.6 682.777 577.841 682.676 579.018 682.317C580.195 681.958 581.28 681.349 582.2 680.531C582.817 679.76 583.272 678.872 583.538 677.921C583.805 676.97 583.877 675.975 583.75 674.996V672.605Z" fill="#1D1D1B"/><path d="M618.469 691.115C616.789 691.232 615.104 690.988 613.526 690.401C611.947 689.814 610.513 688.896 609.318 687.71C608.123 686.523 607.195 685.095 606.597 683.521C605.998 681.947 605.743 680.263 605.848 678.583V631.332H616.831V677.83C616.831 680.443 617.893 681.771 620.639 681.771H624.802V691.115H618.469Z" fill="#1D1D1B"/><path d="M647.52 691.735C644.167 692.078 640.78 691.69 637.591 690.597C634.403 689.503 631.49 687.731 629.054 685.403L636.139 678.273C637.719 679.69 639.569 680.773 641.578 681.458C643.587 682.143 645.713 682.415 647.83 682.258C651.594 682.258 655.491 680.974 655.491 677.83C655.491 675.66 654.34 674.154 651.063 673.8L644.199 673.136C636.405 672.383 631.578 668.929 631.578 660.869C631.578 651.747 639.46 646.875 648.273 646.875C654.268 646.348 660.23 648.192 664.879 652.012L658.193 658.832C655.25 656.531 651.555 655.41 647.83 655.688C643.402 655.688 641.675 657.725 641.675 660.116C641.675 662.508 642.339 663.571 646.103 663.925L652.923 664.589C661.514 665.43 665.854 670.08 665.854 677.476C665.942 687.085 657.75 691.735 647.52 691.735Z" fill="#1D1D1B"/><path d="M731.66 684.915C727.338 689.24 721.488 691.692 715.374 691.742C709.259 691.791 703.371 689.435 698.979 685.181C693 679.114 693.133 671.63 693.133 661.268C693.133 650.905 693.133 643.554 698.979 637.399C701.936 634.455 705.652 632.388 709.713 631.428C713.774 630.467 718.022 630.651 721.985 631.958C725.948 633.266 729.472 635.645 732.165 638.833C734.857 642.022 736.614 645.894 737.24 650.02H725.593C725.292 647.463 724.022 645.12 722.045 643.472C720.068 641.824 717.534 640.998 714.965 641.163C713.567 641.118 712.177 641.38 710.891 641.931C709.606 642.482 708.457 643.308 707.525 644.351C705.311 646.875 704.691 649.665 704.691 661.179C704.691 672.693 705.311 675.571 707.525 678.095C708.463 679.125 709.616 679.936 710.901 680.471C712.186 681.007 713.574 681.254 714.965 681.195C716.483 681.239 717.994 680.961 719.398 680.381C720.802 679.801 722.068 678.932 723.113 677.83C724.964 675.598 725.912 672.754 725.77 669.859V667.556H714.876V657.813H737.24V666.67C737.328 675.306 735.823 680.531 731.66 684.915Z" fill="#1D1D1B"/><path d="M770.452 691.115V687.351C769.126 688.839 767.483 690.01 765.643 690.776C763.803 691.543 761.814 691.886 759.824 691.779C757.81 691.928 755.787 691.658 753.882 690.987C751.976 690.317 750.23 689.26 748.753 687.882C746.308 685.123 745.051 681.511 745.255 677.83C745.255 670.877 749.993 665.121 760.09 665.121H770.319V662.951C770.319 658.168 767.972 656.042 762.215 656.042C760.639 655.88 759.047 656.129 757.596 656.766C756.145 657.402 754.883 658.404 753.934 659.674L746.982 652.854C748.915 650.657 751.349 648.958 754.078 647.902C756.807 646.846 759.75 646.464 762.658 646.787C774.792 646.787 781.125 652.013 781.125 662.286V691.115H770.452ZM770.231 672.605H761.64C757.743 672.605 755.573 674.464 755.573 677.609C755.573 680.753 757.566 682.613 761.817 682.613C763.037 682.786 764.28 682.69 765.458 682.33C766.637 681.97 767.722 681.356 768.637 680.531C769.261 679.764 769.725 678.877 769.999 677.926C770.272 676.975 770.352 675.978 770.231 674.996V672.605Z" fill="#1D1D1B"/><path d="M806.942 691.735C803.583 692.076 800.189 691.687 796.994 690.594C793.799 689.501 790.878 687.73 788.432 685.403L795.517 678.273C797.102 679.696 798.96 680.782 800.977 681.467C802.994 682.152 805.128 682.421 807.252 682.258C811.016 682.258 814.913 680.974 814.913 677.83C814.913 675.66 813.762 674.154 810.485 673.8L803.665 673.136C795.827 672.383 791 668.929 791 660.869C791 651.747 798.927 646.876 807.739 646.876C813.72 646.355 819.666 648.199 824.302 652.013L817.659 658.832C814.701 656.529 810.991 655.408 807.252 655.688C802.824 655.688 801.097 657.725 801.097 660.116C801.097 662.508 801.761 663.571 805.525 663.925L812.345 664.589C820.892 665.431 825.232 670.08 825.232 677.476C825.32 687.085 817.172 691.735 806.942 691.735Z" fill="#1D1D1B"/><path d="M847.107 691.115C845.43 691.225 843.75 690.977 842.177 690.387C840.604 689.797 839.175 688.878 837.985 687.692C836.795 686.506 835.871 685.081 835.276 683.51C834.68 681.939 834.426 680.259 834.53 678.583V656.884H830.102V648.558H834.53V635.583H845.335V648.558H852.996V656.884H845.335V677.83C845.335 680.354 846.487 681.771 849.099 681.771H852.996V691.115H847.107Z" fill="#1D1D1B"/><path d="M200.872 793.234C200.872 793.234 238.159 812.143 271.195 795.271C314.549 773.129 378.628 749.038 445.496 784.067C379.07 786.901 368.177 810.637 382.436 827.731C398.6 847.083 431.148 828.528 452.405 815.066C477.115 799.522 581.182 738.012 639.814 801.161C561.919 809.619 543.718 825.251 536.013 850.271C528.307 875.292 544.161 889.906 582.732 878.17C616.122 868.029 687.596 796.732 757.388 844.249C723.688 850.404 699.819 867.719 706.86 890.57C713.458 912.136 790.999 884.724 791.619 883.042C792.239 881.359 677.588 973.336 531.319 966.959C439.562 962.93 387.972 943.445 330.27 909.39C234.749 853.283 200.872 793.101 200.872 793.101" fill="#1D1D1B"/><path d="M619.754 384.582C606.232 384.63 592.821 382.152 580.209 377.275C580.209 377.275 555.41 371.208 554.524 336.268C553.993 314.791 561.831 295.306 558.952 283.925C555.978 274.857 551.934 266.175 546.907 258.063C552.246 258.015 557.527 259.165 562.362 261.428C569.259 265.182 575.388 270.2 580.43 276.219H572.016C574.762 282.198 575.027 288.707 573.965 305.048C572.813 323.382 568.164 340.475 577.507 350.838C584.549 358.543 597.302 360.934 620.109 360.491" fill="#1D1D1B"/><path d="M619.886 229.234C619.886 229.234 610.808 254.742 605.627 275.511C611.118 300.31 610.631 337.73 610.852 346.099C611.207 360.359 610.852 361.776 608.107 416.289H631.754C628.699 356.86 629.23 345.967 629.23 345.878C629.23 332.593 630.072 292.427 634.146 275.422C630.615 259.675 625.847 244.231 619.886 229.234Z" fill="#1D1D1B"/><path d="M619.843 384.494C633.369 384.586 646.789 382.106 659.389 377.187C659.389 377.187 684.188 371.12 685.074 336.224C685.605 314.702 677.767 295.217 680.645 283.881C683.613 274.796 687.657 266.099 692.691 257.975C687.352 257.926 682.071 259.077 677.235 261.34C670.338 265.112 664.21 270.144 659.168 276.175H667.582C664.836 282.109 664.57 288.663 665.589 305.004C666.784 323.293 671.434 340.431 662.09 350.794C655.049 358.455 642.295 360.89 619.489 360.403" fill="#1D1D1B"/><path d="M890.904 203.992C894.668 200.272 897.059 197.084 893.649 193.63C890.24 190.176 887.007 192.523 883.243 196.198C879.479 199.874 877.043 203.151 880.453 206.605C883.863 210.059 886.963 207.446 890.904 203.992Z" fill="#1D1D1B"/><path d="M901.753 230.563C902.238 231.335 902.886 231.992 903.65 232.489C904.415 232.986 905.279 233.311 906.181 233.441C906.917 233.449 907.645 233.299 908.318 233.001C908.99 232.703 909.59 232.264 910.078 231.714L911.407 230.607L907.289 225.736C905.384 223.477 903.303 223.123 901.576 224.629C899.849 226.134 899.716 228.216 901.753 230.563Z" fill="#1D1D1B"/><path d="M740.826 103.91C739.896 105.903 740.561 107.896 743.439 109.269C744.207 109.777 745.076 110.111 745.986 110.249C746.896 110.386 747.825 110.324 748.709 110.066C749.816 109.712 750.657 108.693 751.499 106.877L752.252 105.328L746.495 102.582C743.66 101.298 741.623 101.829 740.826 103.91Z" fill="#1D1D1B"/><path d="M539.956 19.8156C436.921 19.8156 336.199 50.3691 250.528 107.612C164.858 164.856 98.0855 246.218 58.6556 341.41C19.2257 436.602 8.90906 541.349 29.0103 642.405C49.1114 743.46 98.7277 836.286 171.585 909.143C244.442 981.999 337.267 1031.62 438.323 1051.72C539.378 1071.82 644.125 1061.5 739.317 1022.07C834.509 982.642 915.871 915.869 973.115 830.199C1030.36 744.528 1060.91 643.807 1060.91 540.771C1060.91 402.605 1006.03 270.098 908.327 172.4C810.629 74.7018 678.122 19.8156 539.956 19.8156ZM1008.17 357.214C1008.82 358.539 1009.15 359.993 1009.15 361.466C1009.15 362.939 1008.82 364.393 1008.17 365.717L1021.85 360.447L1024.78 367.975L983.548 383.829L980.581 376.699L983.415 375.592C981.987 375.096 980.695 374.273 979.641 373.189C978.588 372.105 977.803 370.79 977.348 369.348C976.266 366.633 976.266 363.606 977.348 360.89C979.208 356.727 984.389 354.69 988.906 352.963C993.423 351.236 998.604 349.288 1002.77 351.148C1005.25 352.436 1007.18 354.596 1008.17 357.214ZM996.479 403.757C996.777 405.101 997.384 406.358 998.253 407.426C999.122 408.495 1000.23 409.346 1001.48 409.912L998.338 415.979C996.254 414.998 994.416 413.561 992.96 411.776C991.504 409.99 990.466 407.901 989.925 405.661C987.71 398.354 988.95 390.383 1001.48 386.619C1011.54 383.563 1018.89 387.328 1021.28 395.476C1023.67 403.624 1019.06 410.842 1010.56 413.189L1007.15 414.252L1001.31 394.9C1000.36 395.093 999.477 395.488 998.704 396.059C997.932 396.631 997.294 397.363 996.834 398.207C996.374 399.05 996.104 399.984 996.043 400.943C995.982 401.901 996.13 402.862 996.479 403.757ZM539.159 986.444C451.022 986.444 364.864 960.309 291.581 911.342C218.297 862.376 161.18 792.778 127.452 711.35C93.7229 629.922 84.898 540.321 102.093 453.878C119.287 367.434 161.729 288.031 224.052 225.708C286.374 163.386 365.777 120.944 452.221 103.749C538.664 86.5547 628.266 95.3796 709.694 129.108C791.122 162.837 860.719 219.954 909.686 293.237C958.652 366.521 984.788 452.678 984.788 540.815C984.788 599.336 973.261 657.284 950.866 711.35C928.471 765.416 895.646 814.542 854.266 855.923C812.885 897.303 763.76 930.128 709.694 952.523C655.627 974.918 597.68 986.444 539.159 986.444ZM922.392 792.968C919.956 796.688 917.476 800.363 914.908 803.995L910.479 800.983C913.003 797.352 915.439 793.721 917.875 790.045L922.392 792.968ZM909.771 811.257C907.158 814.844 904.501 818.387 901.8 821.93L897.371 818.653C900.028 815.199 902.685 811.7 905.254 808.113L909.771 811.257ZM896.485 828.971C893.696 832.469 890.906 835.879 888.027 839.245L883.953 835.79C886.787 832.469 889.621 829.104 892.367 825.65L896.485 828.971ZM882.182 845.976C879.259 849.297 876.248 852.574 873.325 855.807L869.472 852.176C872.484 848.943 875.451 845.71 878.329 842.433L882.182 845.976ZM867.081 862.228C863.981 865.372 860.837 868.516 857.649 871.616L853.929 867.808C857.117 864.752 860.217 861.652 863.273 858.508L867.081 862.228ZM851.183 877.727C847.965 880.68 844.688 883.632 841.352 886.584L837.809 882.599C841.131 879.72 844.363 876.753 847.596 873.742L851.183 877.727ZM834.621 892.43C831.211 895.308 827.801 898.142 824.347 900.888L821.026 896.725C824.436 893.98 827.845 891.234 831.167 888.4L834.621 892.43ZM817.35 906.335C813.807 909.036 810.265 911.693 806.678 914.306L803.534 909.877C807.121 907.309 810.619 904.696 814.117 902.039L817.35 906.335ZM799.415 919.399C795.784 921.923 792.108 924.403 788.389 926.794L785.51 922.366C789.186 919.974 792.817 917.539 796.404 915.014L799.415 919.399ZM780.683 931.267C776.919 933.614 773.155 935.695 769.302 938.131L766.645 933.702C770.409 931.488 774.173 929.274 777.893 926.927L780.683 931.267ZM761.641 942.515C757.744 944.685 753.847 946.943 749.95 948.847L747.47 944.109C751.367 942.072 755.22 940.035 759.028 937.865L761.641 942.515ZM742.023 952.833C738.082 954.826 734.097 956.73 730.067 958.59L727.852 953.763C731.794 951.903 735.779 950.043 739.676 948.094L742.023 952.833ZM722.007 962.177C717.933 963.948 713.859 965.675 709.74 967.314L707.748 962.398C711.822 960.76 715.852 959.077 719.881 957.306L722.007 962.177ZM701.459 970.546C697.341 972.141 693.178 973.646 688.971 974.975L687.244 969.971C691.362 968.509 695.481 967.048 699.599 965.542L701.459 970.546ZM680.557 977.942C676.129 979.315 672.099 980.643 667.848 981.883L666.342 976.79C670.549 975.55 674.756 974.266 678.919 972.893L680.557 977.942ZM659.301 984.319L646.414 987.64L645.13 982.459C649.559 981.44 653.677 980.333 657.884 979.182L659.301 984.319ZM637.735 989.633C633.306 990.563 628.878 991.493 624.715 992.29L623.697 987.109C628.037 986.282 632.332 985.396 636.583 984.452L637.735 989.633ZM615.947 994.061C611.519 994.814 607.09 995.478 602.662 996.098L601.953 990.828C606.382 990.208 610.81 989.544 614.929 988.836L615.947 994.061ZM593.805 997.25C589.377 997.781 584.948 998.268 580.52 998.667L580.033 993.353C584.461 992.954 588.89 992.511 593.318 991.98L593.805 997.25ZM571.663 999.375L558.378 1000.17L558.112 994.858C562.541 994.637 566.969 994.415 571.397 994.061L571.663 999.375ZM549.521 1000.44C545.757 1000.44 541.993 1000.44 538.185 1000.44H536.192V995.124H538.14C541.904 995.124 545.624 995.124 549.344 995.124L549.521 1000.44ZM527.379 995.124V1000.44C522.951 1000.44 518.523 1000.17 514.094 999.951L514.36 994.637C518.965 994.681 523.349 994.858 527.734 994.947L527.379 995.124ZM505.503 994.105L505.104 999.419C500.676 999.109 496.248 998.711 491.819 998.268L492.395 992.998C497.266 993.264 501.695 993.618 505.857 993.928L505.503 994.105ZM483.671 992.024L483.007 997.294C478.578 996.762 474.15 996.187 469.722 995.523L470.519 990.253C475.124 990.74 479.553 991.316 483.981 991.847L483.671 992.024ZM461.928 988.88L461.042 994.105C456.614 993.397 452.185 992.556 447.757 991.714L448.775 986.489C453.647 987.153 457.942 987.817 462.282 988.703L461.928 988.88ZM440.406 984.717L439.697 989.721C435.269 988.747 430.84 987.729 426.766 986.666L428.051 981.485C432.213 982.547 436.464 983.389 440.76 984.54L440.406 984.717ZM419.105 979.447L417.732 984.584C413.304 983.433 409.141 982.193 404.934 980.909L406.484 975.816C411.001 976.923 415.208 978.119 419.459 979.27L419.105 979.447ZM398.07 973.203L396.432 978.252C392.003 976.879 387.974 975.418 383.767 973.823L385.538 968.819C390.055 970.104 394.218 971.653 398.425 973.026L398.07 973.203ZM377.7 965.675L375.796 970.635C371.633 969.041 367.514 967.402 363.396 965.675L365.433 960.804C369.463 962.531 373.537 964.125 377.7 965.675ZM357.329 957.35L355.204 962.221C351.129 960.45 347.055 958.59 343.07 956.686L345.328 951.903C349.27 953.807 353.255 955.623 357.285 957.394L357.329 957.35ZM337.401 948.05L335.054 952.833C331.069 950.84 327.083 948.803 323.186 946.722L325.666 942.028C329.519 944.153 333.416 946.146 337.357 947.962L337.401 948.05ZM317.961 937.821L315.392 942.47C311.495 940.3 307.643 938.042 303.834 935.784L306.536 931.355C310.255 933.525 314.064 935.695 317.916 937.865L317.961 937.821ZM299.052 926.661L296.217 931.089C292.453 928.742 288.733 926.351 285.014 923.871L287.981 919.443C291.568 921.967 295.287 924.358 299.007 926.705L299.052 926.661ZM280.718 914.572L277.662 919C274.031 916.432 270.4 913.863 266.813 911.25L270.001 906.822C273.455 909.567 277.042 912.092 280.674 914.616L280.718 914.572ZM263.004 901.641L259.772 905.848C256.229 903.146 252.775 900.401 249.321 897.567L252.686 893.448C256.008 896.282 259.417 898.984 262.916 901.685L263.004 901.641ZM245.911 887.868L242.501 891.898C239.091 889.064 235.77 886.141 232.449 883.041L235.991 879.056C239.18 882.2 242.501 885.078 245.822 887.913L245.911 887.868ZM229.526 873.299L225.895 877.152C222.662 874.14 219.429 871.085 216.285 867.941L220.005 864.176C223.06 867.276 226.205 870.332 229.437 873.343L229.526 873.299ZM213.849 857.977L210.041 861.697C206.941 858.508 203.885 855.275 200.874 852.043L204.815 848.411C207.738 851.659 210.749 854.847 213.849 857.977ZM198.926 841.902L194.94 845.444C192.017 842.123 189.095 838.758 186.083 835.348L190.157 831.938C193.08 835.303 196.136 838.625 198.837 841.902H198.926ZM184.799 825.162L180.636 828.484C177.891 825.03 175.145 821.531 172.488 817.988L176.917 814.8C179.367 818.313 181.965 821.767 184.711 825.162H184.799ZM171.514 807.759L167.086 810.859C164.473 807.272 161.904 803.64 159.424 800.009L163.853 796.998C166.333 800.629 168.857 804.216 171.425 807.759H171.514ZM142.995 318.422C140.825 322.23 138.567 326.083 136.663 329.98L131.968 327.544C134.05 323.559 136.397 319.662 138.345 315.809L142.995 318.422ZM142.774 308.104C145.047 304.236 147.35 300.428 149.682 296.678L154.11 299.513C151.763 303.232 149.682 306.997 147.246 310.761L142.774 308.104ZM132.677 337.818C130.728 341.759 128.824 345.701 126.964 349.686L122.137 347.472C123.997 343.442 125.946 339.412 127.939 335.427L132.677 337.818ZM123.333 357.702C121.562 361.731 119.835 365.806 118.196 369.88L113.192 367.843C114.831 363.68 116.602 359.606 118.373 355.532L123.333 357.702ZM114.963 378.072C113.369 382.146 111.864 386.309 110.535 390.472L105.531 388.7C106.992 384.493 108.542 380.331 109.959 376.168L114.963 378.072ZM107.568 398.841C106.195 403.004 104.911 407.211 103.671 411.418L98.7112 409.868C99.9512 405.44 101.28 401.366 102.653 397.159L107.568 398.841ZM101.235 419.832C100.084 424.26 98.9769 428.334 97.9584 432.586L92.7772 431.301C93.84 426.873 94.9471 422.71 96.1428 418.415L101.235 419.832ZM95.9214 441.132C94.829 445.413 93.9138 449.694 93.1758 453.975L87.9503 452.956C88.7916 448.528 89.6773 444.099 90.6516 439.937L95.9214 441.132ZM91.493 462.654C90.7401 467.083 90.0759 471.29 89.4116 475.63L84.1861 474.877C84.8061 470.448 85.5146 466.02 86.2675 461.592L91.493 462.654ZM88.2602 484.354C87.7288 488.782 87.2417 493.21 86.8432 497.639L81.5291 497.152C81.9719 492.723 82.4591 488.295 82.9905 483.866L88.2602 484.354ZM86.0903 506.185C85.7803 510.614 85.5146 515.042 85.2932 519.471H79.9792C80.2006 515.042 80.4663 510.614 80.7763 506.185H86.0903ZM84.9832 528.062C84.9832 532.49 84.9832 536.609 84.9832 540.86L79.6692 541.258V540.86C79.6692 536.431 79.6692 532.003 79.6692 527.929L84.9832 528.062ZM84.9832 550.204C84.9832 554.632 84.9832 559.06 85.4261 563.489L80.112 563.71C79.8906 559.282 79.7577 554.854 79.6692 550.425L84.9832 550.204ZM85.9132 572.346C86.2232 576.774 86.5775 581.202 86.976 585.631L81.7062 586.118C81.2634 581.69 80.9091 577.261 80.6434 572.833L85.9132 572.346ZM87.906 594.178C88.4374 598.606 89.0131 603.034 89.633 607.463L84.3633 608.216C83.7433 603.787 83.1676 599.359 82.6362 594.93L87.906 594.178ZM90.9616 615.877C91.6701 620.305 92.4672 624.733 93.3086 628.852L88.0831 629.87C87.2417 625.442 86.4446 621.014 85.7361 616.585L90.9616 615.877ZM95.08 637.443C96.0099 641.871 96.9842 645.99 98.0027 650.285L92.8658 651.525C91.803 647.097 90.8287 642.668 89.8545 638.55L95.08 637.443ZM100.217 658.744C101.324 663.172 102.52 667.246 103.76 671.409L98.7112 672.516C97.4713 668.087 96.2756 663.969 95.1242 659.673L100.217 658.744ZM106.372 679.823C107.701 683.985 109.118 688.148 110.535 692.311L105.531 694.038C104.07 689.875 102.653 685.668 101.324 681.417L106.372 679.823ZM113.546 699.972C115.096 704.09 116.691 708.164 118.329 712.238L113.413 714.231C111.731 710.113 110.136 705.994 108.587 701.832L113.546 699.972ZM121.695 720.298C123.422 724.328 125.237 728.313 127.053 732.255L122.27 734.513C120.41 730.483 118.595 726.454 116.823 722.379L121.695 720.298ZM130.817 740.137C132.766 744.079 134.758 748.02 136.795 751.873L132.057 754.352C130.02 750.411 128.027 746.47 126.079 742.484L130.817 740.137ZM140.914 759.578C143.039 763.445 145.209 767.254 147.424 771.003L142.995 773.704C140.781 769.852 138.567 765.999 136.441 762.146L140.914 759.578ZM151.852 778.62C154.155 782.34 156.502 786.06 158.893 789.735L154.465 792.614C152.073 788.938 149.682 785.174 147.335 781.41L151.852 778.62ZM154.332 289.194C156.782 285.475 159.262 281.799 161.772 278.168L166.2 281.179C163.676 284.81 161.196 288.442 158.804 292.117L154.332 289.194ZM166.908 270.905C169.521 267.318 172.178 263.776 174.924 260.233L179.352 263.466C176.651 266.964 174.038 270.462 171.47 274.049L166.908 270.905ZM180.194 253.192C182.939 249.738 185.773 246.328 188.652 242.962L192.726 246.372C189.847 249.738 187.058 253.103 184.312 256.557L180.194 253.192ZM194.497 236.231C197.42 232.91 200.431 229.633 203.354 226.4L207.251 230.031C204.24 233.22 201.273 236.452 198.394 239.774L194.497 236.231ZM209.598 219.979C212.698 216.79 215.798 213.646 218.986 210.546L222.706 214.355C219.547 217.307 216.447 220.407 213.407 223.654L209.598 219.979ZM225.452 204.435C228.684 201.424 231.961 198.457 235.283 195.578L238.825 199.564C235.504 202.487 232.271 205.409 229.039 208.421L225.452 204.435ZM242.014 189.689C245.379 186.854 248.834 184.02 252.288 181.275L255.609 185.393C252.155 188.139 248.789 190.929 245.424 193.763L242.014 189.689ZM259.285 175.783C262.783 173.082 266.326 170.425 269.957 167.857L273.057 172.285C269.514 174.853 265.972 177.466 262.517 180.123L259.285 175.783ZM276.998 162.498C280.629 159.959 284.305 157.479 288.025 155.059L290.948 159.487C287.272 161.878 283.641 164.314 280.009 166.838L276.998 162.498ZM295.509 150.32C299.273 147.973 303.037 145.67 306.89 143.456L309.547 147.885C305.783 150.099 302.019 152.313 298.299 154.704L295.509 150.32ZM314.551 139.028C318.404 136.858 322.301 134.599 326.242 132.739L329.209 137.566C325.312 139.603 321.459 141.685 317.651 143.81L314.551 139.028ZM334.124 128.71C338.11 126.717 342.096 124.813 346.125 122.953L348.34 127.78C344.354 129.64 340.413 131.5 336.516 133.448L334.124 128.71ZM354.185 119.321C358.215 117.55 362.289 115.823 366.407 114.185L368.843 119.366C364.769 121.004 360.739 122.731 356.753 124.458L354.185 119.321ZM374.688 110.952C378.807 109.358 383.014 107.852 387.177 106.523L388.948 111.527C384.785 112.989 380.667 114.45 376.593 115.956L374.688 110.952ZM395.59 103.512C399.797 102.139 404.049 100.855 408.3 99.5708L409.806 104.663C405.377 105.903 401.436 107.232 397.273 108.605L395.59 103.512ZM417.555 97.4452C421.984 96.2496 426.146 95.1425 430.486 94.0796L431.726 99.2609C427.298 100.279 423.179 101.386 418.972 102.538L417.555 97.4452ZM439.122 92.0869C443.55 91.1569 447.978 90.2269 452.141 89.3855L452.982 94.611C448.643 95.4377 444.347 96.3234 440.096 97.2681L439.122 92.0869ZM460.909 87.6585C465.338 86.9056 469.766 86.1971 474.194 85.5771L474.903 90.8469C470.474 91.4669 466.046 92.1311 461.928 92.884L460.909 87.6585ZM483.051 84.4257C487.48 83.8943 491.908 83.4072 496.336 83.0087L496.823 88.3227C492.395 88.7213 487.967 89.1641 483.538 89.6955L483.051 84.4257ZM549.477 86.5071V81.193C553.905 81.193 558.334 81.4587 562.762 81.6801L562.496 86.9942C557.714 86.9499 553.33 86.7728 548.946 86.6842L549.477 86.5071ZM571.353 87.5256L571.752 82.2116C576.18 82.5215 580.609 82.8758 585.037 83.3187L584.55 88.6327C579.59 88.367 575.206 88.0127 570.822 87.7028L571.353 87.5256ZM593.229 89.5627L593.849 84.2929C598.278 84.8243 602.706 85.4 607.135 86.0643L606.337 91.334C601.378 90.8469 597.038 90.2712 592.698 89.7398L593.229 89.5627ZM614.929 92.7068L615.814 87.4371C620.243 88.1899 624.671 88.987 628.878 89.8727L627.859 95.0539C623.032 94.3896 618.737 93.5925 614.397 92.884L614.929 92.7068ZM636.45 96.8695L637.602 91.6883C642.03 92.6183 646.459 93.6368 650.533 94.6996L649.249 99.8808C644.466 98.9951 640.215 97.9766 635.919 97.0467L636.45 96.8695ZM657.22 102.139L658.592 97.0024C663.021 98.1538 667.184 99.3937 671.435 100.678L669.973 105.903C665.545 104.619 661.471 103.424 657.22 102.139ZM678.299 108.383L679.937 103.335C684.144 104.708 688.396 106.125 692.558 107.763L690.787 112.767C686.624 111.321 682.461 109.904 678.299 108.516V108.383ZM719.438 124.281L721.52 119.41C725.638 121.181 729.668 123.041 733.698 124.946L731.439 129.728C727.542 127.691 723.468 125.875 719.438 124.281ZM739.366 133.581L741.713 128.71C745.699 130.702 749.684 132.695 753.581 134.821L751.102 139.515C747.205 137.566 743.308 135.352 739.366 133.404V133.581ZM758.807 143.766L761.375 139.338C765.272 141.493 769.125 143.707 772.933 145.98L770.232 150.409C766.468 147.929 762.66 145.759 758.807 143.589V143.766ZM777.716 154.926L780.55 150.497C784.314 152.844 788.034 155.236 791.754 157.671L788.831 162.1C785.111 159.708 781.48 157.096 777.716 154.749V154.926ZM796.094 167.015L799.105 162.587C802.781 165.111 806.368 167.679 809.955 170.337L806.811 174.765C803.268 171.886 799.681 169.318 796.094 166.838V167.015ZM813.807 179.902L817.04 175.473C820.539 178.175 824.037 180.92 827.491 183.755L824.126 187.873C820.76 185.127 817.306 182.426 813.852 179.725L813.807 179.902ZM830.901 193.674L834.311 189.644C837.721 192.478 841.042 195.401 844.363 198.501L840.821 202.442C837.588 199.21 834.267 196.331 830.945 193.497L830.901 193.674ZM847.286 208.244L850.917 204.347C854.15 207.402 857.383 210.458 860.527 213.558L856.807 217.366C853.707 214.089 850.563 211.078 847.33 208.066L847.286 208.244ZM863.007 223.566L866.815 219.846C869.871 223.034 872.926 226.267 875.938 229.544L872.041 233.131C869.118 229.795 866.122 226.548 863.051 223.389L863.007 223.566ZM878.108 239.419L882.093 235.877C885.016 239.198 887.894 242.564 890.95 245.973L886.876 249.383C883.732 246.062 880.853 242.741 878.108 239.419ZM892.234 256.159L896.397 252.837C899.143 256.292 901.888 259.79 904.545 263.333L900.338 266.521C897.593 263.067 894.847 259.628 892.101 256.203L892.234 256.159ZM905.519 273.562L909.948 270.418C912.561 274.005 915.085 277.636 917.609 281.312L913.181 284.323C910.464 280.721 907.881 277.149 905.431 273.607L905.519 273.562ZM991.076 509.551C990.81 505.123 990.412 500.694 990.013 496.266L995.283 495.779C995.726 500.207 996.08 504.636 996.39 509.064L991.076 509.551ZM996.921 518.054C996.921 522.482 997.276 526.91 997.364 531.339H992.094C992.094 526.91 991.829 522.482 991.607 518.054H996.921ZM989.083 487.409C988.552 482.981 987.976 478.552 987.356 474.39L992.626 473.593C993.246 478.021 993.821 482.449 994.353 486.878L989.083 487.409ZM986.028 465.71C985.319 461.282 984.522 457.075 983.68 452.779L988.817 451.982C989.659 456.41 990.456 460.839 991.164 465.267L986.028 465.71ZM981.909 444.144C980.979 439.715 979.961 435.597 978.942 431.346L984.079 430.062C985.142 434.49 986.16 438.918 987.09 443.037L981.909 444.144ZM976.728 422.843C975.621 418.415 974.425 414.385 973.141 410.178L978.234 408.672C979.518 413.101 980.713 417.175 981.865 421.47L976.728 422.843ZM970.572 401.808C969.244 397.38 967.827 393.439 966.365 389.32L971.37 387.549C972.875 391.741 974.351 395.948 975.798 400.17L970.572 401.808ZM970.572 351.192L966.675 342.867L975.045 339.102L978.854 347.516L970.572 351.192ZM968.58 379.224L963.576 381.084C962.07 376.965 960.431 372.891 958.793 368.817L963.708 366.824C965.17 371.031 966.675 375.194 968.358 379.356L968.58 379.224ZM955.294 360.757C953.523 356.727 951.752 352.742 949.892 348.801L954.719 346.542C956.579 350.528 958.394 354.602 960.166 358.676L955.294 360.757ZM946.128 340.874C944.224 336.977 942.231 333.08 940.194 329.183L944.888 326.703C946.969 330.644 948.962 334.585 950.91 338.571L946.128 340.874ZM936.031 321.477C933.905 317.669 931.603 313.861 929.521 310.096L933.95 307.395C936.208 311.204 938.378 315.056 940.548 318.909L936.031 321.477ZM925.004 302.568C922.702 298.848 920.576 295.128 917.963 291.497L922.392 288.574C924.827 292.294 927.219 296.014 929.521 299.778L925.004 302.568ZM929.698 771.047L934.127 773.749C931.868 777.601 929.698 781.366 927.174 785.13L922.746 782.296C925.093 778.709 927.351 774.989 929.61 771.18L929.698 771.047ZM934.127 763.431C936.252 759.622 938.555 755.725 940.415 751.828L945.109 754.308C943.028 758.249 940.947 762.146 938.732 766.043L934.127 763.431ZM944.534 744.256C946.482 740.314 948.386 736.373 950.246 732.343L955.073 734.602C953.213 738.632 951.265 742.661 949.272 746.603L944.534 744.256ZM953.877 724.372C955.649 720.342 957.376 716.268 959.014 712.194L963.93 714.187C962.291 718.35 960.52 722.424 958.749 726.498L953.877 724.372ZM962.247 703.957C963.841 699.839 965.347 695.676 966.675 691.558L971.724 693.285C970.218 697.492 968.713 701.699 967.295 705.817L962.247 703.957ZM969.642 683.188C971.015 679.026 972.344 674.863 973.584 670.656L978.676 672.162C977.436 676.59 976.108 680.664 974.691 684.871L969.642 683.188ZM976.019 662.198C977.171 657.991 978.278 653.739 979.341 649.488L984.478 650.728C983.415 655.157 982.308 659.585 981.112 663.615L976.019 662.198ZM981.333 640.941C982.308 636.513 983.193 632.35 984.035 628.055L989.26 629.073C988.419 633.502 987.489 637.93 986.515 642.093L981.333 640.941ZM985.762 619.419C986.515 614.991 987.179 610.784 987.843 606.4L993.069 607.153C992.449 611.581 991.74 616.01 990.987 620.438L985.762 619.419ZM988.995 597.72C989.526 593.292 990.013 588.864 990.412 584.435L995.726 584.922C995.283 589.351 994.796 593.779 994.264 598.207L988.995 597.72ZM991.164 575.888C991.519 571.46 991.784 567.032 992.006 562.603L997.32 562.869C997.098 567.297 996.833 571.726 996.479 576.154L991.164 575.888ZM992.316 553.746C992.316 549.318 992.316 544.89 992.316 540.461V539.753H997.674V540.461C997.674 544.89 997.674 549.318 997.453 553.746H992.316ZM998.826 306.908L1002.1 314.702L996.213 317.669L992.626 310.274L998.826 306.908ZM991.696 319.617L962.823 334.054L959.191 326.836L988.109 312.399L991.696 319.617ZM984.478 281.091L962.247 293.756L979.075 296.501L983.902 304.96L966.853 301.417L956.269 321.743L951.309 312.886L959.059 299.335L954.01 298.273L945.685 303.055L941.699 296.058L979.961 274.315L984.478 281.091ZM964.948 271.525L959.856 274.935L935.677 273.562L943.736 285.652L937.67 289.682L924.03 269.178L929.123 265.768L952.815 267.185L945.331 255.937L951.353 251.907L964.948 271.525ZM935.721 231.67L937.758 234.371L945.419 228.658L950.246 235.08L942.629 240.836L946.039 245.265L941.124 248.94L937.714 244.512L925.314 253.812C924.966 253.992 924.665 254.251 924.434 254.568C924.203 254.885 924.05 255.251 923.985 255.638C923.921 256.025 923.947 256.421 924.063 256.796C924.178 257.171 924.379 257.514 924.65 257.797L926.421 260.144L920.974 264.218L918.317 260.72C917.519 259.773 916.929 258.67 916.583 257.481C916.238 256.292 916.146 255.044 916.313 253.817C916.48 252.59 916.902 251.412 917.552 250.358C918.203 249.305 919.067 248.399 920.089 247.7L932.887 238.091L930.805 235.345L935.721 231.67ZM911.099 220.997L916.015 226.798L917.255 225.736C919.912 223.477 920 221.307 917.255 217.897C916.594 216.92 915.693 216.13 914.638 215.603C913.583 215.075 912.41 214.828 911.232 214.886L911.719 207.712C913.864 207.839 915.949 208.47 917.804 209.555C919.658 210.64 921.23 212.148 922.392 213.956C928.281 220.864 928.37 226.976 922.613 231.67L906.405 245.398L901.18 239.419L903.305 237.604C901.835 237.538 900.399 237.141 899.103 236.444C897.807 235.746 896.685 234.765 895.821 233.574C894.76 232.507 893.929 231.233 893.38 229.831C892.832 228.429 892.578 226.93 892.633 225.426C892.999 222.779 894.361 220.372 896.441 218.695C900.25 215.55 905.874 215.55 910.745 221.263L911.099 220.997ZM903.571 176.093L893.076 186.412C894.542 186.336 896.006 186.596 897.356 187.172C898.707 187.747 899.909 188.623 900.87 189.733C902.967 191.741 904.191 194.492 904.279 197.394C904.279 201.822 900.338 205.852 896.928 209.262C893.518 212.672 889.444 216.525 884.883 216.48C881.978 216.307 879.251 215.022 877.266 212.893C876.142 211.871 875.266 210.606 874.706 209.194C874.145 207.782 873.916 206.26 874.034 204.745L871.864 206.871L866.417 201.291L897.903 170.292L903.571 176.093ZM866.682 158.114L853.442 172.994C852.874 173.504 852.422 174.128 852.113 174.826C851.805 175.523 851.648 176.278 851.652 177.041C851.657 177.804 851.822 178.557 852.139 179.251C852.455 179.945 852.915 180.564 853.488 181.068C854.061 181.571 854.733 181.948 855.462 182.173C856.191 182.398 856.959 182.465 857.716 182.372C858.473 182.279 859.202 182.026 859.854 181.631C860.507 181.236 861.068 180.707 861.501 180.079L874.388 165.377L880.455 170.691L859.154 195.135L853.22 189.954L855.213 187.696C853.715 187.82 852.208 187.636 850.784 187.156C849.36 186.676 848.049 185.911 846.932 184.906C845.844 184.027 844.943 182.94 844.281 181.708C843.62 180.476 843.211 179.124 843.079 177.732C843.031 176.088 843.324 174.451 843.942 172.927C844.559 171.402 845.487 170.022 846.666 168.875L860.394 153.066L866.682 158.114ZM844.54 125.477L829.395 145.759L845.913 141.641L853.663 147.486L836.481 150.852L834.798 173.702L826.827 167.724L828.554 152.18L823.506 153.243L817.749 160.904L811.328 156.077L837.898 120.65L844.54 125.477ZM816.11 133.359L811.682 139.648L795.695 129.197L799.814 122.953L816.11 133.359ZM779.399 120.65L775.236 117.727C770.409 114.362 768.549 110.376 771.472 105.195C774.793 99.3494 781.702 99.128 787.414 102.405C791.486 104.249 794.667 107.621 796.271 111.793L789.496 113.697C788.396 111.238 786.446 109.257 784.004 108.118C781.215 106.523 779.31 107.143 778.513 108.516C777.716 109.889 777.672 110.996 780.063 112.635L784.226 115.557C785.363 116.129 786.369 116.931 787.179 117.912C787.989 118.893 788.586 120.033 788.932 121.257C789.277 122.482 789.364 123.765 789.187 125.026C789.01 126.286 788.572 127.495 787.901 128.577C784.359 134.777 777.406 134.732 770.764 130.968C768.47 129.959 766.42 128.468 764.754 126.595C763.088 124.723 761.845 122.514 761.11 120.119L768.284 118.126C769.283 121.129 771.433 123.613 774.262 125.034C776.698 126.407 779.709 127.027 780.905 125.034C781.525 123.528 781.303 122.156 779.222 120.65H779.399ZM752.076 91.6883C751.07 91.0732 749.923 90.7259 748.745 90.6794C747.567 90.6329 746.396 90.8887 745.345 91.4226L742.865 84.6915C744.868 83.8474 747.045 83.4992 749.211 83.6766C751.378 83.8539 753.469 84.5514 755.308 85.71C763.457 89.607 766.069 95.0982 762.792 101.918L753.581 121.093L746.496 117.683L747.692 115.203C746.317 115.744 744.837 115.966 743.364 115.851C741.891 115.736 740.463 115.287 739.189 114.539C737.795 113.994 736.527 113.172 735.461 112.121C734.395 111.07 733.554 109.814 732.989 108.428C732.231 105.859 732.501 103.096 733.742 100.722C735.956 96.0724 740.96 93.8139 747.736 97.0467L754.6 100.324L755.308 98.9066C756.637 95.7181 755.751 93.5482 751.899 91.6883H752.076ZM703.363 81.813C705.135 77.3846 707.172 72.1591 711.379 70.3435C714.059 69.2387 717.068 69.2387 719.749 70.3435C721.157 70.7753 722.446 71.5279 723.514 72.5422C724.582 73.5565 725.4 74.8049 725.904 76.1889L731.262 62.5052L738.791 65.428L722.716 106.568L715.364 103.689L716.471 100.855C715.124 101.603 713.616 102.018 712.075 102.064C710.535 102.11 709.005 101.787 707.615 101.121C704.867 100.141 702.6 98.1438 701.282 95.541C699.644 91.5112 701.592 86.2857 703.363 81.813ZM700.972 110.996C705.135 112.546 709.298 114.185 713.372 115.912L711.379 120.783C707.305 119.144 703.231 117.506 699.068 115.956L700.972 110.996ZM689.813 94.5225L680.956 91.6883L683.79 82.8315L692.647 85.6657L689.813 94.5225ZM649.957 49.6629V70.2992L661.249 52.5856L666.962 54.047L668.468 75.0376L678.432 56.9697L686.668 59.0511L668.955 87.9242L662.534 86.2857L661.117 64.8523L649.559 82.7872L643.403 81.1487L641.765 47.4044L649.957 49.6629ZM600.226 40.9833L602.396 61.4867L611.873 42.7546L617.674 43.6403L621.261 64.3651L629.365 45.4116L637.779 46.6516L623.21 77.1189L616.833 76.1447L613.201 55.1098L603.459 74.1076L596.905 73.1334L591.768 39.699L600.226 40.9833ZM549.787 37.4405L554.215 57.634L561.744 38.0162L567.633 38.2819L573.257 58.564L579.457 38.9019L587.915 39.3005L576.313 71.1406L569.715 70.8306L563.958 50.2386L556.208 70.1663L549.566 69.8563L541.284 37.0863L549.787 37.4405ZM538.495 81.2373H540.177V86.5514H538.539C534.686 86.5514 530.878 86.5514 527.025 86.5514V81.2373C530.745 81.2816 534.598 81.2373 538.495 81.2373ZM518.257 86.9942C513.828 86.9942 509.4 87.4371 504.972 87.747L504.573 82.4773C509.001 82.123 513.43 81.9016 517.858 81.6801L518.257 86.9942ZM879.436 890.393C788.201 980.672 664.942 1031.17 536.59 1030.86H532.693C403.97 1031.49 280.196 981.314 188.243 891.231C96.2911 801.149 43.5843 678.432 41.5666 549.723C39.549 421.014 88.3834 296.705 177.467 203.785C266.551 110.864 388.692 56.835 517.371 53.427L517.814 64.498C392.858 68.965 274.634 122.243 188.518 212.895C102.401 303.547 55.2573 424.349 57.2049 549.369C59.1525 674.389 110.036 793.663 198.935 881.589C287.833 969.515 407.659 1019.08 532.693 1019.66H536.546C662.558 1019.63 783.455 969.815 872.915 881.069C962.375 792.322 1013.15 671.827 1014.19 545.82C1014.48 509.532 1010.66 473.329 1002.81 437.9L1013.62 435.508C1031.62 516.488 1028.74 600.713 1005.27 680.28C981.804 759.846 938.504 832.146 879.436 890.393Z" fill="#1D1D1B"/><path d="M1013.21 403.27C1014.04 402.505 1014.64 401.523 1014.94 400.437C1015.23 399.35 1015.22 398.202 1014.9 397.122C1014.57 396.043 1013.95 395.076 1013.11 394.331C1012.26 393.586 1011.23 393.093 1010.11 392.907C1008.93 392.77 1007.72 392.876 1006.57 393.217L1010.11 404.953C1011.26 404.618 1012.31 404.045 1013.21 403.27Z" fill="#1D1D1B"/><path d="M712.574 95.3639C717.002 97.1353 719.172 93.6368 721.077 88.7213C722.981 83.8058 723.822 79.8645 719.305 78.0932C714.788 76.3218 712.795 79.8203 710.847 84.7358C708.898 89.6513 708.057 93.6368 712.574 95.3639Z" fill="#1D1D1B"/><path d="M991.649 360.27C986.734 362.13 983.191 364.167 984.918 368.684C986.645 373.201 990.675 372.404 995.59 370.5C1000.51 368.596 1003.96 366.559 1002.23 362.042C1000.51 357.525 996.565 358.366 991.649 360.27Z" fill="#1D1D1B"/></g><defs><clipPath id="clip0_7_55"><rect width="1042" height="1043.73" fill="white" transform="translate(19 18)"/></clipPath></defs></svg>