<svg xmlns="http://www.w3.org/2000/svg" viewBox="0 0 645 183"><defs><style>.cls-1{fill:#05164d;}</style></defs><g id="Ebene_1" data-name="Ebene 1"><path d="M121.65,94.21a41.54,41.54,0,1,1,41.53-41.54A41.58,41.58,0,0,1,121.65,94.21Zm0-81.26a39.72,39.72,0,1,0,39.72,39.72A39.76,39.76,0,0,0,121.65,13Z"/><path d="M546.84,39.2c-11.79,0-17.49,4.51-18,13h11.64c.16-2.21,1.42-3.88,6.33-3.88,4.35,0,6.41,1.43,6.41,3.57,0,1.9-1.18,2.61-4.11,2.92l-7.6.8c-10.29,1.1-15,5.38-15,13.14,0,7.2,4.44,12.74,13.86,12.74,6.41,0,10.21-2.06,13.53-6.17v5h10.93V54.08c0-11-6.41-14.88-18-14.88m6.65,25.57c0,4.35-4.12,7.6-10.45,7.6-3.09,0-4.91-1.43-4.91-4.12,0-2.06,1.27-3.8,5.31-4.35l6.88-.95a19.91,19.91,0,0,0,3.17-.64v2.46Zm-45.12-9.5c10.13,1.34,15.2,4.51,15.2,12.82S517.63,81.47,505,81.47c-13.69,0-18.52-5.46-18.76-13.46h11.8c.31,2.93,2.37,4.36,7,4.36s6.57-1.11,6.57-3.33c0-2.05-1.58-3-5.7-3.56l-4.19-.55c-8.79-1.19-13.85-4.59-13.85-12.51,0-7.6,5.62-13.22,17.41-13.22,10.93,0,16.78,4.35,17.34,13H511c-.4-2.29-1.66-3.72-5.7-3.72s-5.46,1.35-5.46,3.09.95,2.69,4.35,3.17l4.2.55M467.48,39.2c10.37,0,15.67,4.59,15.67,17.73V80.28H471.2V57.49c0-5.31-2.3-7.68-7.28-7.68-4.52,0-7.21,2.37-7.21,7.68V80.28H444.76V40.39H456V45c1.66-3.09,5.07-5.78,11.48-5.78m-45.69,0c-11.8,0-17.49,4.51-18,13h11.64c.16-2.21,1.42-3.88,6.33-3.88,4.35,0,6.41,1.43,6.41,3.56,0,1.91-1.19,2.62-4.11,2.93l-7.6.8c-10.3,1.1-15,5.38-15,13.14,0,7.2,4.44,12.74,13.86,12.74,6.41,0,10.21-2.06,13.53-6.17v5h10.93V54.08c0-11-6.41-14.88-18-14.88m6.65,25.57c0,4.35-4.12,7.6-10.45,7.6-3.09,0-4.91-1.43-4.91-4.12,0-2.06,1.27-3.8,5.31-4.35l6.88-.95a19.91,19.91,0,0,0,3.17-.64v2.46ZM382.53,39.2c10.13,0,15.43,4.59,15.43,17.73V80.28H386V57.49c0-5.31-2.3-7.68-7.28-7.68-4.52,0-7.21,2.37-7.21,7.68V80.28H359.57V25h12V44.27c2.06-2.93,5.31-5.07,10.93-5.07M347,40.39h9.1v9.73H347V65.64c0,4.27,2.21,5.38,5.7,5.38,1.42,0,3.4-.24,3.4-.24v9.58a28.76,28.76,0,0,1-5.7.64C340.78,81,335,76.64,335,67V50.12h-6V40.39h6V28.75h12V40.39Zm-41.8-1.51c0-9.65,6.1-14.8,15.68-14.8a24.11,24.11,0,0,1,5.06.47v9.66s-1.66-.16-3.09-.16c-3.72,0-5.7,1.27-5.7,4.75v1.59h8.79v9.73h-8.79V80.28H305.16V50.12h-6V40.39h6V38.88M284,40.39h12V80.28H284.74V75.69c-1.67,3.09-5.07,5.78-11.32,5.78-10.21,0-15.52-4.59-15.52-17.73V40.39h12V63.18c0,5.31,2.3,7.68,7.13,7.68,4.35,0,7-2.37,7-7.68V40.39ZM231.38,69.12h23.83V80.28H218.56V24.87h12.82V69.12Z"/><path d="M244.86,101.31c17.18,0,25,8.24,26.84,20H258.4c-1.58-5.62-5.39-8.63-13.54-8.63-10.14,0-14.49,6.5-14.49,17.5s4.35,17.5,14.49,17.5c8.15,0,12-3,13.54-8.63h13.3c-1.82,11.8-9.66,20-26.84,20-20,0-27.79-12.27-27.79-28.9s7.76-28.9,27.79-28.9"/><rect x="275.58" y="102.5" width="11.96" height="10.21"/><rect x="275.58" y="118.02" width="11.96" height="39.91"/><path d="M309.07,127.76v15.52c0,4.27,2.22,5.38,5.71,5.38,1.42,0,3.4-.24,3.4-.24V158a29.2,29.2,0,0,1-5.7.63c-9.58,0-15.36-4.36-15.36-14V127.76h-6V118h6V106.38h11.95V118h9.11v9.74Z"/><polygon points="363.87 118.02 340.99 171.86 328.31 171.86 335.44 156.18 319.45 118.02 332.67 118.02 341.38 142.01 350.64 118.02 363.87 118.02 363.87 118.02"/><polygon points="402.75 146.76 402.75 157.93 366.08 157.93 366.08 102.5 378.91 102.5 378.91 146.76 402.75 146.76"/><rect x="407.1" y="102.5" width="11.96" height="10.21"/><rect x="407.1" y="118.02" width="11.96" height="39.91"/><path d="M446.53,116.83c10.38,0,15.68,4.59,15.68,17.74v23.36H450.26V135.12c0-5.3-2.3-7.68-7.29-7.68-4.51,0-7.2,2.38-7.2,7.68v22.81h-12V118h11.24v4.59c1.67-3.09,5.07-5.78,11.48-5.78"/><path d="M506.43,137.89c0-12.67-5.77-21-20.26-21-15.44,0-20.28,10.44-20.28,21.14,0,12.66,5.86,21.14,20.91,21.14,11.88,0,18.13-5.7,18.85-13.47h-11.8c-.71,2.61-2.54,3.88-7.05,3.88-5.93,0-8.47-2.29-9-8.31h28.52A27.79,27.79,0,0,0,506.43,137.89ZM477.93,133c.79-4.75,3.1-6.88,8.24-6.88,5.86,0,7.6,2.76,8.08,6.88Z"/><path d="M137.24,44.25c-.18.33-.44.76-.83,1.36a96.76,96.76,0,0,1,17.66,1.5l-1.71,1.66a85.37,85.37,0,0,0-15.87-1.28l-1.23,0c-.2.3-.65.9-1.11,1.46.52,0,1.51-.06,2.9-.07A87.62,87.62,0,0,1,151.15,50l-1.71,1.68a83.52,83.52,0,0,0-12.24-.85c-1.45,0-3.08.07-4.54.16-.33.38-1.19,1.32-1.45,1.61a66,66,0,0,1,6.61-.34,72.8,72.8,0,0,1,10.33.67l-1.71,1.66a63.42,63.42,0,0,0-7.65-.41,30.16,30.16,0,0,0-16.73,4.68c5,5.35,13.23,8.7,21.16,8.66H144l-2.76,2.69a92.22,92.22,0,0,1-33.74-13.9c-9.81-6.57-13.25-8.5-20.91-11.83l-.06-2,5.18,2.19,1.75-1.4,16.91,7.64-1.09.89-8.68-3.72-.85.68,4.51,2.48c3.81,2.1,6.71,3,9.38,3,5.85,0,11.08-4.21,14.42-11.51a66.72,66.72,0,0,1,8.53-.52,110.42,110.42,0,0,1,20.58,1.91l-1.78,1.75A102.41,102.41,0,0,0,138,44.22C137.67,44.22,137.39,44.24,137.24,44.25Z"/></g></svg>