<svg xmlns="http://www.w3.org/2000/svg" width="500" height="93" viewBox="0 0 500 93" fill="none"><mask id="mask0_4_50" style="mask-type:luminance" maskUnits="userSpaceOnUse" x="0" y="0" width="499" height="93"><path d="M498.359 0H0V93H498.359V0Z" fill="white"/></mask><g mask="url(#mask0_4_50)"><path fill-rule="evenodd" clip-rule="evenodd" d="M474.988 61.121C479.771 61.121 482.09 58.3191 482.255 52.2448L482.278 52.2683H498.382C498.289 56.5063 497.914 60.603 495.007 64.1347C490.787 69.2201 483.403 71.4333 475.363 71.4333C456.562 71.4333 450.375 61.7097 450.375 46.6414C450.375 35.4814 454.384 21.8491 475.363 21.8491C484.764 21.8491 491.303 24.0624 494.586 27.9707C496.928 30.7723 497.704 33.6448 497.75 40.5668H481.646C481.225 34.775 479.255 32.1615 474.988 32.1615C468.87 32.1615 466.785 38.8245 466.785 46.6414C466.785 54.458 468.847 61.121 474.988 61.121ZM156.118 54.6463H156.235L163.807 23.0735H187.881V70.1857H173.23V34.7515H173.113L162.822 70.1857H147.562L137.904 34.7515H137.74V70.1857H124.332V23.0735H148.289L156.118 54.6463ZM218.214 60.7209C222.996 60.7209 225.481 57.8955 225.481 48.9015V23.0735H240.435V50.5966C240.435 58.0366 239.287 61.1682 236.85 64.3702C233.076 69.3145 226.512 71.4098 218.05 71.4098C209.587 71.4098 203.047 69.338 199.25 64.3702C196.812 61.1682 195.663 58.0366 195.663 50.5966V23.0735H210.947V48.9015C210.947 57.919 213.432 60.7209 218.214 60.7209ZM263.995 23.0735H248.194V70.1857H281.294V58.696H263.995V23.0735ZM289.146 34.563H276.817V23.0735H317.252V34.563H304.924V70.1857H289.146V34.563ZM340.412 23.0735H324.613V70.1857H340.412V23.0735ZM374.12 52.8335L383.731 23.0735H399.859L383.287 70.1857H363.947L347.375 23.0735H364.792L374.12 52.8335ZM410.806 23.0735L391.678 70.1857H407.15L410.056 62.3688H429.442L432.185 70.1857H449.579L430.449 23.0735H410.806ZM413.877 52.033L419.949 35.599L425.762 52.033H413.877Z" fill="#1E2B50"/><path fill-rule="evenodd" clip-rule="evenodd" d="M23.113 0H92.5926V69.7853C92.5926 82.5935 82.2551 93 69.4796 93H0V23.2147C0 10.4066 10.361 0 23.113 0ZM27.8481 27.7826C22.2457 27.7826 17.7215 32.3266 17.7215 37.93V65.2179H32.044V37.2472H39.8734V65.2179H53.7271V37.2472H62.0956V65.2179H74.8477V27.7826H27.8481Z" fill="#1E2B50"/></g></svg>