<svg xmlns="http://www.w3.org/2000/svg" width="500" height="134" viewBox="0 0 500 134" fill="none"><g clip-path="url(#clip0_4_178)"><path d="M483.493 0.5C490.948 0.5 494.675 4.224 494.675 11.672V21.248C494.675 28.696 490.948 31.888 483.493 31.888H445.687V51.04H477.636C485.09 51.04 488.818 54.764 488.818 62.212V71.788C488.818 79.236 485.09 82.428 477.636 82.428H445.687V102.644H489.35C496.805 102.644 500.532 106.368 500.532 113.816V122.86C500.532 130.308 496.805 133.5 489.35 133.5H415.335C407.881 133.5 404.686 129.776 404.686 122.86V11.672C404.686 4.224 408.413 0.5 415.335 0.5H483.493ZM250.799 0.5C259.318 0.5 263.046 3.692 264.111 11.14L274.76 76.576H275.293L289.137 11.14C290.735 3.692 294.462 0.5 302.449 0.5H318.956C326.944 0.5 330.671 3.692 332.268 11.14L346.113 76.576L356.762 11.14C357.827 3.692 361.555 0.5 370.075 0.5H383.919C390.309 0.5 394.036 3.16 394.036 9.544C394.036 10.608 394.036 12.204 393.504 13.8L368.477 122.86C366.88 130.308 363.152 133.5 354.1 133.5H338.126C330.138 133.5 326.411 130.308 324.814 122.86L309.904 51.572H309.372L294.995 122.86C293.397 130.308 289.67 133.5 281.683 133.5H265.708C256.656 133.5 252.929 129.776 251.331 122.86L225.24 13.8C224.707 12.204 224.707 11.14 224.707 9.544C224.707 3.692 228.434 0.5 234.824 0.5H250.799ZM203.94 0.5C211.395 0.5 215.122 4.224 215.122 11.672V21.248C215.122 28.696 211.395 31.888 203.94 31.888H166.134V51.04H198.083C205.538 51.04 209.265 54.764 209.265 62.212V71.788C209.265 79.236 205.538 82.428 198.083 82.428H166.134V102.644H209.798C217.252 102.644 220.98 106.368 220.98 113.816V122.86C220.98 130.308 217.252 133.5 209.798 133.5H135.783C128.328 133.5 125.133 129.776 125.133 122.86V11.672C125.133 4.224 128.86 0.5 135.783 0.5H203.94ZM50.5857 0.5C91.5868 0.5 107.029 15.928 107.029 42.528C107.029 57.956 99.0415 71.256 80.4047 78.172L109.159 120.2C110.756 122.86 111.289 124.988 111.289 126.584C111.289 130.84 106.496 133.5 101.171 133.5H77.7423C71.3525 133.5 67.6251 130.308 62.8328 122.86L39.9361 82.96H40.4686V122.86C40.4686 130.308 36.7412 133.5 29.2865 133.5H10.6496C3.19489 133.5 0 129.776 0 122.86V11.672C0 4.224 3.72737 0.5 10.6496 0.5H50.5857ZM48.9883 30.824H40.4686V59.02H48.9883C60.7029 59.02 65.4952 54.232 65.4952 45.188C65.4952 36.144 60.1704 30.824 48.9883 30.824Z" fill="#CC071E"/></g><defs><clipPath id="clip0_4_178"><rect width="500" height="133" fill="white" transform="translate(0 0.5)"/></clipPath></defs></svg>