<svg xmlns="http://www.w3.org/2000/svg" width="500" height="131" viewBox="0 0 500 131" fill="none"><g clip-path="url(#clip0_43_219)"><path d="M53.7949 17.9413V32.3697C55.3954 30.3371 56.215 27.8007 56.1058 25.2182C56.2231 22.5962 55.4042 20.0177 53.7949 17.9413ZM49.2832 57.6507C49.5578 55.1588 49.2123 52.6378 48.2771 50.311C47.3179 48.2345 45.7574 46.492 43.7968 45.3082C43.3569 47.5504 43.6034 49.8728 44.5042 51.9734C45.6046 54.2293 47.2461 56.1794 49.2832 57.6507ZM52.2229 32.7618V17.5336C50.3684 19.6525 49.4153 22.4094 49.5661 25.2182C49.4241 27.9833 50.3784 30.693 52.2229 32.7618ZM61.435 52.5851C62.3065 50.4757 62.5255 48.1544 62.0638 45.9198C60.1097 47.1189 58.5644 48.8791 57.6306 50.9697C56.73 53.2997 56.4169 55.8147 56.7189 58.2937C58.7398 56.8025 60.3599 54.8361 61.435 52.5694V52.5851ZM97.8746 6.61822C90.8476 0.862564 77.6583 0 52.6787 0C27.6992 0 14.6985 0.878247 7.67151 6.64959C0.644533 12.4209 0 23.0226 0 42.1402C0 61.2578 0.628812 71.9379 7.62435 77.819C14.6199 83.7001 27.7778 84.4529 52.6787 84.4686C77.5797 84.4843 90.8476 83.606 97.8746 77.819C104.902 72.032 105.515 61.3989 105.53 42.1402C105.546 22.8815 104.902 12.4209 97.8746 6.61822ZM69.5623 12.6719C70.2978 11.6908 71.3744 11.0195 72.5807 10.7899C73.5784 10.2842 74.7002 10.0731 75.8141 10.1815C76.9279 10.2898 77.9877 10.7131 78.8688 11.4015C82.3744 14.0363 80.0478 18.945 80.0478 18.945C80.0478 18.945 79.3561 23.3049 79.136 23.8852C78.7258 24.3984 78.1819 24.7891 77.564 25.0144C77.0476 25.1341 76.5215 25.2075 75.992 25.2339C75.2714 25.2396 74.5582 25.0898 73.9012 24.7948C73.6382 24.5561 73.48 24.2237 73.461 23.8695C73.4174 23.5607 73.316 23.2628 73.1623 22.9913C71.7614 22.6315 70.5552 21.7431 69.7982 20.5133C68.9493 18.945 69.468 16.969 69.6567 15.73C69.7364 14.7102 69.7048 13.6848 69.5623 12.6719ZM24.4136 11.1977C25.2434 10.8155 26.1405 10.6004 27.0536 10.5647C27.9668 10.529 28.8781 10.6733 29.7352 10.9894C30.5924 11.3056 31.3786 11.7873 32.0489 12.407C32.7192 13.0267 33.2604 13.7722 33.6414 14.6009C34.6947 16.8906 34.2545 17.7375 32.7768 18.4589C33.2 19.5669 33.1776 20.7952 32.7141 21.887C32.2506 22.9788 31.382 23.8497 30.2899 24.3175C29.1978 24.7853 27.9667 24.8138 26.854 24.3971C25.7413 23.9805 24.8331 23.1508 24.3193 22.0816C24.0055 22.2256 23.6637 22.2986 23.3184 22.2953C22.973 22.292 22.6327 22.2126 22.3217 22.0628C22.0107 21.9129 21.7368 21.6963 21.5196 21.4284C21.3023 21.1605 21.1472 20.848 21.0652 20.5133C20.6715 19.6824 20.4458 18.7822 20.401 17.8642C20.3562 16.9462 20.4932 16.0284 20.8042 15.1632C21.1152 14.298 21.594 13.5025 22.2133 12.8221C22.8327 12.1416 23.5803 11.5897 24.4136 11.1977ZM98.4248 68.4719H70.1283L69.9868 69.1306C69.9868 69.1306 68.4148 74.1021 65.2707 73.3023C62.1266 72.5025 63.5886 68.5974 63.5886 68.5974H53.7949V74.0708H52.2229V68.4719H43.2623L43.561 69.8207C43.7289 70.4817 43.6644 71.1803 43.3783 71.7996C43.0922 72.419 42.6018 72.9217 41.9889 73.2239C39.678 74.1805 38.3575 70.9969 38.3575 70.9969C38.3575 70.9969 37.8388 69.9148 37.2414 68.4876H6.91693V66.9193H36.5183C36.2982 66.339 36.0781 65.7588 35.8737 65.1942C34.9462 62.5124 33.7201 57.8389 33.4528 57.682C33.1856 57.5252 31.362 57.5095 29.2398 57.2586C27.9576 57.0303 26.6878 56.7371 25.4355 56.3803C24.8381 56.5215 20.3578 62.3399 17.4181 62.9202C14.4784 63.5004 11.4129 59.7836 11.4129 59.7836L7.76583 55.0159C7.76583 55.0159 6.38244 53.1497 7.40426 52.1303C7.70807 51.769 8.13674 51.5347 8.60544 51.4737C9.07414 51.4127 9.54871 51.5295 9.93523 51.8009C9.93523 51.8009 14.84 54.9375 15.3745 55.2982C15.9089 55.6589 15.8932 55.2982 15.8932 55.2982C15.8932 55.2982 16.695 54.5298 17.0723 54.0593C17.1098 54.0241 17.1398 53.9815 17.1603 53.9343C17.1808 53.8871 17.1913 53.8363 17.1913 53.7848C17.1913 53.7334 17.1808 53.6825 17.1603 53.6353C17.1398 53.5881 17.1098 53.5456 17.0723 53.5104C17.0723 53.5104 14.6513 51.1109 13.7081 50.1542C13.5012 49.8573 13.3903 49.5043 13.3903 49.1426C13.3903 48.781 13.5012 48.428 13.7081 48.1311L20.8923 33.8596L11.4601 35.8356C11.4601 35.8356 9.66799 36.2748 9.25926 35.0672C8.85053 33.8596 10.6584 32.8715 10.6584 32.8715L23.0774 25.5946C23.3157 25.4347 23.5749 25.308 23.8477 25.2182C24.1072 25.2361 24.3596 25.3111 24.5866 25.4378C25.7824 26.289 27.2208 26.7343 28.6896 26.7081C30.0882 26.6648 31.4211 26.1061 32.431 25.1398C32.6441 24.9342 32.9111 24.7928 33.2013 24.7321C33.8116 24.9406 34.3545 25.3089 34.7733 25.7985L45.7775 37.9999C46.0905 38.3179 46.2894 38.7301 46.3434 39.1725C46.3974 39.6149 46.3035 40.0627 46.0762 40.4464C45.2745 41.4501 43.5452 40.4464 43.5452 40.4464C43.5452 40.4464 36.5811 36.2748 36.3296 36.212C36.0781 36.1493 36.141 36.51 36.141 36.51L42.9636 66.8879H52.27V34.9417C51.594 34.4869 47.9469 31.8051 47.9469 25.1555C47.9469 18.0511 52.27 15.2909 52.4429 15.1811C52.5774 15.0978 52.7326 15.0536 52.891 15.0536C53.0493 15.0536 53.2045 15.0978 53.339 15.1811C53.5276 15.2909 57.835 18.0511 57.835 25.1555C57.9326 26.9375 57.6191 28.7181 56.9187 30.3603C56.2183 32.0025 55.1496 33.4625 53.7949 34.628V66.9036H63.9345L68.0689 47.1744C68.0689 47.1744 70.427 36.0395 70.3012 35.9611C70.1754 35.8827 61.8594 41.2619 61.8594 41.2619C61.5448 41.5704 61.1214 41.7432 60.6804 41.7432C60.2393 41.7432 59.8159 41.5704 59.5014 41.2619C58.2909 40.1171 60.0516 38.5488 60.0516 38.5488L70.537 26.3474C70.6337 26.2138 70.7583 26.1026 70.9021 26.0214C71.0459 25.9402 71.2055 25.8909 71.3702 25.8769C71.5217 25.8664 71.6723 25.9071 71.7978 25.9925C71.9233 26.0779 72.0163 26.2029 72.0619 26.3474C72.4322 27.365 72.8734 28.3554 73.3824 29.3115C73.9942 28.829 74.572 28.305 75.1116 27.7432C75.4448 27.3382 75.8635 27.0115 76.3378 26.7865C76.4678 26.7736 76.5988 26.7977 76.7156 26.856C76.8325 26.9143 76.9304 27.0044 76.9981 27.1159L78.6958 29.5624C78.8315 29.7772 79.0077 29.9636 79.2146 30.1113C79.3115 30.0682 79.3975 30.0039 79.4661 29.9231L81.4469 26.222C81.645 25.7833 81.9221 25.3847 82.2644 25.0457C82.4794 24.9906 82.7041 24.9845 82.9219 25.028C83.1396 25.0714 83.3447 25.1633 83.522 25.2967L95.4537 32.4481C95.8629 32.6319 96.2 32.945 96.4131 33.339C96.6262 33.7329 96.7034 34.1859 96.6327 34.628C96.0982 36.51 93.3786 35.569 93.3786 35.569C93.3786 35.569 85.1569 33.8753 85.0469 34.0007C85.0308 34.0725 85.0324 34.1471 85.0516 34.2181C85.0707 34.2891 85.1069 34.3545 85.1569 34.4085C85.1569 34.4085 91.6179 49.025 91.5551 49.9033C91.5046 50.1562 91.4033 50.3963 91.2575 50.6092C91.1116 50.8222 90.924 51.0034 90.7062 51.1422C89.9116 51.5896 89.1638 52.115 88.4739 52.7105C88.4691 52.7905 88.4806 52.8706 88.5076 52.9461C88.5347 53.0215 88.5766 53.0908 88.6311 53.1497C89.0656 53.6288 89.5505 54.0599 90.0773 54.4357C90.3942 54.4271 90.7011 54.3233 90.9577 54.1377L94.6991 52.1303C95.1323 51.7545 95.6832 51.5411 96.257 51.5267C96.8308 51.5124 97.3917 51.6981 97.8432 52.0518C99.2266 53.4476 97.3558 55.0159 97.3558 55.0159L93.6773 59.1719C93.6773 59.1719 91.5393 62.3085 89.3857 62.6065C87.7667 62.6001 86.2125 61.9709 85.0469 60.85L78.4286 54.3886C78.2871 54.2475 78.1456 54.467 78.1456 54.467C77.8893 55.2048 77.5574 55.9143 77.1553 56.5842C76.9045 56.7754 76.6147 56.9092 76.3064 56.9763C76.3064 56.9763 73.6182 57.3684 73.4767 57.4468C73.3554 57.636 73.2801 57.8508 73.2566 58.0741L70.647 66.8879H98.4248V68.4562V68.4719ZM49.6919 49.6523C50.8886 52.6703 51.2206 55.9608 50.6508 59.1562C50.626 59.28 50.5716 59.396 50.4922 59.4942C50.4128 59.5925 50.3109 59.6703 50.1949 59.7208C50.0828 59.7773 49.959 59.8068 49.8334 59.8068C49.7078 59.8068 49.5839 59.7773 49.4718 59.7208C46.7261 57.9968 44.5118 55.549 43.0736 52.6478C41.8787 49.882 41.6897 46.7867 42.5391 43.8967C42.5735 43.7923 42.6295 43.6962 42.7035 43.6148C42.7775 43.5334 42.8678 43.4684 42.9686 43.424C43.0694 43.3796 43.1784 43.3569 43.2886 43.3573C43.3988 43.3577 43.5076 43.3811 43.6081 43.4262C46.3142 44.7463 48.476 46.964 49.7233 49.6994L49.6919 49.6523ZM62.2681 43.9437C62.3675 43.9015 62.4745 43.8797 62.5825 43.8797C62.6906 43.8797 62.7975 43.9015 62.8969 43.9437C62.9966 43.9884 63.0858 44.0533 63.1589 44.1344C63.2319 44.2154 63.2873 44.3107 63.3214 44.4142C64.1993 47.2935 64.0437 50.3881 62.8812 53.1653C61.4831 56.0799 59.3075 58.5541 56.5931 60.3168C56.481 60.3733 56.3571 60.4027 56.2315 60.4027C56.1059 60.4027 55.9821 60.3733 55.87 60.3168C55.754 60.2662 55.6521 60.1885 55.5727 60.0902C55.4933 59.9919 55.4389 59.876 55.4141 59.7522C54.7985 56.5942 55.065 53.3282 56.1844 50.311C57.4238 47.5808 59.5738 45.3638 62.2681 44.0378V43.9437Z" fill="#3D3D3D"/><path d="M133.953 33.2323C129.237 33.2323 125.479 31.2248 125.479 26.0808H119.632C119.773 34.3457 125.92 37.9842 133.591 37.9842C140.241 37.9842 146.891 34.9887 146.891 27.5236C146.887 25.5916 146.249 23.7139 145.073 22.1785C143.898 20.6431 142.25 19.5348 140.382 19.0235C138.653 18.5059 131.249 16.5926 130.73 16.4515C128.341 15.7928 126.753 14.4911 126.753 12.1543C126.753 8.79816 130.164 7.81013 132.884 7.81013C136.908 7.81013 139.816 9.37843 140.099 13.6912H145.947C145.947 6.728 140.099 3.0425 133.12 3.0425C127.083 3.0425 120.905 6.1791 120.905 12.8444C120.905 16.2946 122.587 19.7606 128.309 21.2975C132.899 22.5521 135.933 23.1638 138.276 24.0577C139.135 24.3284 139.878 24.8824 140.38 25.629C140.883 26.3755 141.116 27.2703 141.043 28.1666C141.027 30.7073 139.109 33.2323 133.953 33.2323Z" fill="#3D3D3D"/><path d="M182.23 20.5133C182.23 10.9781 176.24 3.0425 166.211 3.0425C156.181 3.0425 150.208 10.9938 150.208 20.5133C150.208 30.0329 156.26 37.9999 166.227 37.9999C176.193 37.9999 182.23 30.0643 182.23 20.5133ZM166.211 33.2166C159.042 33.2166 156.055 26.9434 156.055 20.5133C156.055 14.0833 159.058 7.81013 166.211 7.81013C173.364 7.81013 176.366 14.0833 176.366 20.5133C176.366 26.9434 173.379 33.2323 166.227 33.2323L166.211 33.2166Z" fill="#3D3D3D"/><path d="M212.853 27.5393C212.85 25.6073 212.211 23.7296 211.036 22.1942C209.86 20.6588 208.212 19.5505 206.345 19.0391C204.615 18.5216 197.211 16.6083 196.692 16.4671C194.303 15.8085 192.715 14.5068 192.715 12.17C192.715 8.81384 196.127 7.82581 198.846 7.82581C202.871 7.82581 205.779 9.39411 206.062 13.7069H211.91C211.91 6.74368 206.062 3.05818 199.082 3.05818C193.045 3.05818 186.867 6.19478 186.867 12.8601C186.867 16.3103 188.549 19.7762 194.272 21.3132C198.862 22.5678 201.912 23.1795 204.238 24.0734C205.098 24.3441 205.84 24.8981 206.343 25.6447C206.845 26.3912 207.079 27.286 207.005 28.1823C207.005 30.7073 205.087 33.2323 199.931 33.2323C195.215 33.2323 191.458 31.2248 191.458 26.0808H185.61C185.751 34.3457 191.898 37.9842 199.569 37.9842C206.156 37.9999 212.853 35.0044 212.853 27.5393Z" fill="#3D3D3D"/><path d="M127.492 68.4876L132.271 63.767L143.228 79.6853H150.538L136.248 59.6581L149.594 46.3432H142.395L127.492 61.5244V46.3432H121.644V79.6853H127.492V68.4876Z" fill="#3D3D3D"/><path d="M160.929 46.3432H155.081V79.7009H160.929V46.3432Z" fill="#3D3D3D"/><path d="M190.797 70.9185H190.703L175.439 46.3432H169.26V79.6853H174.841V55.1728H174.983L190.184 79.6853H196.378V46.3432H190.797V70.9185Z" fill="#3D3D3D"/><path d="M204.71 79.6853H218.575C228.872 79.6853 233.321 72.2045 233.321 63.0142C233.321 53.824 228.872 46.3432 218.575 46.3432H204.71V79.6853ZM210.558 51.0952H216.311C225.492 51.0952 227.457 56.3333 227.457 63.0142C227.457 69.6952 225.492 74.9176 216.311 74.9176H210.558V51.0952Z" fill="#3D3D3D"/><path d="M264.305 74.651H245.771V64.8805H262.623V60.1129H245.771V51.3932H263.991V46.3432H239.908V79.6853H264.305V74.651Z" fill="#3D3D3D"/><path d="M297.271 70.9028C297.271 65.6176 294.316 64.1277 292.303 63.8454V63.767C293.372 63.3906 297.821 61.7596 297.821 55.361C297.821 49.7151 294.08 46.3432 286.817 46.3432H270.814V79.6853H276.662V65.994H285.276C290.668 65.994 291.926 68.7072 291.926 74.8235C291.772 76.5106 292.082 78.2078 292.822 79.7323H299.11C297.837 78.3365 297.271 74.7922 297.271 70.9028ZM286.267 61.493H276.662V51.0952H286.094C289.144 51.0952 291.895 51.9421 291.895 56.1921C291.989 59.7208 289.961 61.5244 286.267 61.5244V61.493Z" fill="#3D3D3D"/><path d="M319.044 46.3432H305.178V79.6853H319.044C329.34 79.6853 333.789 72.2045 333.789 63.0142C333.789 53.824 329.34 46.3432 319.044 46.3432ZM316.796 74.9333H311.042V51.0952H316.796C325.976 51.0952 327.941 56.3333 327.941 63.0142C327.941 69.6952 326.039 74.9176 316.796 74.9176V74.9333Z" fill="#3D3D3D"/><path d="M353.33 37.4667H347.985V42.5166H353.33V37.4667Z" fill="#3D3D3D"/><path d="M361.378 37.4667H356.033V42.5166H361.378V37.4667Z" fill="#3D3D3D"/><path d="M354.619 45.6061C344.605 45.6061 338.615 53.4476 338.615 63.0142C338.615 72.5809 344.605 80.4851 354.634 80.4851C364.664 80.4851 370.653 72.5495 370.653 63.0142C370.653 53.479 364.648 45.6061 354.619 45.6061ZM354.619 75.7802C347.45 75.7802 344.463 69.507 344.463 63.077C344.463 56.647 347.466 50.3738 354.619 50.3738C361.771 50.3738 364.774 56.647 364.774 63.077C364.774 69.507 361.787 75.7175 354.619 75.7175V75.7802Z" fill="#3D3D3D"/><path d="M398.824 63.8454V63.767C399.893 63.3906 404.342 61.7596 404.342 55.361C404.342 49.7151 400.601 46.3432 393.338 46.3432H377.334V79.6853H383.182V65.994H391.797C397.189 65.994 398.447 68.7072 398.447 74.8235C398.293 76.5106 398.602 78.2078 399.343 79.7323H405.631C404.373 78.3836 403.807 74.8235 403.807 70.9498C403.792 65.6333 400.836 64.1277 398.824 63.8454ZM392.788 61.5087H383.182V51.0952H392.615C395.664 51.0952 398.415 51.9421 398.415 56.1921C398.494 59.7208 396.482 61.5244 392.788 61.5244V61.5087Z" fill="#3D3D3D"/><path d="M411.652 79.6853H417.5V64.8805H432.638V60.1129H417.5V51.3932H434.745V46.3432H411.652V79.6853Z" fill="#3D3D3D"/><path d="M446.677 64.8805H463.529V60.1129H446.677V51.3932H464.897V46.3432H440.829V79.6853H465.227V74.651H446.677V64.8805Z" fill="#3D3D3D"/><path d="M498.176 70.9028C498.176 65.6176 495.221 64.1277 493.209 63.8454V63.767C494.294 63.3906 498.742 61.7596 498.742 55.361C498.742 49.7151 495.001 46.3432 487.738 46.3432H471.719V79.6853H477.567V65.994H486.182C491.558 65.994 492.832 68.7072 492.832 74.8235C492.676 76.5107 492.986 78.208 493.728 79.7323H500.016C498.742 78.3365 498.176 74.7922 498.176 70.9028ZM487.172 61.493H477.583V51.0952H487.015C490.065 51.0952 492.816 51.9421 492.816 56.1921C492.894 59.7208 490.882 61.5244 487.172 61.5244V61.493Z" fill="#3D3D3D"/><path d="M153.131 125.401H153.037L145.633 97.658H140.822L133.324 125.401H133.23L126.674 97.658H122.131L130.699 131H135.336L143.055 102.975H143.149L150.789 131H155.427L164.371 97.658H159.923L153.131 125.401Z" fill="#3D3D3D"/><path d="M174.432 115.725H191.803V111.992H174.432V101.391H193.061V97.658H169.984V131H193.203V127.267H174.432V115.725Z" fill="#3D3D3D"/><path d="M204.395 97.658H199.947V131H222.096V127.267H204.395V97.658Z" fill="#3D3D3D"/><path d="M217.695 101.391H228.84V131H233.289V101.391H244.435V97.658H217.695V101.391Z" fill="#3D3D3D"/><path d="M277.448 125.401H277.353L269.949 97.658H265.123L257.64 125.401H257.546L250.99 97.658H246.447L255.015 131H259.652L267.371 102.975H267.465L275.105 131H279.727L288.672 97.658H284.223L277.448 125.401Z" fill="#3D3D3D"/><path d="M298.702 115.725H316.072V111.992H298.702V101.391H317.33V97.658H294.253V131H317.472V127.267H298.702V115.725Z" fill="#3D3D3D"/><path d="M328.9 97.658H324.451V131.016H328.9V97.658Z" fill="#3D3D3D"/><path d="M334.229 101.391H345.375V131H349.824V101.391H360.97V97.658H334.229V101.391Z" fill="#3D3D3D"/></g><defs><clipPath id="clip0_43_219"><rect width="500" height="131" fill="white"/></clipPath></defs></svg>