<svg xmlns="http://www.w3.org/2000/svg" width="500" height="90" viewBox="0 0 500 90" fill="none"><g clip-path="url(#clip0_4_65)"><mask id="mask0_4_65" style="mask-type:luminance" maskUnits="userSpaceOnUse" x="0" y="0" width="500" height="90"><path d="M500 0H0V89.9997H500V0Z" fill="white"/></mask><g mask="url(#mask0_4_65)"><path d="M173.626 16.2558H187.032V55.9102C187.032 69.0046 194.831 76.8603 205.071 76.8603C215.421 76.8603 223.105 69.0046 223.105 55.9102V16.2558H236.512V58.7583C236.512 75.2621 224.18 89.3645 205.071 89.3645C185.958 89.3645 173.626 75.2621 173.626 58.7583V16.2558Z" fill="#005CA9"/><path d="M310.935 87.8239V16.2524H297.674V60.909L258.752 16.2524H251.51V87.7017H264.771V43.2352L303.606 87.8239H310.935Z" fill="#005CA9"/><path d="M340.568 16.2558H326.804V87.705H340.568V16.2558Z" fill="#005CA9"/><path fill-rule="evenodd" clip-rule="evenodd" d="M428.859 51.9755C428.859 30.9736 411.728 13.954 390.592 13.954C369.462 13.954 352.329 30.9736 352.329 51.9755C352.329 72.9695 369.462 89.9997 390.592 89.9997C398.633 89.9997 406.09 87.5266 412.247 83.3171L418.492 89.5797L427.215 80.8254L421.204 74.7886C426.005 68.4327 428.859 60.5345 428.859 51.9755ZM390.592 78.0595C376.872 78.0595 365.745 66.3799 365.745 51.9755C365.745 37.5622 376.872 25.8851 390.592 25.8851C404.315 25.8851 415.44 37.5622 415.44 51.9755C415.44 56.8969 414.139 61.5027 411.883 65.433L403.652 57.1759L394.927 65.9277L403.337 74.3708C399.606 76.7138 395.253 78.0595 390.592 78.0595Z" fill="#005CA9"/><path d="M485.312 87.7017H500L469.666 16.2524H460.432L429.304 87.7017H443.595L449.196 74.2456H479.889L485.312 87.7017ZM454.084 62.4965L464.78 36.7983L475.147 62.4965H454.084Z" fill="#005CA9"/><path d="M48.712 86.667H0L5.585 76.6841H34.1978C35.4524 77.8492 36.7603 78.9551 38.112 80.0004C41.3185 82.4763 44.8764 84.795 48.712 86.667Z" fill="#005CA9"/><path d="M59.4375 14.1983C57.8633 15.524 47.8025 35.1575 60.1794 52.4313C63.6699 57.3033 68.7685 63.2414 74.7457 66.7197C80.9614 70.3418 85.1169 71.2593 87.7826 71.9853C92.4775 73.2671 99.7503 73.7962 109.117 74.304C116.703 74.7191 132.236 74.8066 134.947 74.7987L137.841 74.8121L144.49 87.5264C144.49 87.5264 121.922 87.6273 111.432 87.0581C99.6337 86.4199 90.4674 85.7498 84.5546 84.1383C81.1984 83.2235 75.9661 82.0639 68.1324 77.5058C60.6049 73.1234 52.8878 65.4537 48.8796 59.0528C39.2229 43.6156 41.6462 33.2536 42.9155 28.1665C45.6715 24.3341 49.2296 20.6552 53.0707 17.9214C55.8519 15.9109 57.5902 15.1223 59.4375 14.1983Z" fill="#005CA9"/><path d="M75.0647 85.8709C72.1973 86.4215 69.4041 86.6744 66.7938 86.6689C57.2508 86.6528 48.2658 82.164 40.8454 76.4359C31.944 69.5588 25.4367 59.9959 23.7871 49.5859C23.5472 48.3734 23.4386 47.1447 23.2623 45.4255C22.6012 38.2958 23.6216 29.3275 28.6049 20.7536C32.9177 13.3396 39.3429 6.91459 49.9288 2.46962C54.3462 0.615976 63.831 -1.47158 74.8128 1.45906C86.3514 4.6503 96.4361 11.8331 102.921 21.2656C102.921 21.2656 92.9712 8.28815 75.947 6.79887C75.1772 6.73377 74.4087 6.69131 73.6348 6.68067C65.225 6.51185 57.1818 9.41689 50.4813 14.2491C46.1932 17.3007 42.4329 21.146 39.5204 25.5697C39.3603 25.8143 38.8462 26.5748 38.1649 27.7874L37.9609 28.1504C37.8179 28.41 37.6693 28.6876 37.5185 28.983C35.4541 32.9506 32.5679 40.0522 32.453 49.0235C32.3068 60.5757 37.4679 68.9048 39.4027 71.7128C39.4516 71.7875 44.2549 75.0423 51.5228 76.4332C54.4696 76.9945 57.2443 77.0926 59.6122 77.0261C61.6063 78.6376 63.709 80.1161 65.8875 81.3873C69.4171 83.4431 72.4595 84.8498 75.0647 85.8709Z" fill="#005CA9"/><path d="M93.624 18.2007C99.9003 21.9423 108.939 33.6753 109.353 44.3403C110.02 54.5217 104.928 64.4621 101.53 69.3235C96.0261 68.9247 91.8536 68.4325 88.9582 67.6429C88.0587 67.398 86.9772 67.1324 85.6908 66.7306C89.2976 63.3984 94.6601 57.1224 97.3802 47.4837C101.135 34.0317 97.4294 24.8903 93.624 18.2007Z" fill="#005CA9"/></g></g><defs><clipPath id="clip0_4_65"><rect width="500" height="90" fill="white"/></clipPath></defs></svg>