<svg xmlns="http://www.w3.org/2000/svg" width="500" height="161" viewBox="0 0 500 161" fill="none"><g clip-path="url(#clip0_8_563)"><path d="M100.129 0C98.5142 0 96.2532 1.288 90.7623 6.44C88.8243 7.084 86.5633 6.762 83.9793 10.626C69.7674 31.234 58.4625 107.87 49.0956 129.766C47.1576 120.106 43.2817 57.96 41.6667 40.894C41.3437 37.674 41.9897 33.81 41.9897 31.556C41.9897 15.778 38.4367 8.05 22.9328 8.05C14.8579 8.05 7.10594 10.948 2.90698 16.1C0.645995 18.354 0 20.286 0 25.438C0 57.96 7.75194 111.412 16.4729 146.188C19.0568 157.136 29.0698 159.068 38.1137 159.068C42.3127 159.068 46.8346 158.424 52.9716 155.526C74.2894 145.222 80.1034 116.886 85.5943 89.194C86.5633 84.364 91.7313 60.214 93.9922 47.656C97.2222 30.268 100.775 10.948 103.036 3.864C103.682 1.61 102.39 0 100.129 0ZM463.178 77.924C460.271 99.498 449.289 136.528 437.016 136.528C433.463 136.528 431.525 132.342 431.525 127.512C431.848 113.344 441.214 85.008 463.178 77.924ZM355.943 102.396C358.85 89.838 370.801 70.518 381.783 70.518C383.721 70.518 385.013 71.806 384.69 74.704C383.721 84.364 376.615 100.142 355.943 102.396ZM500 9.66C500 5.796 497.739 2.576 492.248 2.576C488.049 2.576 482.881 4.83 479.651 7.406C475.775 6.44 470.93 9.338 470.284 12.88C467.054 28.014 465.439 44.114 463.824 56.994C441.86 58.926 425.388 71.162 416.99 90.804C415.698 94.024 414.083 97.244 412.145 100.142C400.517 119.784 385.982 131.054 371.77 131.054C361.434 131.054 355.297 123.648 354.651 113.666C358.527 114.632 361.757 114.954 365.31 114.954C388.889 114.954 400.84 92.736 400.84 77.602C400.84 63.112 391.15 55.706 376.615 55.706C350.129 56.028 328.165 87.262 328.165 115.92C328.165 136.206 337.209 152.628 358.204 152.628C374.354 152.628 396.641 143.934 411.822 121.072C410.853 137.172 415.052 152.95 428.941 154.56C436.693 155.204 450.904 150.374 460.271 131.376C460.917 147.154 466.085 154.882 470.284 154.882C477.713 154.882 482.235 152.306 488.049 151.984C489.987 151.984 490.31 150.374 490.31 148.764C490.31 146.51 487.726 137.816 487.726 125.258C487.726 106.26 491.602 76.314 499.677 15.778C499.677 15.134 500 11.914 500 9.66ZM137.92 48.622C145.026 48.622 150.84 42.826 150.84 36.386C150.84 28.014 148.256 20.286 138.889 20.286C132.429 20.286 121.447 27.37 121.447 33.81C121.124 41.216 129.199 48.622 137.92 48.622ZM330.426 43.47C326.227 42.504 322.028 42.504 317.506 42.504C317.829 39.284 317.506 33.166 317.506 28.014C317.506 27.048 317.829 25.76 317.829 23.828C317.829 21.896 317.506 19.964 316.214 18.354C316.537 17.066 316.86 16.1 316.86 15.134C316.86 10.948 310.4 9.016 304.264 9.016C299.096 9.016 294.251 10.948 292.313 16.744C289.406 26.726 288.76 31.234 288.114 41.538C281.654 41.86 269.38 41.86 269.703 45.724C270.349 55.706 280.039 58.926 287.145 59.248C286.176 86.94 263.243 131.376 256.137 131.376C254.845 131.376 254.199 129.122 254.199 124.614C254.199 115.598 256.137 103.362 256.137 90.804C256.137 82.754 255.168 75.67 252.907 71.162C249.677 65.688 239.664 62.79 231.589 62.79C228.359 62.79 226.098 63.112 223.837 63.756C210.594 69.23 199.612 99.176 195.413 105.616C197.351 87.584 200.258 73.416 200.258 66.01C200.258 61.824 196.705 58.282 192.506 58.282C190.891 58.282 189.276 58.926 187.984 60.214C181.848 62.468 174.096 60.214 172.804 68.586C172.481 70.84 171.835 73.416 171.835 76.636C170.543 98.532 148.256 139.426 136.951 139.426C134.044 139.426 133.398 135.884 133.398 131.054C133.398 115.598 141.473 83.398 141.473 76.958C141.796 75.992 142.119 74.704 142.119 73.738C142.119 67.62 135.013 61.502 127.584 61.502C125.323 61.502 124.031 61.18 122.093 61.18C121.124 61.18 119.832 61.502 118.54 62.146C110.465 67.942 103.359 97.888 103.359 116.242C103.359 136.528 115.31 152.95 134.044 152.95C147.61 152.95 158.915 140.714 168.605 123.648C168.605 126.224 167.959 139.104 168.605 146.188C168.928 151.018 174.096 149.086 180.233 151.662C182.494 153.594 184.755 154.56 186.692 154.56C189.922 154.56 192.183 151.662 194.121 146.832C201.55 126.546 219.638 80.822 224.483 80.822C228.359 80.822 224.483 110.124 224.483 124.614C224.483 132.986 225.452 140.07 228.036 142.968C233.527 148.442 239.018 151.34 245.155 151.34C258.398 151.34 272.287 137.172 283.592 111.09C282.946 122.36 282.623 125.58 282.623 129.444C282.623 135.884 282.946 143.29 283.915 148.442C284.561 151.018 284.884 152.628 287.145 154.56C290.375 156.17 292.959 157.136 294.574 158.424C298.127 160.034 297.804 161 302.649 161C304.264 161 306.848 159.39 307.171 155.526C311.369 112.7 315.891 59.57 315.891 59.57C318.798 59.57 327.196 57.316 334.625 56.35C337.855 56.028 341.731 54.096 341.731 51.52C342.377 49.588 337.209 45.08 330.426 43.47Z" fill="#007782"/></g><defs><clipPath id="clip0_8_563"><rect width="500" height="161" fill="white"/></clipPath></defs></svg>