<svg xmlns="http://www.w3.org/2000/svg" width="500" height="123" viewBox="0 0 500 123" fill="none"><g clip-path="url(#clip0_10_804)"><path d="M61.6572 0C70.8187 0 79.5154 1.99706 87.334 5.57715C86.3099 5.35988 84.8635 5.24806 83.5254 5.24805C70.7008 5.41205 56.5606 10.8237 46.2021 19.3516C35.6794 28.2075 27.4581 42.9678 27.458 58.2197C27.6224 81.3436 45.2152 95.7762 62.1504 95.7764C83.0317 95.7764 95.3633 78.5556 95.3633 62.9756C95.3631 47.3958 86.8133 36.0802 67.9053 31.3242V30.3398C67.7419 18.5983 76.6828 8.15479 87.7764 5.78027C108.766 15.5934 123.314 36.8626 123.314 61.5C123.314 95.448 95.6921 123 61.6572 123C27.6224 123 0 95.448 0 61.5C0 27.552 27.6224 6.58881e-05 61.6572 0Z" fill="#E60000"/><path d="M163.104 86.92L144.36 42.148H156.527L168.366 71.832L179.711 42.148H191.549L173.134 86.92H163.104Z" fill="#E60000"/><path d="M235.778 64.288C235.778 67.24 235.284 70.028 234.462 72.98C233.64 75.768 232.16 78.392 230.516 80.524C228.708 82.82 226.57 84.624 223.775 85.936C221.144 87.248 217.856 87.904 214.239 87.904C210.622 87.904 207.498 87.248 204.702 85.936C202.072 84.624 199.77 82.82 197.961 80.524C196.153 78.228 194.837 75.768 194.015 72.98C193.029 70.192 192.7 67.24 192.7 64.288C192.7 61.336 193.193 58.548 194.015 55.76C194.837 52.972 196.317 50.512 197.961 48.216C199.77 46.084 201.907 44.28 204.702 42.968C207.333 41.656 210.622 41 214.239 41C217.856 41 220.98 41.656 223.611 42.968C226.241 44.28 228.543 46.084 230.352 48.216C232.16 50.348 233.476 52.972 234.462 55.76C235.284 58.548 235.778 61.5 235.778 64.288ZM224.268 64.288C224.268 62.484 224.104 60.68 223.611 59.04C223.117 57.4 222.46 55.924 221.638 54.776C220.816 53.628 219.665 52.644 218.514 51.824C217.363 51.004 215.883 50.676 214.074 50.676C212.43 50.676 210.95 51.004 209.635 51.824C208.32 52.48 207.333 53.464 206.511 54.776C205.689 55.924 205.031 57.4 204.538 59.04C204.045 60.68 203.88 62.484 203.88 64.288C203.88 66.256 204.045 68.06 204.538 69.7C205.031 71.34 205.689 72.816 206.511 73.964C207.333 75.276 208.484 76.26 209.635 76.916C210.95 77.572 212.43 78.064 214.074 78.064C215.719 78.064 217.198 77.736 218.514 76.916C219.829 76.26 220.816 75.276 221.638 73.964C222.46 72.652 223.117 71.34 223.611 69.7C224.104 68.06 224.268 66.256 224.268 64.288Z" fill="#E60000"/><path d="M271.457 86.92L270.964 83.476C269.977 84.624 268.497 85.772 266.853 86.592C265.044 87.412 263.071 87.904 260.769 87.904C257.646 87.904 255.015 87.248 252.549 85.936C250.247 84.624 248.274 82.82 246.629 80.688C244.985 78.556 243.834 75.932 243.012 73.144C242.19 70.356 241.697 67.24 241.697 64.288C241.697 61.336 242.19 58.548 243.012 55.76C243.834 52.972 245.15 50.512 246.958 48.216C248.767 46.084 250.904 44.28 253.535 42.968C256.166 41.656 259.29 41 262.907 41C265.209 41 267.84 41.492 270.47 42.312V24.928H281.98V86.92H271.457ZM270.47 51.988C268.168 51.168 266.195 50.676 264.222 50.676C262.249 50.676 260.605 51.004 259.125 51.824C257.646 52.644 256.495 53.628 255.672 54.776C254.686 56.088 254.028 57.564 253.535 59.04C253.042 60.68 252.877 62.32 252.877 63.96C252.877 65.764 253.042 67.568 253.535 69.372C253.864 71.012 254.522 72.652 255.344 73.8C256.166 75.112 257.152 76.096 258.468 76.916C259.783 77.736 261.263 78.064 262.907 78.064C264.387 78.064 265.866 77.736 267.346 76.916C268.826 76.096 269.813 75.276 270.47 74.128V51.988Z" fill="#E60000"/><path d="M315.521 86.92L315.028 83.64C313.713 84.952 312.233 86.1 310.26 86.92C308.287 87.74 306.149 88.068 303.847 88.068C301.874 88.068 300.066 87.74 298.257 87.084C296.449 86.428 294.969 85.444 293.489 84.296C292.174 83.148 291.023 81.672 290.201 79.868C289.378 78.064 288.885 76.096 288.885 73.8C288.885 71.504 289.378 69.536 290.201 67.896C291.023 66.256 292.338 64.78 293.818 63.632C295.298 62.484 297.106 61.5 298.915 60.68C300.888 59.86 302.861 59.368 304.998 59.04C306.478 58.712 308.122 58.548 309.931 58.384C311.74 58.22 313.219 58.056 314.37 57.892V57.236C314.37 54.776 313.713 52.972 312.397 51.988C311.082 51.004 309.273 50.348 307.136 50.348C305.82 50.348 304.505 50.512 303.354 50.84C302.203 51.168 301.052 51.496 300.23 51.988C299.244 52.48 298.422 52.972 297.764 53.464C297.106 53.956 296.449 54.284 295.955 54.776L292.174 46.74C292.667 46.248 293.489 45.756 294.476 45.1C295.462 44.444 296.777 43.952 298.257 43.296C299.737 42.64 301.381 42.148 303.19 41.82C304.998 41.492 306.971 41.164 309.109 41.164C311.575 41.164 313.877 41.492 315.85 42.148C317.823 42.804 319.632 43.788 321.111 45.264C322.591 46.576 323.742 48.38 324.564 50.512C325.386 52.644 325.88 55.268 325.88 58.22V86.92H315.521ZM314.699 65.928C313.384 65.928 312.233 66.092 310.917 66.256C309.602 66.42 308.287 66.584 307.136 66.912C304.67 67.404 302.861 68.224 301.874 69.536C300.888 70.684 300.395 71.996 300.395 73.472C300.395 74.948 300.888 76.096 302.039 77.08C303.19 78.064 304.67 78.392 306.643 78.392C308.122 78.392 309.602 78.064 311.082 77.408C312.562 76.752 313.713 75.932 314.699 75.112V65.928Z" fill="#E60000"/><path d="M361.888 35.096C361.559 34.932 360.737 34.604 359.75 34.276C358.599 33.948 357.284 33.784 355.475 33.784C353.831 33.784 352.516 34.276 351.365 35.26C350.214 36.244 349.72 37.72 349.72 40.016V42.148H359.421V51.496H349.885V86.92H338.376V51.332H332.128V41.984H338.047V39.524C338.047 36.572 338.376 34.112 339.198 32.144C340.02 30.176 341.006 28.536 342.322 27.224C343.637 25.912 345.281 25.092 347.09 24.436C348.898 23.78 350.871 23.616 353.009 23.616C355.804 23.616 358.106 23.944 359.914 24.436C361.723 24.928 362.874 25.256 363.203 25.584L361.888 35.096Z" fill="#E60000"/><path d="M404.801 64.288C404.801 67.24 404.308 70.028 403.486 72.98C402.664 75.768 401.184 78.392 399.54 80.524C397.731 82.82 395.594 84.624 392.798 85.936C390.168 87.248 386.879 87.904 383.262 87.904C379.645 87.904 376.521 87.248 373.726 85.936C371.095 84.624 368.793 82.82 366.985 80.524C365.176 78.228 363.861 75.768 363.038 72.98C362.052 70.192 361.723 67.24 361.723 64.288C361.723 61.336 362.216 58.548 363.038 55.76C363.861 52.972 365.34 50.512 366.985 48.216C368.793 46.084 370.931 44.28 373.726 42.968C376.356 41.656 379.645 41 383.262 41C386.879 41 390.003 41.656 392.634 42.968C395.265 44.28 397.567 46.084 399.375 48.216C401.184 50.348 402.499 52.972 403.486 55.76C404.308 58.548 404.801 61.5 404.801 64.288ZM393.456 64.288C393.456 62.484 393.292 60.68 392.798 59.04C392.305 57.4 391.647 55.924 390.825 54.776C390.003 53.628 388.852 52.644 387.701 51.824C386.386 51.168 385.071 50.676 383.262 50.676C381.618 50.676 380.138 51.004 378.823 51.824C377.507 52.48 376.521 53.464 375.699 54.776C374.877 55.924 374.219 57.4 373.726 59.04C373.232 60.68 373.068 62.484 373.068 64.288C373.068 66.256 373.232 68.06 373.726 69.7C374.219 71.34 374.877 72.816 375.699 73.964C376.521 75.276 377.672 76.26 378.823 76.916C380.138 77.572 381.618 78.064 383.262 78.064C384.906 78.064 386.386 77.736 387.701 76.916C389.017 76.26 390.003 75.276 390.825 73.964C391.647 72.652 392.305 71.34 392.798 69.7C393.127 68.06 393.456 66.256 393.456 64.288Z" fill="#E60000"/><path d="M440.645 86.92V61.336C440.645 57.892 439.987 55.268 438.507 53.464C437.027 51.66 435.054 50.676 432.588 50.676C430.779 50.676 429.135 51.168 427.655 52.152C426.176 53.136 424.86 54.12 423.709 55.268V86.92H412.2V42.148H422.723L423.216 45.756C425.025 44.28 426.998 43.132 429.3 42.312C431.601 41.492 433.903 41.164 436.205 41.164C438.507 41.164 440.809 41.492 442.782 42.312C444.755 42.968 446.564 44.116 447.879 45.756C449.359 47.232 450.345 49.364 451.167 51.824C451.989 54.284 452.318 57.236 452.318 60.68V86.92H440.645Z" fill="#E60000"/><path d="M470.898 67.404C471.227 71.176 472.378 73.964 474.515 75.604C476.652 77.244 479.448 78.064 482.736 78.064C484.38 78.064 485.695 77.9 487.175 77.572C488.491 77.244 489.806 76.916 490.792 76.424C491.779 75.932 492.766 75.604 493.588 75.112C494.41 74.62 494.903 74.292 495.232 73.964L498.356 83.312C497.863 83.64 497.205 83.968 496.218 84.624C495.232 85.116 494.081 85.608 492.601 86.1C491.121 86.592 489.477 86.92 487.504 87.248C485.531 87.576 483.394 87.74 481.092 87.74C478.132 87.74 475.337 87.248 472.706 86.264C470.076 85.28 467.774 83.968 465.801 82C463.828 80.032 462.183 77.572 461.033 74.62C459.882 71.668 459.224 68.224 459.224 64.124C459.224 60.352 459.717 56.908 460.868 54.12C462.019 51.168 463.499 48.708 465.307 46.74C467.28 44.772 469.418 43.296 471.884 42.148C474.351 41.164 477.146 40.508 479.941 40.508C482.736 40.508 485.367 41 487.833 41.82C490.299 42.804 492.437 44.116 494.081 46.084C495.889 48.052 497.205 50.512 498.356 53.628C499.342 56.744 499.836 60.352 499.836 64.78V66.748H470.898V67.404ZM488.326 59.204C488.162 57.728 487.833 56.252 487.34 55.104C486.846 53.956 486.189 52.972 485.367 52.316C484.545 51.66 483.722 51.004 482.9 50.676C481.914 50.348 481.092 50.184 480.105 50.184C478.132 50.184 476.159 51.004 474.351 52.48C472.542 53.956 471.391 56.252 471.227 59.204H488.326Z" fill="#E60000"/></g><defs><clipPath id="clip0_10_804"><rect width="500" height="123" fill="white"/></clipPath></defs></svg>